M48
; DRILL file {KiCad (5.99.0-9885-g7a8abcadd2)} date 03/24/21 01:14:51
; FORMAT={-:-/ absolute / inch / decimal}
; #@! TF.CreationDate,2021-03-24T01:14:51-05:00
; #@! TF.GenerationSoftware,Kicad,Pcbnew,(5.99.0-9885-g7a8abcadd2)
; #@! TF.FileFunction,Plated,1,2,PTH
FMAT,2
INCH
; #@! TA.AperFunction,ViaDrill
T1C0.0157
; #@! TA.AperFunction,ComponentDrill,Plated,PTH
T2C0.0236
; #@! TA.AperFunction,ComponentDrill,Plated,PTH
T3C0.0295
; #@! TA.AperFunction,ComponentDrill,Plated,PTH
T4C0.0394
%
G90
G05
T1
; via hole
X3.8681Y-4.3898
X3.8976Y-3.9449
X3.8976Y-4.1142
X3.8976Y-4.1634
X3.9075Y-4.3898
X3.937Y-4.1634
X4.0157Y-4.0354
X4.0453Y-3.5925
X4.0453Y-3.6417
X4.065Y-4.0256
X4.1043Y-3.1693
X4.1043Y-3.4055
X4.1437Y-3.2382
X4.1437Y-3.2874
X4.1437Y-3.3366
X4.2028Y-4.1634
X4.2205Y-4.2008
X4.2677Y-3.4803
X4.2677Y-3.5276
X4.2717Y-4.0945
X4.2717Y-4.1437
X4.2913Y-3.2992
X4.3307Y-3.5354
X4.3602Y-3.9567
X4.3602Y-4.0354
X4.4291Y-4.1417
X4.4567Y-3.3228
X4.4567Y-3.3858
X4.4587Y-3.7205
X4.4685Y-3.5433
X4.4764Y-4.2087
X4.5039Y-3.3228
X4.5394Y-4.0945
X4.69Y-3.6713
X4.7126Y-3.7559
X4.7126Y-3.7953
X4.7343Y-3.4843
X4.748Y-3.189
X4.7835Y-4.2326
X4.811Y-3.5512
X4.8465Y-3.8307
X4.8465Y-3.9213
X4.8465Y-4.0787
X4.8597Y-3.2948
X4.8597Y-3.3391
X4.8819Y-3.4843
X4.8819Y-3.6693
X4.8868Y-3.1201
X4.9016Y-3.8386
X4.9026Y-4.1486
X4.9469Y-3.7106
X4.9469Y-3.8681
X4.9469Y-4.0256
X4.9508Y-2.9626
X4.9606Y-3.189
X4.9951Y-3.1201
X5.0492Y-3.3366
X5.063Y-3.7008
X5.063Y-3.7441
X5.063Y-3.7913
X5.063Y-3.8386
X5.0787Y-4.1535
X5.0837Y-4.065
X5.0906Y-3.6299
X5.0935Y-4.1093
X5.1206Y-3.5285
X5.1299Y-3.6772
X5.1378Y-3.4892
X5.1535Y-3.811
X5.1575Y-4.0748
X5.1772Y-3.4892
X5.1772Y-4.0059
X5.1772Y-4.1535
X5.1919Y-3.5876
X5.1969Y-4.1191
X5.2165Y-3.9961
X5.2264Y-4.3947
X5.2313Y-3.6018
X5.2362Y-4.1043
X5.2411Y-3.3563
X5.2559Y-3.9961
X5.2608Y-3.5728
X5.2657Y-4.0404
X5.2835Y-3.0591
X5.2904Y-3.2848
X5.315Y-3.9173
X5.3189Y-3.6024
X5.3297Y-3.2848
X5.3346Y-3.0827
X5.3386Y-3.6378
X5.3445Y-3.499
X5.3642Y-3.9272
X5.3701Y-3.6142
X5.374Y-4.5472
X5.3839Y-4.4094
X5.4134Y-4.5177
X5.414Y-4.1831
X5.4173Y-2.9488
X5.4173Y-3.3071
X5.4281Y-3.9272
X5.4327Y-4.1437
X5.437Y-3.7598
X5.4429Y-3.4843
X5.4429Y-4.311
X5.4528Y-4.085
X5.4577Y-3.1201
X5.4646Y-3.7874
X5.4917Y-3.7546
X5.4921Y-3.9518
X5.5069Y-3.2185
X5.5118Y-4.06
X5.5217Y-3.7844
X5.5217Y-4.4882
X5.5315Y-3.44
X5.5315Y-3.6171
X5.5315Y-4.1781
X5.5321Y-3.9518
X5.5364Y-3.686
X5.5502Y-3.7292
X5.5512Y-3.2382
X5.5512Y-3.6516
X5.5659Y-3.7697
X5.5709Y-4.1437
X5.5758Y-3.8238
X5.5906Y-4.1043
X5.593Y-3.2406
X5.6004Y-3.7303
X5.6004Y-4.4882
X5.6102Y-4.065
X5.6152Y-3.8287
X5.6152Y-4.1437
X5.625Y-3.7008
X5.6299Y-3.6073
X5.6521Y-3.5384
X5.6742Y-3.5728
X5.6772Y-3.122
X5.689Y-4.3504
X5.7013Y-3.3612
X5.7165Y-4.2717
X5.7234Y-3.9862
X5.7441Y-4.3819
X5.748Y-3.252
X5.748Y-4.4882
X5.7591Y-3.7389
X5.7628Y-3.8804
X5.7653Y-3.4793
X5.7923Y-4.0896
X5.7923Y-4.1437
X5.7953Y-2.9094
X5.7972Y-3.7414
X5.812Y-3.8804
X5.8307Y-3.2402
X5.8317Y-3.44
X5.8317Y-3.499
X5.8317Y-3.5384
X5.8317Y-3.5778
X5.8317Y-3.6171
X5.8366Y-4.001
X5.8563Y-3.75
X5.8583Y-3.2756
X5.8661Y-3.126
X5.8858Y-3.7254
X5.8898Y-2.9488
X5.9006Y-4.2717
X5.9154Y-3.75
X5.9291Y-2.9488
X5.9301Y-3.5236
X5.9301Y-3.6417
X5.9375Y-3.878
X5.9606Y-3.1772
X5.9646Y-3.6122
X5.9685Y-2.9488
X5.9695Y-3.8238
X5.9843Y-3.5778
X6.0192Y-3.375
X6.0197Y-2.9488
X6.0241Y-3.3209
X6.0241Y-3.3209
X6.0285Y-3.7402
X6.0335Y-3.2357
X6.0335Y-3.2776
X6.0669Y-2.9488
X6.0679Y-3.2013
X6.0827Y-3.1457
X6.1122Y-4.1093
X6.1181Y-3.0748
X6.1909Y-3.4055
X6.2441Y-3.3307
X6.3558Y-3.1964
T3
; plated pad hole
X3.7224Y-4.0551
X3.7224Y-4.1339
X3.7224Y-4.2126
X3.7402Y-2.8937
X3.7402Y-3.1299
X3.7402Y-3.3661
X3.8189Y-2.8937
X3.8189Y-3.1299
X3.8189Y-3.3661
X4.1929Y-3.1693
X4.2717Y-3.1693
X4.3504Y-3.1693
X4.4291Y-3.1693
X4.5079Y-3.1693
X4.5866Y-3.1693
X6.5551Y-3.2677
X6.5551Y-3.3465
X6.5551Y-3.4252
T4
X4.1732Y-4.4276
X4.1732Y-4.5276
X4.2732Y-4.4276
X4.2732Y-4.5276
X4.3732Y-4.4276
X4.3732Y-4.5276
X4.4732Y-4.4276
X4.4732Y-4.5276
X4.5732Y-4.4276
X4.5732Y-4.5276
X4.6732Y-4.4276
X4.6732Y-4.5276
X4.7732Y-4.4276
X4.7732Y-4.5276
X4.8732Y-4.4276
X4.8732Y-4.5276
X4.9732Y-4.4276
X4.9732Y-4.5276
X5.0732Y-4.4276
X5.0732Y-4.5276
X6.2205Y-3.622
X6.3205Y-3.622
X6.4205Y-3.622
X6.5205Y-3.622
X6.6205Y-3.622
T2
; plated pad hole
G00X5.8929Y-4.4654
M15
G01X5.8929Y-4.422
M16
G05
G00X5.8929Y-4.6201
M15
G01X5.8929Y-4.5965
M16
G05
G00X6.2331Y-4.4654
M15
G01X6.2331Y-4.422
M16
G05
G00X6.2331Y-4.6201
M15
G01X6.2331Y-4.5965
M16
G05
T0
M30
