%TF.GenerationSoftware,KiCad,Pcbnew,(5.99.0-9885-g7a8abcadd2)*%
%TF.CreationDate,2021-03-24T01:14:47-05:00*%
%TF.ProjectId,24_control_board,32345f63-6f6e-4747-926f-6c5f626f6172,rev?*%
%TF.SameCoordinates,Original*%
%TF.FileFunction,Paste,Bot*%
%TF.FilePolarity,Positive*%
%FSLAX46Y46*%
G04 Gerber Fmt 4.6, Leading zero omitted, Abs format (unit mm)*
G04 Created by KiCad (PCBNEW (5.99.0-9885-g7a8abcadd2)) date 2021-03-24 01:14:47*
%MOMM*%
%LPD*%
G01*
G04 APERTURE LIST*
G04 Aperture macros list*
%AMRoundRect*
0 Rectangle with rounded corners*
0 $1 Rounding radius*
0 $2 $3 $4 $5 $6 $7 $8 $9 X,Y pos of 4 corners*
0 Add a 4 corners polygon primitive as box body*
4,1,4,$2,$3,$4,$5,$6,$7,$8,$9,$2,$3,0*
0 Add four circle primitives for the rounded corners*
1,1,$1+$1,$2,$3*
1,1,$1+$1,$4,$5*
1,1,$1+$1,$6,$7*
1,1,$1+$1,$8,$9*
0 Add four rect primitives between the rounded corners*
20,1,$1+$1,$2,$3,$4,$5,0*
20,1,$1+$1,$4,$5,$6,$7,0*
20,1,$1+$1,$6,$7,$8,$9,0*
20,1,$1+$1,$8,$9,$2,$3,0*%
G04 Aperture macros list end*
%ADD10R,0.500000X0.500000*%
%ADD11RoundRect,0.125000X0.175000X-0.125000X0.175000X0.125000X-0.175000X0.125000X-0.175000X-0.125000X0*%
%ADD12RoundRect,0.150000X-0.150000X-0.300000X0.150000X-0.300000X0.150000X0.300000X-0.150000X0.300000X0*%
%ADD13RoundRect,0.125000X-0.175000X0.125000X-0.175000X-0.125000X0.175000X-0.125000X0.175000X0.125000X0*%
%ADD14RoundRect,0.150000X0.150000X0.300000X-0.150000X0.300000X-0.150000X-0.300000X0.150000X-0.300000X0*%
%ADD15RoundRect,0.250000X0.412500X0.925000X-0.412500X0.925000X-0.412500X-0.925000X0.412500X-0.925000X0*%
%ADD16RoundRect,0.125000X-0.125000X-0.175000X0.125000X-0.175000X0.125000X0.175000X-0.125000X0.175000X0*%
%ADD17RoundRect,0.150000X0.300000X-0.150000X0.300000X0.150000X-0.300000X0.150000X-0.300000X-0.150000X0*%
%ADD18RoundRect,0.125000X0.125000X0.175000X-0.125000X0.175000X-0.125000X-0.175000X0.125000X-0.175000X0*%
%ADD19R,0.400000X0.650000*%
%ADD20R,0.650000X0.400000*%
%ADD21R,0.450000X0.600000*%
%ADD22R,0.800000X0.900000*%
%ADD23R,1.200000X3.900000*%
%ADD24R,3.900000X1.200000*%
%ADD25R,0.900000X0.800000*%
%ADD26R,0.650000X1.060000*%
%ADD27RoundRect,0.150000X0.825000X0.150000X-0.825000X0.150000X-0.825000X-0.150000X0.825000X-0.150000X0*%
%ADD28R,0.250000X0.675000*%
%ADD29R,0.675000X0.250000*%
%ADD30R,1.000000X0.900000*%
%ADD31R,1.800000X0.600000*%
%ADD32R,0.600000X1.800000*%
%ADD33R,1.600000X1.600000*%
%ADD34R,0.300000X1.300480*%
%ADD35R,1.300480X0.300000*%
%ADD36RoundRect,0.075000X0.225000X0.650000X-0.225000X0.650000X-0.225000X-0.650000X0.225000X-0.650000X0*%
%ADD37RoundRect,0.075000X0.075000X0.650000X-0.075000X0.650000X-0.075000X-0.650000X0.075000X-0.650000X0*%
%ADD38RoundRect,0.250000X0.925000X-0.412500X0.925000X0.412500X-0.925000X0.412500X-0.925000X-0.412500X0*%
%ADD39R,1.060000X0.650000*%
G04 APERTURE END LIST*
D10*
%TO.C,D1*%
X111700000Y-106100000D03*
X111700000Y-103900000D03*
%TD*%
D11*
%TO.C,R2*%
X113700000Y-106100000D03*
X113700000Y-105100000D03*
%TD*%
D12*
%TO.C,R3*%
X110330000Y-108330000D03*
X111830000Y-108330000D03*
%TD*%
D13*
%TO.C,C101*%
X162500000Y-83000000D03*
X162500000Y-84000000D03*
%TD*%
D11*
%TO.C,C102*%
X108000000Y-84750000D03*
X108000000Y-83750000D03*
%TD*%
D12*
%TO.C,C201*%
X108250000Y-102500000D03*
X109750000Y-102500000D03*
%TD*%
D13*
%TO.C,C202*%
X112500000Y-95500000D03*
X112500000Y-96500000D03*
%TD*%
D14*
%TO.C,C203*%
X106250000Y-100500000D03*
X104750000Y-100500000D03*
%TD*%
D11*
%TO.C,C204*%
X114000000Y-98500000D03*
X114000000Y-97500000D03*
%TD*%
D13*
%TO.C,C205*%
X102500000Y-104000000D03*
X102500000Y-105000000D03*
%TD*%
D15*
%TO.C,C206*%
X117537500Y-102000000D03*
X114462500Y-102000000D03*
%TD*%
D16*
%TO.C,C207*%
X102000000Y-101000000D03*
X103000000Y-101000000D03*
%TD*%
%TO.C,C208*%
X102000000Y-99500000D03*
X103000000Y-99500000D03*
%TD*%
D15*
%TO.C,C209*%
X107037500Y-92000000D03*
X103962500Y-92000000D03*
%TD*%
D13*
%TO.C,C210*%
X100500000Y-101000000D03*
X100500000Y-102000000D03*
%TD*%
D17*
%TO.C,C301*%
X148500000Y-105250000D03*
X148500000Y-103750000D03*
%TD*%
D11*
%TO.C,C501*%
X135500000Y-104500000D03*
X135500000Y-103500000D03*
%TD*%
D16*
%TO.C,C502*%
X139500000Y-88000000D03*
X140500000Y-88000000D03*
%TD*%
D18*
%TO.C,C503*%
X147500000Y-99875000D03*
X146500000Y-99875000D03*
%TD*%
D16*
%TO.C,C504*%
X139500000Y-86750000D03*
X140500000Y-86750000D03*
%TD*%
D11*
%TO.C,C505*%
X132750000Y-87000000D03*
X132750000Y-86000000D03*
%TD*%
D18*
%TO.C,C506*%
X152000000Y-88500000D03*
X151000000Y-88500000D03*
%TD*%
D11*
%TO.C,C507*%
X138250000Y-87000000D03*
X138250000Y-86000000D03*
%TD*%
%TO.C,C508*%
X130500000Y-92300000D03*
X130500000Y-91300000D03*
%TD*%
D13*
%TO.C,C509*%
X146500000Y-92125000D03*
X146500000Y-93125000D03*
%TD*%
D16*
%TO.C,C510*%
X131500000Y-90000000D03*
X132500000Y-90000000D03*
%TD*%
D11*
%TO.C,C511*%
X134000000Y-104500000D03*
X134000000Y-103500000D03*
%TD*%
D18*
%TO.C,C512*%
X147500000Y-101000000D03*
X146500000Y-101000000D03*
%TD*%
D13*
%TO.C,C701*%
X123000000Y-75500000D03*
X123000000Y-76500000D03*
%TD*%
D11*
%TO.C,C702*%
X129000000Y-85000000D03*
X129000000Y-84000000D03*
%TD*%
D16*
%TO.C,C703*%
X122000000Y-88500000D03*
X123000000Y-88500000D03*
%TD*%
D18*
%TO.C,C801*%
X157012480Y-87849990D03*
X156012480Y-87849990D03*
%TD*%
D11*
%TO.C,C802*%
X157512480Y-85349990D03*
X157512480Y-84349990D03*
%TD*%
D16*
%TO.C,C901*%
X119500000Y-108000000D03*
X120500000Y-108000000D03*
%TD*%
D11*
%TO.C,C902*%
X145250000Y-105000000D03*
X145250000Y-104000000D03*
%TD*%
D12*
%TO.C,C907*%
X108250000Y-100500000D03*
X109750000Y-100500000D03*
%TD*%
%TO.C,C909*%
X100750000Y-82500000D03*
X102250000Y-82500000D03*
%TD*%
D18*
%TO.C,C1001*%
X127650000Y-96000000D03*
X126650000Y-96000000D03*
%TD*%
%TO.C,C1002*%
X127650000Y-100000000D03*
X126650000Y-100000000D03*
%TD*%
%TO.C,C1003*%
X127650000Y-104000000D03*
X126650000Y-104000000D03*
%TD*%
D11*
%TO.C,C1004*%
X141500000Y-88000000D03*
X141500000Y-87000000D03*
%TD*%
%TO.C,C1005*%
X142500000Y-88000000D03*
X142500000Y-87000000D03*
%TD*%
%TO.C,C1006*%
X143500000Y-88000000D03*
X143500000Y-87000000D03*
%TD*%
D19*
%TO.C,D102*%
X153650000Y-79950000D03*
X153000000Y-79950000D03*
X152350000Y-79950000D03*
X152350000Y-78050000D03*
X153000000Y-78050000D03*
X153650000Y-78050000D03*
%TD*%
D20*
%TO.C,D103*%
X109800000Y-85150000D03*
X109800000Y-84500000D03*
X109800000Y-83850000D03*
X111700000Y-83850000D03*
X111700000Y-84500000D03*
X111700000Y-85150000D03*
%TD*%
D21*
%TO.C,D201*%
X110000000Y-95450000D03*
X110000000Y-97550000D03*
%TD*%
D19*
%TO.C,D504*%
X137650000Y-80200000D03*
X137000000Y-80200000D03*
X136350000Y-80200000D03*
X136350000Y-78300000D03*
X137000000Y-78300000D03*
X137650000Y-78300000D03*
%TD*%
D22*
%TO.C,D701*%
X124550000Y-78000000D03*
X126450000Y-78000000D03*
X125500000Y-80000000D03*
%TD*%
D23*
%TO.C,L201*%
X117400000Y-93500000D03*
X114600000Y-93500000D03*
%TD*%
D24*
%TO.C,L202*%
X106000000Y-95600000D03*
X106000000Y-98400000D03*
%TD*%
D25*
%TO.C,Q601*%
X103000000Y-84550000D03*
X103000000Y-86450000D03*
X101000000Y-85500000D03*
%TD*%
%TO.C,Q602*%
X103000000Y-78560000D03*
X103000000Y-80460000D03*
X101000000Y-79510000D03*
%TD*%
%TO.C,Q1001*%
X123150000Y-96450000D03*
X123150000Y-94550000D03*
X125150000Y-95500000D03*
%TD*%
%TO.C,Q1002*%
X123150000Y-100450000D03*
X123150000Y-98550000D03*
X125150000Y-99500000D03*
%TD*%
%TO.C,Q1003*%
X123150000Y-104450000D03*
X123150000Y-102550000D03*
X125150000Y-103500000D03*
%TD*%
D11*
%TO.C,R101*%
X149000000Y-78500000D03*
X149000000Y-77500000D03*
%TD*%
D13*
%TO.C,R102*%
X162500000Y-86000000D03*
X162500000Y-87000000D03*
%TD*%
D11*
%TO.C,R103*%
X150500000Y-78500000D03*
X150500000Y-77500000D03*
%TD*%
D13*
%TO.C,R104*%
X149000000Y-80300000D03*
X149000000Y-81300000D03*
%TD*%
%TO.C,R105*%
X150500000Y-80300000D03*
X150500000Y-81300000D03*
%TD*%
D11*
%TO.C,R106*%
X110500000Y-77500000D03*
X110500000Y-76500000D03*
%TD*%
%TO.C,R107*%
X112500000Y-77500000D03*
X112500000Y-76500000D03*
%TD*%
%TO.C,R108*%
X114500000Y-77500000D03*
X114500000Y-76500000D03*
%TD*%
%TO.C,R109*%
X108500000Y-77500000D03*
X108500000Y-76500000D03*
%TD*%
D13*
%TO.C,R201*%
X99000000Y-101000000D03*
X99000000Y-102000000D03*
%TD*%
D16*
%TO.C,R202*%
X99000000Y-103500000D03*
X100000000Y-103500000D03*
%TD*%
%TO.C,R401*%
X142500000Y-107930000D03*
X143500000Y-107930000D03*
%TD*%
%TO.C,R402*%
X142500000Y-109000000D03*
X143500000Y-109000000D03*
%TD*%
D13*
%TO.C,R403*%
X147500000Y-111500000D03*
X147500000Y-112500000D03*
%TD*%
%TO.C,R404*%
X160500000Y-111500000D03*
X160500000Y-112500000D03*
%TD*%
D11*
%TO.C,R501*%
X144500000Y-113000000D03*
X144500000Y-112000000D03*
%TD*%
%TO.C,R502*%
X142250000Y-113000000D03*
X142250000Y-112000000D03*
%TD*%
%TO.C,R503*%
X140000000Y-113000000D03*
X140000000Y-112000000D03*
%TD*%
%TO.C,R504*%
X137750000Y-113000000D03*
X137750000Y-112000000D03*
%TD*%
%TO.C,R701*%
X124500000Y-76500000D03*
X124500000Y-75500000D03*
%TD*%
%TO.C,R702*%
X126750000Y-76500000D03*
X126750000Y-75500000D03*
%TD*%
D18*
%TO.C,R801*%
X152012480Y-84349990D03*
X151012480Y-84349990D03*
%TD*%
%TO.C,R802*%
X152012480Y-85849990D03*
X151012480Y-85849990D03*
%TD*%
D14*
%TO.C,R901*%
X102250000Y-88750000D03*
X100750000Y-88750000D03*
%TD*%
D16*
%TO.C,R902*%
X104000000Y-88750000D03*
X105000000Y-88750000D03*
%TD*%
D13*
%TO.C,R1001*%
X123750000Y-106500000D03*
X123750000Y-107500000D03*
%TD*%
%TO.C,R1002*%
X125750000Y-106500000D03*
X125750000Y-107500000D03*
%TD*%
%TO.C,R1003*%
X127750000Y-106500000D03*
X127750000Y-107500000D03*
%TD*%
D22*
%TO.C,U201*%
X115550000Y-97000000D03*
X117450000Y-97000000D03*
X116500000Y-99000000D03*
%TD*%
D26*
%TO.C,U202*%
X104550000Y-102400000D03*
X105500000Y-102400000D03*
X106450000Y-102400000D03*
X106450000Y-104600000D03*
X105500000Y-104600000D03*
X104550000Y-104600000D03*
%TD*%
D27*
%TO.C,U701*%
X126615000Y-82565000D03*
X126615000Y-83835000D03*
X126615000Y-85105000D03*
X126615000Y-86375000D03*
X121665000Y-86375000D03*
X121665000Y-85105000D03*
X121665000Y-83835000D03*
X121665000Y-82565000D03*
%TD*%
D28*
%TO.C,U801*%
X154362480Y-83937490D03*
X154862480Y-83937490D03*
X155362480Y-83937490D03*
X155862480Y-83937490D03*
D29*
X156124980Y-84699990D03*
X156124980Y-85199990D03*
X156124980Y-85699990D03*
D28*
X155862480Y-86462490D03*
X155362480Y-86462490D03*
X154862480Y-86462490D03*
X154362480Y-86462490D03*
D29*
X154099980Y-85699990D03*
X154099980Y-85199990D03*
X154099980Y-84699990D03*
%TD*%
D30*
%TO.C,X501*%
X136575000Y-87275000D03*
X134425000Y-87275000D03*
X134425000Y-85725000D03*
X136575000Y-85725000D03*
%TD*%
D31*
%TO.C,U301*%
X151500000Y-105500000D03*
X151500000Y-104500000D03*
X151500000Y-103500000D03*
X151500000Y-102500000D03*
X151500000Y-101500000D03*
X151500000Y-100500000D03*
D32*
X154500000Y-97400000D03*
X155500000Y-97400000D03*
X156500000Y-97400000D03*
X157500000Y-97400000D03*
X158500000Y-97400000D03*
X164400000Y-97400000D03*
X165550000Y-97400000D03*
D33*
X164900000Y-100900000D03*
X164900000Y-104000000D03*
%TD*%
D34*
%TO.C,U501*%
X134750960Y-90249440D03*
X135248800Y-90249440D03*
X135749180Y-90249440D03*
X136249560Y-90249440D03*
X136749940Y-90249440D03*
X137250320Y-90249440D03*
X137750700Y-90249440D03*
X138251080Y-90249440D03*
X138748920Y-90249440D03*
X139249300Y-90249440D03*
X139749680Y-90249440D03*
X140250060Y-90249440D03*
X140750440Y-90249440D03*
X141250820Y-90249440D03*
X141751200Y-90249440D03*
X142249040Y-90249440D03*
D35*
X144250560Y-92250960D03*
X144250560Y-92748800D03*
X144250560Y-93249180D03*
X144250560Y-93749560D03*
X144250560Y-94249940D03*
X144250560Y-94750320D03*
X144250560Y-95250700D03*
X144250560Y-95751080D03*
X144250560Y-96248920D03*
X144250560Y-96749300D03*
X144250560Y-97249680D03*
X144250560Y-97750060D03*
X144250560Y-98250440D03*
X144250560Y-98750820D03*
X144250560Y-99251200D03*
X144250560Y-99749040D03*
D34*
X142249040Y-101750560D03*
X141751200Y-101750560D03*
X141250820Y-101750560D03*
X140750440Y-101750560D03*
X140250060Y-101750560D03*
X139749680Y-101750560D03*
X139249300Y-101750560D03*
X138748920Y-101750560D03*
X138251080Y-101750560D03*
X137750700Y-101750560D03*
X137250320Y-101750560D03*
X136749940Y-101750560D03*
X136249560Y-101750560D03*
X135749180Y-101750560D03*
X135248800Y-101750560D03*
X134750960Y-101750560D03*
D35*
X132749440Y-99749040D03*
X132749440Y-99251200D03*
X132749440Y-98750820D03*
X132749440Y-98250440D03*
X132749440Y-97750060D03*
X132749440Y-97249680D03*
X132749440Y-96749300D03*
X132749440Y-96248920D03*
X132749440Y-95751080D03*
X132749440Y-95250700D03*
X132749440Y-94750320D03*
X132749440Y-94249940D03*
X132749440Y-93749560D03*
X132749440Y-93249180D03*
X132749440Y-92748800D03*
X132749440Y-92250960D03*
%TD*%
D18*
%TO.C,R1004*%
X127650000Y-94500000D03*
X126650000Y-94500000D03*
%TD*%
%TO.C,R1005*%
X127650000Y-98500000D03*
X126650000Y-98500000D03*
%TD*%
%TO.C,R1006*%
X127650000Y-102500000D03*
X126650000Y-102500000D03*
%TD*%
D36*
%TO.C,J401*%
X157250000Y-111955000D03*
X156450000Y-111955000D03*
D37*
X155250000Y-111955000D03*
X154250000Y-111955000D03*
X153750000Y-111955000D03*
X152750000Y-111955000D03*
D36*
X151550000Y-111955000D03*
X150750000Y-111955000D03*
X150750000Y-111955000D03*
X151550000Y-111955000D03*
D37*
X152250000Y-111955000D03*
X153250000Y-111955000D03*
X154750000Y-111955000D03*
X155750000Y-111955000D03*
D36*
X156450000Y-111955000D03*
X157250000Y-111955000D03*
%TD*%
D10*
%TO.C,D101*%
X104100000Y-108000000D03*
X101900000Y-108000000D03*
%TD*%
D38*
%TO.C,C910*%
X99000000Y-110037500D03*
X99000000Y-106962500D03*
%TD*%
D21*
%TO.C,D202*%
X110000000Y-93250000D03*
X110000000Y-91150000D03*
%TD*%
D39*
%TO.C,U402*%
X148600000Y-107550000D03*
X148600000Y-108500000D03*
X148600000Y-109450000D03*
X146400000Y-109450000D03*
X146400000Y-108500000D03*
X146400000Y-107550000D03*
%TD*%
D18*
%TO.C,R1*%
X154979280Y-95000000D03*
X153979280Y-95000000D03*
%TD*%
M02*
