%TF.GenerationSoftware,KiCad,Pcbnew,(5.99.0-9885-g7a8abcadd2)*%
%TF.CreationDate,2021-03-24T01:14:47-05:00*%
%TF.ProjectId,24_control_board,32345f63-6f6e-4747-926f-6c5f626f6172,rev?*%
%TF.SameCoordinates,Original*%
%TF.FileFunction,Legend,Top*%
%TF.FilePolarity,Positive*%
%FSLAX46Y46*%
G04 Gerber Fmt 4.6, Leading zero omitted, Abs format (unit mm)*
G04 Created by KiCad (PCBNEW (5.99.0-9885-g7a8abcadd2)) date 2021-03-24 01:14:47*
%MOMM*%
%LPD*%
G01*
G04 APERTURE LIST*
%ADD10C,0.150000*%
%ADD11C,0.120000*%
%ADD12C,0.200000*%
%ADD13C,0.130000*%
G04 APERTURE END LIST*
D10*
X97242857Y-103452380D02*
X97242857Y-102452380D01*
X97814285Y-103452380D01*
X97814285Y-102452380D01*
X98861904Y-103357142D02*
X98814285Y-103404761D01*
X98671428Y-103452380D01*
X98576190Y-103452380D01*
X98433333Y-103404761D01*
X98338095Y-103309523D01*
X98290476Y-103214285D01*
X98242857Y-103023809D01*
X98242857Y-102880952D01*
X98290476Y-102690476D01*
X98338095Y-102595238D01*
X98433333Y-102500000D01*
X98576190Y-102452380D01*
X98671428Y-102452380D01*
X98814285Y-102500000D01*
X98861904Y-102547619D01*
X99052380Y-103547619D02*
X99814285Y-103547619D01*
X100004761Y-103404761D02*
X100147619Y-103452380D01*
X100385714Y-103452380D01*
X100480952Y-103404761D01*
X100528571Y-103357142D01*
X100576190Y-103261904D01*
X100576190Y-103166666D01*
X100528571Y-103071428D01*
X100480952Y-103023809D01*
X100385714Y-102976190D01*
X100195238Y-102928571D01*
X100100000Y-102880952D01*
X100052380Y-102833333D01*
X100004761Y-102738095D01*
X100004761Y-102642857D01*
X100052380Y-102547619D01*
X100100000Y-102500000D01*
X100195238Y-102452380D01*
X100433333Y-102452380D01*
X100576190Y-102500000D01*
X100909523Y-102452380D02*
X101147619Y-103452380D01*
X101338095Y-102738095D01*
X101528571Y-103452380D01*
X101766666Y-102452380D01*
X102147619Y-103452380D02*
X102147619Y-102452380D01*
X102480952Y-102452380D02*
X103052380Y-102452380D01*
X102766666Y-103452380D02*
X102766666Y-102452380D01*
X103957142Y-103357142D02*
X103909523Y-103404761D01*
X103766666Y-103452380D01*
X103671428Y-103452380D01*
X103528571Y-103404761D01*
X103433333Y-103309523D01*
X103385714Y-103214285D01*
X103338095Y-103023809D01*
X103338095Y-102880952D01*
X103385714Y-102690476D01*
X103433333Y-102595238D01*
X103528571Y-102500000D01*
X103671428Y-102452380D01*
X103766666Y-102452380D01*
X103909523Y-102500000D01*
X103957142Y-102547619D01*
X104385714Y-103452380D02*
X104385714Y-102452380D01*
X104385714Y-102928571D02*
X104957142Y-102928571D01*
X104957142Y-103452380D02*
X104957142Y-102452380D01*
X97285714Y-104452380D02*
X97904761Y-104452380D01*
X97571428Y-104833333D01*
X97714285Y-104833333D01*
X97809523Y-104880952D01*
X97857142Y-104928571D01*
X97904761Y-105023809D01*
X97904761Y-105261904D01*
X97857142Y-105357142D01*
X97809523Y-105404761D01*
X97714285Y-105452380D01*
X97428571Y-105452380D01*
X97333333Y-105404761D01*
X97285714Y-105357142D01*
X98333333Y-105357142D02*
X98380952Y-105404761D01*
X98333333Y-105452380D01*
X98285714Y-105404761D01*
X98333333Y-105357142D01*
X98333333Y-105452380D01*
X98714285Y-104452380D02*
X99333333Y-104452380D01*
X99000000Y-104833333D01*
X99142857Y-104833333D01*
X99238095Y-104880952D01*
X99285714Y-104928571D01*
X99333333Y-105023809D01*
X99333333Y-105261904D01*
X99285714Y-105357142D01*
X99238095Y-105404761D01*
X99142857Y-105452380D01*
X98857142Y-105452380D01*
X98761904Y-105404761D01*
X98714285Y-105357142D01*
X99619047Y-104452380D02*
X99952380Y-105452380D01*
X100285714Y-104452380D01*
X100380952Y-105547619D02*
X101142857Y-105547619D01*
X101857142Y-105452380D02*
X101380952Y-105452380D01*
X101380952Y-104452380D01*
X102190476Y-104928571D02*
X102523809Y-104928571D01*
X102666666Y-105452380D02*
X102190476Y-105452380D01*
X102190476Y-104452380D01*
X102666666Y-104452380D01*
X103095238Y-105452380D02*
X103095238Y-104452380D01*
X103333333Y-104452380D01*
X103476190Y-104500000D01*
X103571428Y-104595238D01*
X103619047Y-104690476D01*
X103666666Y-104880952D01*
X103666666Y-105023809D01*
X103619047Y-105214285D01*
X103571428Y-105309523D01*
X103476190Y-105404761D01*
X103333333Y-105452380D01*
X103095238Y-105452380D01*
X97738095Y-106500000D02*
X97642857Y-106452380D01*
X97500000Y-106452380D01*
X97357142Y-106500000D01*
X97261904Y-106595238D01*
X97214285Y-106690476D01*
X97166666Y-106880952D01*
X97166666Y-107023809D01*
X97214285Y-107214285D01*
X97261904Y-107309523D01*
X97357142Y-107404761D01*
X97500000Y-107452380D01*
X97595238Y-107452380D01*
X97738095Y-107404761D01*
X97785714Y-107357142D01*
X97785714Y-107023809D01*
X97595238Y-107023809D01*
X98214285Y-107452380D02*
X98214285Y-106452380D01*
X98785714Y-107452380D01*
X98785714Y-106452380D01*
X99261904Y-107452380D02*
X99261904Y-106452380D01*
X99500000Y-106452380D01*
X99642857Y-106500000D01*
X99738095Y-106595238D01*
X99785714Y-106690476D01*
X99833333Y-106880952D01*
X99833333Y-107023809D01*
X99785714Y-107214285D01*
X99738095Y-107309523D01*
X99642857Y-107404761D01*
X99500000Y-107452380D01*
X99261904Y-107452380D01*
X92095238Y-110952380D02*
X92095238Y-109952380D01*
X92476190Y-109952380D01*
X92571428Y-110000000D01*
X92619047Y-110047619D01*
X92666666Y-110142857D01*
X92666666Y-110285714D01*
X92619047Y-110380952D01*
X92571428Y-110428571D01*
X92476190Y-110476190D01*
X92095238Y-110476190D01*
X93000000Y-109952380D02*
X93238095Y-110952380D01*
X93428571Y-110238095D01*
X93619047Y-110952380D01*
X93857142Y-109952380D01*
X94809523Y-110952380D02*
X94476190Y-110476190D01*
X94238095Y-110952380D02*
X94238095Y-109952380D01*
X94619047Y-109952380D01*
X94714285Y-110000000D01*
X94761904Y-110047619D01*
X94809523Y-110142857D01*
X94809523Y-110285714D01*
X94761904Y-110380952D01*
X94714285Y-110428571D01*
X94619047Y-110476190D01*
X94238095Y-110476190D01*
X95952380Y-110904761D02*
X96095238Y-110952380D01*
X96333333Y-110952380D01*
X96428571Y-110904761D01*
X96476190Y-110857142D01*
X96523809Y-110761904D01*
X96523809Y-110666666D01*
X96476190Y-110571428D01*
X96428571Y-110523809D01*
X96333333Y-110476190D01*
X96142857Y-110428571D01*
X96047619Y-110380952D01*
X96000000Y-110333333D01*
X95952380Y-110238095D01*
X95952380Y-110142857D01*
X96000000Y-110047619D01*
X96047619Y-110000000D01*
X96142857Y-109952380D01*
X96380952Y-109952380D01*
X96523809Y-110000000D01*
X96857142Y-109952380D02*
X97095238Y-110952380D01*
X97285714Y-110238095D01*
X97476190Y-110952380D01*
X97714285Y-109952380D01*
X98095238Y-110952380D02*
X98095238Y-109952380D01*
X98428571Y-109952380D02*
X99000000Y-109952380D01*
X98714285Y-110952380D02*
X98714285Y-109952380D01*
X99904761Y-110857142D02*
X99857142Y-110904761D01*
X99714285Y-110952380D01*
X99619047Y-110952380D01*
X99476190Y-110904761D01*
X99380952Y-110809523D01*
X99333333Y-110714285D01*
X99285714Y-110523809D01*
X99285714Y-110380952D01*
X99333333Y-110190476D01*
X99380952Y-110095238D01*
X99476190Y-110000000D01*
X99619047Y-109952380D01*
X99714285Y-109952380D01*
X99857142Y-110000000D01*
X99904761Y-110047619D01*
X100333333Y-110952380D02*
X100333333Y-109952380D01*
X100333333Y-110428571D02*
X100904761Y-110428571D01*
X100904761Y-110952380D02*
X100904761Y-109952380D01*
D11*
X159400000Y-78800000D02*
X160800000Y-78800000D01*
X148300000Y-83100000D02*
X148300000Y-88000000D01*
X105600000Y-90000000D02*
X106400000Y-89600000D01*
X112200000Y-84000000D02*
X112600000Y-82800000D01*
X114400000Y-83800000D02*
X114400000Y-82800000D01*
X152200000Y-88400000D02*
X149700000Y-88400000D01*
X107200000Y-83600000D02*
X106400000Y-82800000D01*
X149700000Y-88400000D02*
X148300000Y-87000000D01*
X105400000Y-87000000D02*
X106400000Y-87200000D01*
X148750000Y-119500000D02*
X159250000Y-119500000D01*
X159250000Y-119500000D02*
X159250000Y-111375000D01*
X159250000Y-111375000D02*
X148750000Y-111375000D01*
X148750000Y-111375000D02*
X148750000Y-119500000D01*
X166000000Y-95000000D02*
X170500000Y-95000000D01*
X170500000Y-95000000D02*
X170500000Y-109000000D01*
X170500000Y-109000000D02*
X166000000Y-109000000D01*
X166000000Y-109000000D02*
X166000000Y-95000000D01*
X153600000Y-83000000D02*
X153600000Y-87000000D01*
X109000000Y-84000000D02*
X108400000Y-82800000D01*
X160800000Y-78800000D02*
X162000000Y-79560000D01*
X153600000Y-87000000D02*
X152200000Y-88400000D01*
X110600000Y-84000000D02*
X110400000Y-82800000D01*
D10*
X162809523Y-84652380D02*
X162333333Y-84652380D01*
X162285714Y-85128571D01*
X162333333Y-85080952D01*
X162428571Y-85033333D01*
X162666666Y-85033333D01*
X162761904Y-85080952D01*
X162809523Y-85128571D01*
X162857142Y-85223809D01*
X162857142Y-85461904D01*
X162809523Y-85557142D01*
X162761904Y-85604761D01*
X162666666Y-85652380D01*
X162428571Y-85652380D01*
X162333333Y-85604761D01*
X162285714Y-85557142D01*
X163142857Y-84652380D02*
X163476190Y-85652380D01*
X163809523Y-84652380D01*
X100566666Y-87514285D02*
X100566666Y-87038095D01*
X100852380Y-87609523D02*
X99852380Y-87276190D01*
X100852380Y-86942857D01*
X99852380Y-86609523D02*
X100661904Y-86609523D01*
X100757142Y-86561904D01*
X100804761Y-86514285D01*
X100852380Y-86419047D01*
X100852380Y-86228571D01*
X100804761Y-86133333D01*
X100757142Y-86085714D01*
X100661904Y-86038095D01*
X99852380Y-86038095D01*
X99852380Y-85657142D02*
X100852380Y-84990476D01*
X99852380Y-84990476D02*
X100852380Y-85657142D01*
X100852380Y-84085714D02*
X100852380Y-84657142D01*
X100852380Y-84371428D02*
X99852380Y-84371428D01*
X99995238Y-84466666D01*
X100090476Y-84561904D01*
X100138095Y-84657142D01*
X164809523Y-80154761D02*
X164952380Y-80202380D01*
X165190476Y-80202380D01*
X165285714Y-80154761D01*
X165333333Y-80107142D01*
X165380952Y-80011904D01*
X165380952Y-79916666D01*
X165333333Y-79821428D01*
X165285714Y-79773809D01*
X165190476Y-79726190D01*
X165000000Y-79678571D01*
X164904761Y-79630952D01*
X164857142Y-79583333D01*
X164809523Y-79488095D01*
X164809523Y-79392857D01*
X164857142Y-79297619D01*
X164904761Y-79250000D01*
X165000000Y-79202380D01*
X165238095Y-79202380D01*
X165380952Y-79250000D01*
X165809523Y-79678571D02*
X166142857Y-79678571D01*
X166285714Y-80202380D02*
X165809523Y-80202380D01*
X165809523Y-79202380D01*
X166285714Y-79202380D01*
X167285714Y-80202380D02*
X166952380Y-79726190D01*
X166714285Y-80202380D02*
X166714285Y-79202380D01*
X167095238Y-79202380D01*
X167190476Y-79250000D01*
X167238095Y-79297619D01*
X167285714Y-79392857D01*
X167285714Y-79535714D01*
X167238095Y-79630952D01*
X167190476Y-79678571D01*
X167095238Y-79726190D01*
X166714285Y-79726190D01*
X167571428Y-79202380D02*
X167904761Y-80202380D01*
X168238095Y-79202380D01*
X168761904Y-79202380D02*
X168952380Y-79202380D01*
X169047619Y-79250000D01*
X169142857Y-79345238D01*
X169190476Y-79535714D01*
X169190476Y-79869047D01*
X169142857Y-80059523D01*
X169047619Y-80154761D01*
X168952380Y-80202380D01*
X168761904Y-80202380D01*
X168666666Y-80154761D01*
X168571428Y-80059523D01*
X168523809Y-79869047D01*
X168523809Y-79535714D01*
X168571428Y-79345238D01*
X168666666Y-79250000D01*
X168761904Y-79202380D01*
X164555532Y-95356277D02*
X163989847Y-94790592D01*
X164205346Y-94575093D01*
X164286158Y-94548155D01*
X164340033Y-94548155D01*
X164420845Y-94575093D01*
X164501658Y-94655905D01*
X164528595Y-94736717D01*
X164528595Y-94790592D01*
X164501658Y-94871404D01*
X164286158Y-95086903D01*
X165013468Y-94305719D02*
X165121218Y-94251844D01*
X165175093Y-94251844D01*
X165255905Y-94278781D01*
X165336717Y-94359593D01*
X165363654Y-94440406D01*
X165363654Y-94494280D01*
X165336717Y-94575093D01*
X165121218Y-94790592D01*
X164555532Y-94224906D01*
X164744094Y-94036345D01*
X164824906Y-94009407D01*
X164878781Y-94009407D01*
X164959593Y-94036345D01*
X165013468Y-94090219D01*
X165040406Y-94171032D01*
X165040406Y-94224906D01*
X165013468Y-94305719D01*
X164824906Y-94494280D01*
X165552216Y-93605346D02*
X165929340Y-93982470D01*
X165202030Y-93524534D02*
X165471404Y-94063282D01*
X165821590Y-93713096D01*
X159307023Y-98168000D02*
X159230833Y-98129904D01*
X159116547Y-98129904D01*
X159002261Y-98168000D01*
X158926071Y-98244190D01*
X158887976Y-98320380D01*
X158849880Y-98472761D01*
X158849880Y-98587047D01*
X158887976Y-98739428D01*
X158926071Y-98815619D01*
X159002261Y-98891809D01*
X159116547Y-98929904D01*
X159192738Y-98929904D01*
X159307023Y-98891809D01*
X159345119Y-98853714D01*
X159345119Y-98587047D01*
X159192738Y-98587047D01*
X159687976Y-98929904D02*
X159687976Y-98129904D01*
X160145119Y-98929904D01*
X160145119Y-98129904D01*
X160526071Y-98929904D02*
X160526071Y-98129904D01*
X160716547Y-98129904D01*
X160830833Y-98168000D01*
X160907023Y-98244190D01*
X160945119Y-98320380D01*
X160983214Y-98472761D01*
X160983214Y-98587047D01*
X160945119Y-98739428D01*
X160907023Y-98815619D01*
X160830833Y-98891809D01*
X160716547Y-98929904D01*
X160526071Y-98929904D01*
X158887976Y-100217904D02*
X158887976Y-99417904D01*
X159345119Y-100217904D01*
X159345119Y-99417904D01*
X160183214Y-100217904D02*
X159916547Y-99836952D01*
X159726071Y-100217904D02*
X159726071Y-99417904D01*
X160030833Y-99417904D01*
X160107023Y-99456000D01*
X160145119Y-99494095D01*
X160183214Y-99570285D01*
X160183214Y-99684571D01*
X160145119Y-99760761D01*
X160107023Y-99798857D01*
X160030833Y-99836952D01*
X159726071Y-99836952D01*
X160487976Y-100179809D02*
X160602261Y-100217904D01*
X160792738Y-100217904D01*
X160868928Y-100179809D01*
X160907023Y-100141714D01*
X160945119Y-100065523D01*
X160945119Y-99989333D01*
X160907023Y-99913142D01*
X160868928Y-99875047D01*
X160792738Y-99836952D01*
X160640357Y-99798857D01*
X160564166Y-99760761D01*
X160526071Y-99722666D01*
X160487976Y-99646476D01*
X160487976Y-99570285D01*
X160526071Y-99494095D01*
X160564166Y-99456000D01*
X160640357Y-99417904D01*
X160830833Y-99417904D01*
X160945119Y-99456000D01*
X161173690Y-99417904D02*
X161630833Y-99417904D01*
X161402261Y-100217904D02*
X161402261Y-99417904D01*
X158849880Y-101467809D02*
X158964166Y-101505904D01*
X159154642Y-101505904D01*
X159230833Y-101467809D01*
X159268928Y-101429714D01*
X159307023Y-101353523D01*
X159307023Y-101277333D01*
X159268928Y-101201142D01*
X159230833Y-101163047D01*
X159154642Y-101124952D01*
X159002261Y-101086857D01*
X158926071Y-101048761D01*
X158887976Y-101010666D01*
X158849880Y-100934476D01*
X158849880Y-100858285D01*
X158887976Y-100782095D01*
X158926071Y-100744000D01*
X159002261Y-100705904D01*
X159192738Y-100705904D01*
X159307023Y-100744000D01*
X159573690Y-100705904D02*
X159764166Y-101505904D01*
X159916547Y-100934476D01*
X160068928Y-101505904D01*
X160259404Y-100705904D01*
X161021309Y-101429714D02*
X160983214Y-101467809D01*
X160868928Y-101505904D01*
X160792738Y-101505904D01*
X160678452Y-101467809D01*
X160602261Y-101391619D01*
X160564166Y-101315428D01*
X160526071Y-101163047D01*
X160526071Y-101048761D01*
X160564166Y-100896380D01*
X160602261Y-100820190D01*
X160678452Y-100744000D01*
X160792738Y-100705904D01*
X160868928Y-100705904D01*
X160983214Y-100744000D01*
X161021309Y-100782095D01*
X161745119Y-101505904D02*
X161364166Y-101505904D01*
X161364166Y-100705904D01*
X162011785Y-101505904D02*
X162011785Y-100705904D01*
X162468928Y-101505904D02*
X162126071Y-101048761D01*
X162468928Y-100705904D02*
X162011785Y-101163047D01*
X158849880Y-102755809D02*
X158964166Y-102793904D01*
X159154642Y-102793904D01*
X159230833Y-102755809D01*
X159268928Y-102717714D01*
X159307023Y-102641523D01*
X159307023Y-102565333D01*
X159268928Y-102489142D01*
X159230833Y-102451047D01*
X159154642Y-102412952D01*
X159002261Y-102374857D01*
X158926071Y-102336761D01*
X158887976Y-102298666D01*
X158849880Y-102222476D01*
X158849880Y-102146285D01*
X158887976Y-102070095D01*
X158926071Y-102032000D01*
X159002261Y-101993904D01*
X159192738Y-101993904D01*
X159307023Y-102032000D01*
X159573690Y-101993904D02*
X159764166Y-102793904D01*
X159916547Y-102222476D01*
X160068928Y-102793904D01*
X160259404Y-101993904D01*
X160564166Y-102793904D02*
X160564166Y-101993904D01*
X160754642Y-101993904D01*
X160868928Y-102032000D01*
X160945119Y-102108190D01*
X160983214Y-102184380D01*
X161021309Y-102336761D01*
X161021309Y-102451047D01*
X160983214Y-102603428D01*
X160945119Y-102679619D01*
X160868928Y-102755809D01*
X160754642Y-102793904D01*
X160564166Y-102793904D01*
X161364166Y-102793904D02*
X161364166Y-101993904D01*
X161897500Y-101993904D02*
X162049880Y-101993904D01*
X162126071Y-102032000D01*
X162202261Y-102108190D01*
X162240357Y-102260571D01*
X162240357Y-102527238D01*
X162202261Y-102679619D01*
X162126071Y-102755809D01*
X162049880Y-102793904D01*
X161897500Y-102793904D01*
X161821309Y-102755809D01*
X161745119Y-102679619D01*
X161707023Y-102527238D01*
X161707023Y-102260571D01*
X161745119Y-102108190D01*
X161821309Y-102032000D01*
X161897500Y-101993904D01*
X100566666Y-81714285D02*
X100566666Y-81238095D01*
X100852380Y-81809523D02*
X99852380Y-81476190D01*
X100852380Y-81142857D01*
X99852380Y-80809523D02*
X100661904Y-80809523D01*
X100757142Y-80761904D01*
X100804761Y-80714285D01*
X100852380Y-80619047D01*
X100852380Y-80428571D01*
X100804761Y-80333333D01*
X100757142Y-80285714D01*
X100661904Y-80238095D01*
X99852380Y-80238095D01*
X99852380Y-79857142D02*
X100852380Y-79190476D01*
X99852380Y-79190476D02*
X100852380Y-79857142D01*
X99947619Y-78857142D02*
X99900000Y-78809523D01*
X99852380Y-78714285D01*
X99852380Y-78476190D01*
X99900000Y-78380952D01*
X99947619Y-78333333D01*
X100042857Y-78285714D01*
X100138095Y-78285714D01*
X100280952Y-78333333D01*
X100852380Y-78904761D01*
X100852380Y-78285714D01*
X161066666Y-87652380D02*
X161066666Y-86652380D01*
X161447619Y-86652380D01*
X161542857Y-86700000D01*
X161590476Y-86747619D01*
X161638095Y-86842857D01*
X161638095Y-86985714D01*
X161590476Y-87080952D01*
X161542857Y-87128571D01*
X161447619Y-87176190D01*
X161066666Y-87176190D01*
X162066666Y-87652380D02*
X162066666Y-86652380D01*
X162447619Y-86652380D01*
X162542857Y-86700000D01*
X162590476Y-86747619D01*
X162638095Y-86842857D01*
X162638095Y-86985714D01*
X162590476Y-87080952D01*
X162542857Y-87128571D01*
X162447619Y-87176190D01*
X162066666Y-87176190D01*
X163066666Y-87652380D02*
X163066666Y-86652380D01*
X163400000Y-87366666D01*
X163733333Y-86652380D01*
X163733333Y-87652380D01*
X143447380Y-86576190D02*
X142447380Y-86576190D01*
X142542619Y-86147619D02*
X142495000Y-86100000D01*
X142447380Y-86004761D01*
X142447380Y-85766666D01*
X142495000Y-85671428D01*
X142542619Y-85623809D01*
X142637857Y-85576190D01*
X142733095Y-85576190D01*
X142875952Y-85623809D01*
X143447380Y-86195238D01*
X143447380Y-85576190D01*
X143352142Y-84576190D02*
X143399761Y-84623809D01*
X143447380Y-84766666D01*
X143447380Y-84861904D01*
X143399761Y-85004761D01*
X143304523Y-85100000D01*
X143209285Y-85147619D01*
X143018809Y-85195238D01*
X142875952Y-85195238D01*
X142685476Y-85147619D01*
X142590238Y-85100000D01*
X142495000Y-85004761D01*
X142447380Y-84861904D01*
X142447380Y-84766666D01*
X142495000Y-84623809D01*
X142542619Y-84576190D01*
X144057380Y-87671428D02*
X144866904Y-87671428D01*
X144962142Y-87623809D01*
X145009761Y-87576190D01*
X145057380Y-87480952D01*
X145057380Y-87290476D01*
X145009761Y-87195238D01*
X144962142Y-87147619D01*
X144866904Y-87100000D01*
X144057380Y-87100000D01*
X144771666Y-86671428D02*
X144771666Y-86195238D01*
X145057380Y-86766666D02*
X144057380Y-86433333D01*
X145057380Y-86100000D01*
X145057380Y-85195238D02*
X144581190Y-85528571D01*
X145057380Y-85766666D02*
X144057380Y-85766666D01*
X144057380Y-85385714D01*
X144105000Y-85290476D01*
X144152619Y-85242857D01*
X144247857Y-85195238D01*
X144390714Y-85195238D01*
X144485952Y-85242857D01*
X144533571Y-85290476D01*
X144581190Y-85385714D01*
X144581190Y-85766666D01*
X144057380Y-84909523D02*
X144057380Y-84338095D01*
X145057380Y-84623809D02*
X144057380Y-84623809D01*
X144057380Y-84100000D02*
X144057380Y-83480952D01*
X144438333Y-83814285D01*
X144438333Y-83671428D01*
X144485952Y-83576190D01*
X144533571Y-83528571D01*
X144628809Y-83480952D01*
X144866904Y-83480952D01*
X144962142Y-83528571D01*
X145009761Y-83576190D01*
X145057380Y-83671428D01*
X145057380Y-83957142D01*
X145009761Y-84052380D01*
X144962142Y-84100000D01*
X161788095Y-82900000D02*
X161692857Y-82852380D01*
X161550000Y-82852380D01*
X161407142Y-82900000D01*
X161311904Y-82995238D01*
X161264285Y-83090476D01*
X161216666Y-83280952D01*
X161216666Y-83423809D01*
X161264285Y-83614285D01*
X161311904Y-83709523D01*
X161407142Y-83804761D01*
X161550000Y-83852380D01*
X161645238Y-83852380D01*
X161788095Y-83804761D01*
X161835714Y-83757142D01*
X161835714Y-83423809D01*
X161645238Y-83423809D01*
X162264285Y-83852380D02*
X162264285Y-82852380D01*
X162835714Y-83852380D01*
X162835714Y-82852380D01*
X163311904Y-83852380D02*
X163311904Y-82852380D01*
X163550000Y-82852380D01*
X163692857Y-82900000D01*
X163788095Y-82995238D01*
X163835714Y-83090476D01*
X163883333Y-83280952D01*
X163883333Y-83423809D01*
X163835714Y-83614285D01*
X163788095Y-83709523D01*
X163692857Y-83804761D01*
X163550000Y-83852380D01*
X163311904Y-83852380D01*
X153452380Y-102838095D02*
X152452380Y-102838095D01*
X152452380Y-102600000D01*
X152500000Y-102457142D01*
X152595238Y-102361904D01*
X152690476Y-102314285D01*
X152880952Y-102266666D01*
X153023809Y-102266666D01*
X153214285Y-102314285D01*
X153309523Y-102361904D01*
X153404761Y-102457142D01*
X153452380Y-102600000D01*
X153452380Y-102838095D01*
X152928571Y-101838095D02*
X152928571Y-101504761D01*
X153452380Y-101361904D02*
X153452380Y-101838095D01*
X152452380Y-101838095D01*
X152452380Y-101361904D01*
X152928571Y-100600000D02*
X152976190Y-100457142D01*
X153023809Y-100409523D01*
X153119047Y-100361904D01*
X153261904Y-100361904D01*
X153357142Y-100409523D01*
X153404761Y-100457142D01*
X153452380Y-100552380D01*
X153452380Y-100933333D01*
X152452380Y-100933333D01*
X152452380Y-100600000D01*
X152500000Y-100504761D01*
X152547619Y-100457142D01*
X152642857Y-100409523D01*
X152738095Y-100409523D01*
X152833333Y-100457142D01*
X152880952Y-100504761D01*
X152928571Y-100600000D01*
X152928571Y-100933333D01*
X152452380Y-99933333D02*
X153261904Y-99933333D01*
X153357142Y-99885714D01*
X153404761Y-99838095D01*
X153452380Y-99742857D01*
X153452380Y-99552380D01*
X153404761Y-99457142D01*
X153357142Y-99409523D01*
X153261904Y-99361904D01*
X152452380Y-99361904D01*
X152500000Y-98361904D02*
X152452380Y-98457142D01*
X152452380Y-98600000D01*
X152500000Y-98742857D01*
X152595238Y-98838095D01*
X152690476Y-98885714D01*
X152880952Y-98933333D01*
X153023809Y-98933333D01*
X153214285Y-98885714D01*
X153309523Y-98838095D01*
X153404761Y-98742857D01*
X153452380Y-98600000D01*
X153452380Y-98504761D01*
X153404761Y-98361904D01*
X153357142Y-98314285D01*
X153023809Y-98314285D01*
X153023809Y-98504761D01*
X103652380Y-83904761D02*
X102652380Y-83904761D01*
X103128571Y-83904761D02*
X103128571Y-83333333D01*
X103652380Y-83333333D02*
X102652380Y-83333333D01*
X103366666Y-82904761D02*
X103366666Y-82428571D01*
X103652380Y-83000000D02*
X102652380Y-82666666D01*
X103652380Y-82333333D01*
X103652380Y-81523809D02*
X103652380Y-82000000D01*
X102652380Y-82000000D01*
X103652380Y-80714285D02*
X103652380Y-81190476D01*
X102652380Y-81190476D01*
X103604761Y-79666666D02*
X103652380Y-79523809D01*
X103652380Y-79285714D01*
X103604761Y-79190476D01*
X103557142Y-79142857D01*
X103461904Y-79095238D01*
X103366666Y-79095238D01*
X103271428Y-79142857D01*
X103223809Y-79190476D01*
X103176190Y-79285714D01*
X103128571Y-79476190D01*
X103080952Y-79571428D01*
X103033333Y-79619047D01*
X102938095Y-79666666D01*
X102842857Y-79666666D01*
X102747619Y-79619047D01*
X102700000Y-79571428D01*
X102652380Y-79476190D01*
X102652380Y-79238095D01*
X102700000Y-79095238D01*
X103652380Y-78666666D02*
X102652380Y-78666666D01*
X103128571Y-78666666D02*
X103128571Y-78095238D01*
X103652380Y-78095238D02*
X102652380Y-78095238D01*
X150761904Y-81400000D02*
X150380952Y-81666666D01*
X150761904Y-81857142D02*
X149961904Y-81857142D01*
X149961904Y-81552380D01*
X150000000Y-81476190D01*
X150038095Y-81438095D01*
X150114285Y-81400000D01*
X150228571Y-81400000D01*
X150304761Y-81438095D01*
X150342857Y-81476190D01*
X150380952Y-81552380D01*
X150380952Y-81857142D01*
X150342857Y-81057142D02*
X150342857Y-80790476D01*
X150761904Y-80676190D02*
X150761904Y-81057142D01*
X149961904Y-81057142D01*
X149961904Y-80676190D01*
X149961904Y-80447619D02*
X150761904Y-80180952D01*
X149961904Y-79914285D01*
X150723809Y-79076190D02*
X150761904Y-78961904D01*
X150761904Y-78771428D01*
X150723809Y-78695238D01*
X150685714Y-78657142D01*
X150609523Y-78619047D01*
X150533333Y-78619047D01*
X150457142Y-78657142D01*
X150419047Y-78695238D01*
X150380952Y-78771428D01*
X150342857Y-78923809D01*
X150304761Y-79000000D01*
X150266666Y-79038095D01*
X150190476Y-79076190D01*
X150114285Y-79076190D01*
X150038095Y-79038095D01*
X150000000Y-79000000D01*
X149961904Y-78923809D01*
X149961904Y-78733333D01*
X150000000Y-78619047D01*
X149961904Y-78352380D02*
X150761904Y-78161904D01*
X150190476Y-78009523D01*
X150761904Y-77857142D01*
X149961904Y-77666666D01*
X104735595Y-108047380D02*
X104735595Y-107047380D01*
X105068928Y-107761666D01*
X105402261Y-107047380D01*
X105402261Y-108047380D01*
X106021309Y-108047380D02*
X105926071Y-107999761D01*
X105878452Y-107952142D01*
X105830833Y-107856904D01*
X105830833Y-107571190D01*
X105878452Y-107475952D01*
X105926071Y-107428333D01*
X106021309Y-107380714D01*
X106164166Y-107380714D01*
X106259404Y-107428333D01*
X106307023Y-107475952D01*
X106354642Y-107571190D01*
X106354642Y-107856904D01*
X106307023Y-107952142D01*
X106259404Y-107999761D01*
X106164166Y-108047380D01*
X106021309Y-108047380D01*
X106687976Y-108047380D02*
X107211785Y-107380714D01*
X106687976Y-107380714D02*
X107211785Y-108047380D01*
X107592738Y-108047380D02*
X107592738Y-107380714D01*
X107592738Y-107047380D02*
X107545119Y-107095000D01*
X107592738Y-107142619D01*
X107640357Y-107095000D01*
X107592738Y-107047380D01*
X107592738Y-107142619D01*
X108449880Y-107999761D02*
X108354642Y-108047380D01*
X108164166Y-108047380D01*
X108068928Y-107999761D01*
X108021309Y-107904523D01*
X108021309Y-107523571D01*
X108068928Y-107428333D01*
X108164166Y-107380714D01*
X108354642Y-107380714D01*
X108449880Y-107428333D01*
X108497500Y-107523571D01*
X108497500Y-107618809D01*
X108021309Y-107714047D01*
X110116547Y-108047380D02*
X110116547Y-107047380D01*
X110116547Y-107999761D02*
X110021309Y-108047380D01*
X109830833Y-108047380D01*
X109735595Y-107999761D01*
X109687976Y-107952142D01*
X109640357Y-107856904D01*
X109640357Y-107571190D01*
X109687976Y-107475952D01*
X109735595Y-107428333D01*
X109830833Y-107380714D01*
X110021309Y-107380714D01*
X110116547Y-107428333D01*
X110592738Y-108047380D02*
X110592738Y-107380714D01*
X110592738Y-107571190D02*
X110640357Y-107475952D01*
X110687976Y-107428333D01*
X110783214Y-107380714D01*
X110878452Y-107380714D01*
X111211785Y-108047380D02*
X111211785Y-107380714D01*
X111211785Y-107047380D02*
X111164166Y-107095000D01*
X111211785Y-107142619D01*
X111259404Y-107095000D01*
X111211785Y-107047380D01*
X111211785Y-107142619D01*
X111592738Y-107380714D02*
X111830833Y-108047380D01*
X112068928Y-107380714D01*
X112830833Y-107999761D02*
X112735595Y-108047380D01*
X112545119Y-108047380D01*
X112449880Y-107999761D01*
X112402261Y-107904523D01*
X112402261Y-107523571D01*
X112449880Y-107428333D01*
X112545119Y-107380714D01*
X112735595Y-107380714D01*
X112830833Y-107428333D01*
X112878452Y-107523571D01*
X112878452Y-107618809D01*
X112402261Y-107714047D01*
X114021309Y-107142619D02*
X114068928Y-107095000D01*
X114164166Y-107047380D01*
X114402261Y-107047380D01*
X114497500Y-107095000D01*
X114545119Y-107142619D01*
X114592738Y-107237857D01*
X114592738Y-107333095D01*
X114545119Y-107475952D01*
X113973690Y-108047380D01*
X114592738Y-108047380D01*
X115449880Y-107380714D02*
X115449880Y-108047380D01*
X115211785Y-106999761D02*
X114973690Y-107714047D01*
X115592738Y-107714047D01*
X117164166Y-107999761D02*
X117068928Y-108047380D01*
X116878452Y-108047380D01*
X116783214Y-107999761D01*
X116735595Y-107952142D01*
X116687976Y-107856904D01*
X116687976Y-107571190D01*
X116735595Y-107475952D01*
X116783214Y-107428333D01*
X116878452Y-107380714D01*
X117068928Y-107380714D01*
X117164166Y-107428333D01*
X117735595Y-108047380D02*
X117640357Y-107999761D01*
X117592738Y-107952142D01*
X117545119Y-107856904D01*
X117545119Y-107571190D01*
X117592738Y-107475952D01*
X117640357Y-107428333D01*
X117735595Y-107380714D01*
X117878452Y-107380714D01*
X117973690Y-107428333D01*
X118021309Y-107475952D01*
X118068928Y-107571190D01*
X118068928Y-107856904D01*
X118021309Y-107952142D01*
X117973690Y-107999761D01*
X117878452Y-108047380D01*
X117735595Y-108047380D01*
X118497500Y-107380714D02*
X118497500Y-108047380D01*
X118497500Y-107475952D02*
X118545119Y-107428333D01*
X118640357Y-107380714D01*
X118783214Y-107380714D01*
X118878452Y-107428333D01*
X118926071Y-107523571D01*
X118926071Y-108047380D01*
X119259404Y-107380714D02*
X119640357Y-107380714D01*
X119402261Y-107047380D02*
X119402261Y-107904523D01*
X119449880Y-107999761D01*
X119545119Y-108047380D01*
X119640357Y-108047380D01*
X119973690Y-108047380D02*
X119973690Y-107380714D01*
X119973690Y-107571190D02*
X120021309Y-107475952D01*
X120068928Y-107428333D01*
X120164166Y-107380714D01*
X120259404Y-107380714D01*
X120735595Y-108047380D02*
X120640357Y-107999761D01*
X120592738Y-107952142D01*
X120545119Y-107856904D01*
X120545119Y-107571190D01*
X120592738Y-107475952D01*
X120640357Y-107428333D01*
X120735595Y-107380714D01*
X120878452Y-107380714D01*
X120973690Y-107428333D01*
X121021309Y-107475952D01*
X121068928Y-107571190D01*
X121068928Y-107856904D01*
X121021309Y-107952142D01*
X120973690Y-107999761D01*
X120878452Y-108047380D01*
X120735595Y-108047380D01*
X121640357Y-108047380D02*
X121545119Y-107999761D01*
X121497500Y-107904523D01*
X121497500Y-107047380D01*
X122783214Y-108047380D02*
X122783214Y-107047380D01*
X122783214Y-107428333D02*
X122878452Y-107380714D01*
X123068928Y-107380714D01*
X123164166Y-107428333D01*
X123211785Y-107475952D01*
X123259404Y-107571190D01*
X123259404Y-107856904D01*
X123211785Y-107952142D01*
X123164166Y-107999761D01*
X123068928Y-108047380D01*
X122878452Y-108047380D01*
X122783214Y-107999761D01*
X123830833Y-108047380D02*
X123735595Y-107999761D01*
X123687976Y-107952142D01*
X123640357Y-107856904D01*
X123640357Y-107571190D01*
X123687976Y-107475952D01*
X123735595Y-107428333D01*
X123830833Y-107380714D01*
X123973690Y-107380714D01*
X124068928Y-107428333D01*
X124116547Y-107475952D01*
X124164166Y-107571190D01*
X124164166Y-107856904D01*
X124116547Y-107952142D01*
X124068928Y-107999761D01*
X123973690Y-108047380D01*
X123830833Y-108047380D01*
X125021309Y-108047380D02*
X125021309Y-107523571D01*
X124973690Y-107428333D01*
X124878452Y-107380714D01*
X124687976Y-107380714D01*
X124592738Y-107428333D01*
X125021309Y-107999761D02*
X124926071Y-108047380D01*
X124687976Y-108047380D01*
X124592738Y-107999761D01*
X124545119Y-107904523D01*
X124545119Y-107809285D01*
X124592738Y-107714047D01*
X124687976Y-107666428D01*
X124926071Y-107666428D01*
X125021309Y-107618809D01*
X125497499Y-108047380D02*
X125497499Y-107380714D01*
X125497499Y-107571190D02*
X125545119Y-107475952D01*
X125592738Y-107428333D01*
X125687976Y-107380714D01*
X125783214Y-107380714D01*
X126545119Y-108047380D02*
X126545119Y-107047380D01*
X126545119Y-107999761D02*
X126449880Y-108047380D01*
X126259404Y-108047380D01*
X126164166Y-107999761D01*
X126116547Y-107952142D01*
X126068928Y-107856904D01*
X126068928Y-107571190D01*
X126116547Y-107475952D01*
X126164166Y-107428333D01*
X126259404Y-107380714D01*
X126449880Y-107380714D01*
X126545119Y-107428333D01*
X127640357Y-107047380D02*
X127973690Y-108047380D01*
X128307023Y-107047380D01*
X129164166Y-108047380D02*
X128592738Y-108047380D01*
X128878452Y-108047380D02*
X128878452Y-107047380D01*
X128783214Y-107190238D01*
X128687976Y-107285476D01*
X128592738Y-107333095D01*
X129592738Y-107952142D02*
X129640357Y-107999761D01*
X129592738Y-108047380D01*
X129545119Y-107999761D01*
X129592738Y-107952142D01*
X129592738Y-108047380D01*
X130259404Y-107047380D02*
X130354642Y-107047380D01*
X130449880Y-107095000D01*
X130497499Y-107142619D01*
X130545119Y-107237857D01*
X130592738Y-107428333D01*
X130592738Y-107666428D01*
X130545119Y-107856904D01*
X130497499Y-107952142D01*
X130449880Y-107999761D01*
X130354642Y-108047380D01*
X130259404Y-108047380D01*
X130164166Y-107999761D01*
X130116547Y-107952142D01*
X130068928Y-107856904D01*
X130021309Y-107666428D01*
X130021309Y-107428333D01*
X130068928Y-107237857D01*
X130116547Y-107142619D01*
X130164166Y-107095000D01*
X130259404Y-107047380D01*
X105068928Y-109133571D02*
X105211785Y-109181190D01*
X105259404Y-109228809D01*
X105307023Y-109324047D01*
X105307023Y-109466904D01*
X105259404Y-109562142D01*
X105211785Y-109609761D01*
X105116547Y-109657380D01*
X104735595Y-109657380D01*
X104735595Y-108657380D01*
X105068928Y-108657380D01*
X105164166Y-108705000D01*
X105211785Y-108752619D01*
X105259404Y-108847857D01*
X105259404Y-108943095D01*
X105211785Y-109038333D01*
X105164166Y-109085952D01*
X105068928Y-109133571D01*
X104735595Y-109133571D01*
X106164166Y-109657380D02*
X106164166Y-109133571D01*
X106116547Y-109038333D01*
X106021309Y-108990714D01*
X105830833Y-108990714D01*
X105735595Y-109038333D01*
X106164166Y-109609761D02*
X106068928Y-109657380D01*
X105830833Y-109657380D01*
X105735595Y-109609761D01*
X105687976Y-109514523D01*
X105687976Y-109419285D01*
X105735595Y-109324047D01*
X105830833Y-109276428D01*
X106068928Y-109276428D01*
X106164166Y-109228809D01*
X106592738Y-109609761D02*
X106687976Y-109657380D01*
X106878452Y-109657380D01*
X106973690Y-109609761D01*
X107021309Y-109514523D01*
X107021309Y-109466904D01*
X106973690Y-109371666D01*
X106878452Y-109324047D01*
X106735595Y-109324047D01*
X106640357Y-109276428D01*
X106592738Y-109181190D01*
X106592738Y-109133571D01*
X106640357Y-109038333D01*
X106735595Y-108990714D01*
X106878452Y-108990714D01*
X106973690Y-109038333D01*
X107830833Y-109609761D02*
X107735595Y-109657380D01*
X107545119Y-109657380D01*
X107449880Y-109609761D01*
X107402261Y-109514523D01*
X107402261Y-109133571D01*
X107449880Y-109038333D01*
X107545119Y-108990714D01*
X107735595Y-108990714D01*
X107830833Y-109038333D01*
X107878452Y-109133571D01*
X107878452Y-109228809D01*
X107402261Y-109324047D01*
X108735595Y-109657380D02*
X108735595Y-108657380D01*
X108735595Y-109609761D02*
X108640357Y-109657380D01*
X108449880Y-109657380D01*
X108354642Y-109609761D01*
X108307023Y-109562142D01*
X108259404Y-109466904D01*
X108259404Y-109181190D01*
X108307023Y-109085952D01*
X108354642Y-109038333D01*
X108449880Y-108990714D01*
X108640357Y-108990714D01*
X108735595Y-109038333D01*
X110116547Y-109657380D02*
X110021309Y-109609761D01*
X109973690Y-109562142D01*
X109926071Y-109466904D01*
X109926071Y-109181190D01*
X109973690Y-109085952D01*
X110021309Y-109038333D01*
X110116547Y-108990714D01*
X110259404Y-108990714D01*
X110354642Y-109038333D01*
X110402261Y-109085952D01*
X110449880Y-109181190D01*
X110449880Y-109466904D01*
X110402261Y-109562142D01*
X110354642Y-109609761D01*
X110259404Y-109657380D01*
X110116547Y-109657380D01*
X110878452Y-108990714D02*
X110878452Y-109657380D01*
X110878452Y-109085952D02*
X110926071Y-109038333D01*
X111021309Y-108990714D01*
X111164166Y-108990714D01*
X111259404Y-109038333D01*
X111307023Y-109133571D01*
X111307023Y-109657380D01*
X112402261Y-108657380D02*
X112735595Y-109657380D01*
X113068928Y-108657380D01*
X113402261Y-109133571D02*
X113735595Y-109133571D01*
X113878452Y-109657380D02*
X113402261Y-109657380D01*
X113402261Y-108657380D01*
X113878452Y-108657380D01*
X114259404Y-109609761D02*
X114402261Y-109657380D01*
X114640357Y-109657380D01*
X114735595Y-109609761D01*
X114783214Y-109562142D01*
X114830833Y-109466904D01*
X114830833Y-109371666D01*
X114783214Y-109276428D01*
X114735595Y-109228809D01*
X114640357Y-109181190D01*
X114449880Y-109133571D01*
X114354642Y-109085952D01*
X114307023Y-109038333D01*
X114259404Y-108943095D01*
X114259404Y-108847857D01*
X114307023Y-108752619D01*
X114354642Y-108705000D01*
X114449880Y-108657380D01*
X114687976Y-108657380D01*
X114830833Y-108705000D01*
X115830833Y-109562142D02*
X115783214Y-109609761D01*
X115640357Y-109657380D01*
X115545119Y-109657380D01*
X115402261Y-109609761D01*
X115307023Y-109514523D01*
X115259404Y-109419285D01*
X115211785Y-109228809D01*
X115211785Y-109085952D01*
X115259404Y-108895476D01*
X115307023Y-108800238D01*
X115402261Y-108705000D01*
X115545119Y-108657380D01*
X115640357Y-108657380D01*
X115783214Y-108705000D01*
X115830833Y-108752619D01*
X141658578Y-118589255D02*
X141257884Y-118518544D01*
X141375735Y-118872098D02*
X140880761Y-118377123D01*
X141069322Y-118188561D01*
X141140033Y-118164991D01*
X141187174Y-118164991D01*
X141257884Y-118188561D01*
X141328595Y-118259272D01*
X141352165Y-118329983D01*
X141352165Y-118377123D01*
X141328595Y-118447834D01*
X141140033Y-118636396D01*
X141375735Y-117882148D02*
X141776429Y-118282842D01*
X141847140Y-118306412D01*
X141894280Y-118306412D01*
X141964991Y-118282842D01*
X142059272Y-118188561D01*
X142082842Y-118117851D01*
X142082842Y-118070710D01*
X142059272Y-118000000D01*
X141658578Y-117599306D01*
X142389255Y-117858578D02*
X141894280Y-117363603D01*
X142672098Y-117575735D01*
X142177123Y-117080761D01*
X146400000Y-79609523D02*
X146361904Y-79685714D01*
X146361904Y-79800000D01*
X146400000Y-79914285D01*
X146476190Y-79990476D01*
X146552380Y-80028571D01*
X146704761Y-80066666D01*
X146819047Y-80066666D01*
X146971428Y-80028571D01*
X147047619Y-79990476D01*
X147123809Y-79914285D01*
X147161904Y-79800000D01*
X147161904Y-79723809D01*
X147123809Y-79609523D01*
X147085714Y-79571428D01*
X146819047Y-79571428D01*
X146819047Y-79723809D01*
X147161904Y-79228571D02*
X146361904Y-79228571D01*
X147161904Y-78771428D01*
X146361904Y-78771428D01*
X147161904Y-78390476D02*
X146361904Y-78390476D01*
X146361904Y-78200000D01*
X146400000Y-78085714D01*
X146476190Y-78009523D01*
X146552380Y-77971428D01*
X146704761Y-77933333D01*
X146819047Y-77933333D01*
X146971428Y-77971428D01*
X147047619Y-78009523D01*
X147123809Y-78085714D01*
X147161904Y-78200000D01*
X147161904Y-78390476D01*
X113852380Y-87609523D02*
X113852380Y-87038095D01*
X114852380Y-87323809D02*
X113852380Y-87323809D01*
X114328571Y-86704761D02*
X114328571Y-86371428D01*
X114852380Y-86228571D02*
X114852380Y-86704761D01*
X113852380Y-86704761D01*
X113852380Y-86228571D01*
X114852380Y-85800000D02*
X113852380Y-85800000D01*
X114566666Y-85466666D01*
X113852380Y-85133333D01*
X114852380Y-85133333D01*
X114852380Y-84657142D02*
X113852380Y-84657142D01*
X113852380Y-84276190D01*
X113900000Y-84180952D01*
X113947619Y-84133333D01*
X114042857Y-84085714D01*
X114185714Y-84085714D01*
X114280952Y-84133333D01*
X114328571Y-84180952D01*
X114376190Y-84276190D01*
X114376190Y-84657142D01*
X158447619Y-77279809D02*
X158561904Y-77317904D01*
X158752380Y-77317904D01*
X158828571Y-77279809D01*
X158866666Y-77241714D01*
X158904761Y-77165523D01*
X158904761Y-77089333D01*
X158866666Y-77013142D01*
X158828571Y-76975047D01*
X158752380Y-76936952D01*
X158600000Y-76898857D01*
X158523809Y-76860761D01*
X158485714Y-76822666D01*
X158447619Y-76746476D01*
X158447619Y-76670285D01*
X158485714Y-76594095D01*
X158523809Y-76556000D01*
X158600000Y-76517904D01*
X158790476Y-76517904D01*
X158904761Y-76556000D01*
X159247619Y-76898857D02*
X159514285Y-76898857D01*
X159628571Y-77317904D02*
X159247619Y-77317904D01*
X159247619Y-76517904D01*
X159628571Y-76517904D01*
X160428571Y-77317904D02*
X160161904Y-76936952D01*
X159971428Y-77317904D02*
X159971428Y-76517904D01*
X160276190Y-76517904D01*
X160352380Y-76556000D01*
X160390476Y-76594095D01*
X160428571Y-76670285D01*
X160428571Y-76784571D01*
X160390476Y-76860761D01*
X160352380Y-76898857D01*
X160276190Y-76936952D01*
X159971428Y-76936952D01*
X160657142Y-76517904D02*
X160923809Y-77317904D01*
X161190476Y-76517904D01*
X161609523Y-76517904D02*
X161761904Y-76517904D01*
X161838095Y-76556000D01*
X161914285Y-76632190D01*
X161952380Y-76784571D01*
X161952380Y-77051238D01*
X161914285Y-77203619D01*
X161838095Y-77279809D01*
X161761904Y-77317904D01*
X161609523Y-77317904D01*
X161533333Y-77279809D01*
X161457142Y-77203619D01*
X161419047Y-77051238D01*
X161419047Y-76784571D01*
X161457142Y-76632190D01*
X161533333Y-76556000D01*
X161609523Y-76517904D01*
X160047619Y-77805904D02*
X159666666Y-77805904D01*
X159628571Y-78186857D01*
X159666666Y-78148761D01*
X159742857Y-78110666D01*
X159933333Y-78110666D01*
X160009523Y-78148761D01*
X160047619Y-78186857D01*
X160085714Y-78263047D01*
X160085714Y-78453523D01*
X160047619Y-78529714D01*
X160009523Y-78567809D01*
X159933333Y-78605904D01*
X159742857Y-78605904D01*
X159666666Y-78567809D01*
X159628571Y-78529714D01*
X160314285Y-77805904D02*
X160580952Y-78605904D01*
X160847619Y-77805904D01*
X151857142Y-115022380D02*
X151857142Y-115831904D01*
X151904761Y-115927142D01*
X151952380Y-115974761D01*
X152047619Y-116022380D01*
X152238095Y-116022380D01*
X152333333Y-115974761D01*
X152380952Y-115927142D01*
X152428571Y-115831904D01*
X152428571Y-115022380D01*
X152857142Y-115974761D02*
X153000000Y-116022380D01*
X153238095Y-116022380D01*
X153333333Y-115974761D01*
X153380952Y-115927142D01*
X153428571Y-115831904D01*
X153428571Y-115736666D01*
X153380952Y-115641428D01*
X153333333Y-115593809D01*
X153238095Y-115546190D01*
X153047619Y-115498571D01*
X152952380Y-115450952D01*
X152904761Y-115403333D01*
X152857142Y-115308095D01*
X152857142Y-115212857D01*
X152904761Y-115117619D01*
X152952380Y-115070000D01*
X153047619Y-115022380D01*
X153285714Y-115022380D01*
X153428571Y-115070000D01*
X154190476Y-115498571D02*
X154333333Y-115546190D01*
X154380952Y-115593809D01*
X154428571Y-115689047D01*
X154428571Y-115831904D01*
X154380952Y-115927142D01*
X154333333Y-115974761D01*
X154238095Y-116022380D01*
X153857142Y-116022380D01*
X153857142Y-115022380D01*
X154190476Y-115022380D01*
X154285714Y-115070000D01*
X154333333Y-115117619D01*
X154380952Y-115212857D01*
X154380952Y-115308095D01*
X154333333Y-115403333D01*
X154285714Y-115450952D01*
X154190476Y-115498571D01*
X153857142Y-115498571D01*
X156190476Y-115927142D02*
X156142857Y-115974761D01*
X156000000Y-116022380D01*
X155904761Y-116022380D01*
X155761904Y-115974761D01*
X155666666Y-115879523D01*
X155619047Y-115784285D01*
X155571428Y-115593809D01*
X155571428Y-115450952D01*
X155619047Y-115260476D01*
X155666666Y-115165238D01*
X155761904Y-115070000D01*
X155904761Y-115022380D01*
X156000000Y-115022380D01*
X156142857Y-115070000D01*
X156190476Y-115117619D01*
X152500000Y-117632380D02*
X152500000Y-116632380D01*
X152738095Y-116632380D01*
X152880952Y-116680000D01*
X152976190Y-116775238D01*
X153023809Y-116870476D01*
X153071428Y-117060952D01*
X153071428Y-117203809D01*
X153023809Y-117394285D01*
X152976190Y-117489523D01*
X152880952Y-117584761D01*
X152738095Y-117632380D01*
X152500000Y-117632380D01*
X153452380Y-117346666D02*
X153928571Y-117346666D01*
X153357142Y-117632380D02*
X153690476Y-116632380D01*
X154023809Y-117632380D01*
X154214285Y-116632380D02*
X154785714Y-116632380D01*
X154500000Y-117632380D02*
X154500000Y-116632380D01*
X155071428Y-117346666D02*
X155547619Y-117346666D01*
X154976190Y-117632380D02*
X155309523Y-116632380D01*
X155642857Y-117632380D01*
X159155532Y-95556277D02*
X158589847Y-94990592D01*
X158805346Y-94775093D01*
X158886158Y-94748155D01*
X158940033Y-94748155D01*
X159020845Y-94775093D01*
X159101658Y-94855905D01*
X159128595Y-94936717D01*
X159128595Y-94990592D01*
X159101658Y-95071404D01*
X158886158Y-95286903D01*
X159613468Y-94505719D02*
X159721218Y-94451844D01*
X159775093Y-94451844D01*
X159855905Y-94478781D01*
X159936717Y-94559593D01*
X159963654Y-94640406D01*
X159963654Y-94694280D01*
X159936717Y-94775093D01*
X159721218Y-94990592D01*
X159155532Y-94424906D01*
X159344094Y-94236345D01*
X159424906Y-94209407D01*
X159478781Y-94209407D01*
X159559593Y-94236345D01*
X159613468Y-94290219D01*
X159640406Y-94371032D01*
X159640406Y-94424906D01*
X159613468Y-94505719D01*
X159424906Y-94694280D01*
X159667343Y-93913096D02*
X160017529Y-93562910D01*
X160044467Y-93966971D01*
X160125279Y-93886158D01*
X160206091Y-93859221D01*
X160259966Y-93859221D01*
X160340778Y-93886158D01*
X160475465Y-94020845D01*
X160502402Y-94101658D01*
X160502402Y-94155532D01*
X160475465Y-94236345D01*
X160313841Y-94397969D01*
X160233028Y-94424906D01*
X160179154Y-94424906D01*
X153800000Y-79609523D02*
X153761904Y-79685714D01*
X153761904Y-79800000D01*
X153800000Y-79914285D01*
X153876190Y-79990476D01*
X153952380Y-80028571D01*
X154104761Y-80066666D01*
X154219047Y-80066666D01*
X154371428Y-80028571D01*
X154447619Y-79990476D01*
X154523809Y-79914285D01*
X154561904Y-79800000D01*
X154561904Y-79723809D01*
X154523809Y-79609523D01*
X154485714Y-79571428D01*
X154219047Y-79571428D01*
X154219047Y-79723809D01*
X154561904Y-79228571D02*
X153761904Y-79228571D01*
X154561904Y-78771428D01*
X153761904Y-78771428D01*
X154561904Y-78390476D02*
X153761904Y-78390476D01*
X153761904Y-78200000D01*
X153800000Y-78085714D01*
X153876190Y-78009523D01*
X153952380Y-77971428D01*
X154104761Y-77933333D01*
X154219047Y-77933333D01*
X154371428Y-77971428D01*
X154447619Y-78009523D01*
X154523809Y-78085714D01*
X154561904Y-78200000D01*
X154561904Y-78390476D01*
X146190476Y-83268000D02*
X146114285Y-83229904D01*
X146000000Y-83229904D01*
X145885714Y-83268000D01*
X145809523Y-83344190D01*
X145771428Y-83420380D01*
X145733333Y-83572761D01*
X145733333Y-83687047D01*
X145771428Y-83839428D01*
X145809523Y-83915619D01*
X145885714Y-83991809D01*
X146000000Y-84029904D01*
X146076190Y-84029904D01*
X146190476Y-83991809D01*
X146228571Y-83953714D01*
X146228571Y-83687047D01*
X146076190Y-83687047D01*
X146571428Y-84029904D02*
X146571428Y-83229904D01*
X147028571Y-84029904D01*
X147028571Y-83229904D01*
X147409523Y-84029904D02*
X147409523Y-83229904D01*
X147600000Y-83229904D01*
X147714285Y-83268000D01*
X147790476Y-83344190D01*
X147828571Y-83420380D01*
X147866666Y-83572761D01*
X147866666Y-83687047D01*
X147828571Y-83839428D01*
X147790476Y-83915619D01*
X147714285Y-83991809D01*
X147600000Y-84029904D01*
X147409523Y-84029904D01*
X145619047Y-84517904D02*
X146114285Y-84517904D01*
X145847619Y-84822666D01*
X145961904Y-84822666D01*
X146038095Y-84860761D01*
X146076190Y-84898857D01*
X146114285Y-84975047D01*
X146114285Y-85165523D01*
X146076190Y-85241714D01*
X146038095Y-85279809D01*
X145961904Y-85317904D01*
X145733333Y-85317904D01*
X145657142Y-85279809D01*
X145619047Y-85241714D01*
X146457142Y-85241714D02*
X146495238Y-85279809D01*
X146457142Y-85317904D01*
X146419047Y-85279809D01*
X146457142Y-85241714D01*
X146457142Y-85317904D01*
X146761904Y-84517904D02*
X147257142Y-84517904D01*
X146990476Y-84822666D01*
X147104761Y-84822666D01*
X147180952Y-84860761D01*
X147219047Y-84898857D01*
X147257142Y-84975047D01*
X147257142Y-85165523D01*
X147219047Y-85241714D01*
X147180952Y-85279809D01*
X147104761Y-85317904D01*
X146876190Y-85317904D01*
X146800000Y-85279809D01*
X146761904Y-85241714D01*
X147485714Y-84517904D02*
X147752380Y-85317904D01*
X148019047Y-84517904D01*
X145828571Y-86567809D02*
X145942857Y-86605904D01*
X146133333Y-86605904D01*
X146209523Y-86567809D01*
X146247619Y-86529714D01*
X146285714Y-86453523D01*
X146285714Y-86377333D01*
X146247619Y-86301142D01*
X146209523Y-86263047D01*
X146133333Y-86224952D01*
X145980952Y-86186857D01*
X145904761Y-86148761D01*
X145866666Y-86110666D01*
X145828571Y-86034476D01*
X145828571Y-85958285D01*
X145866666Y-85882095D01*
X145904761Y-85844000D01*
X145980952Y-85805904D01*
X146171428Y-85805904D01*
X146285714Y-85844000D01*
X146628571Y-86605904D02*
X146628571Y-85805904D01*
X146819047Y-85805904D01*
X146933333Y-85844000D01*
X147009523Y-85920190D01*
X147047619Y-85996380D01*
X147085714Y-86148761D01*
X147085714Y-86263047D01*
X147047619Y-86415428D01*
X147009523Y-86491619D01*
X146933333Y-86567809D01*
X146819047Y-86605904D01*
X146628571Y-86605904D01*
X147390476Y-86377333D02*
X147771428Y-86377333D01*
X147314285Y-86605904D02*
X147580952Y-85805904D01*
X147847619Y-86605904D01*
X145847619Y-87855809D02*
X145961904Y-87893904D01*
X146152380Y-87893904D01*
X146228571Y-87855809D01*
X146266666Y-87817714D01*
X146304761Y-87741523D01*
X146304761Y-87665333D01*
X146266666Y-87589142D01*
X146228571Y-87551047D01*
X146152380Y-87512952D01*
X146000000Y-87474857D01*
X145923809Y-87436761D01*
X145885714Y-87398666D01*
X145847619Y-87322476D01*
X145847619Y-87246285D01*
X145885714Y-87170095D01*
X145923809Y-87132000D01*
X146000000Y-87093904D01*
X146190476Y-87093904D01*
X146304761Y-87132000D01*
X147104761Y-87817714D02*
X147066666Y-87855809D01*
X146952380Y-87893904D01*
X146876190Y-87893904D01*
X146761904Y-87855809D01*
X146685714Y-87779619D01*
X146647619Y-87703428D01*
X146609523Y-87551047D01*
X146609523Y-87436761D01*
X146647619Y-87284380D01*
X146685714Y-87208190D01*
X146761904Y-87132000D01*
X146876190Y-87093904D01*
X146952380Y-87093904D01*
X147066666Y-87132000D01*
X147104761Y-87170095D01*
X147828571Y-87893904D02*
X147447619Y-87893904D01*
X147447619Y-87093904D01*
X103917904Y-90961904D02*
X103117904Y-90961904D01*
X103498857Y-90961904D02*
X103498857Y-90504761D01*
X103917904Y-90504761D02*
X103117904Y-90504761D01*
X103689333Y-90161904D02*
X103689333Y-89780952D01*
X103917904Y-90238095D02*
X103117904Y-89971428D01*
X103917904Y-89704761D01*
X103917904Y-89057142D02*
X103917904Y-89438095D01*
X103117904Y-89438095D01*
X103917904Y-88409523D02*
X103917904Y-88790476D01*
X103117904Y-88790476D01*
X103117904Y-87647619D02*
X103917904Y-87380952D01*
X103117904Y-87114285D01*
X103613142Y-86847619D02*
X103613142Y-86238095D01*
X103917904Y-86542857D02*
X103308380Y-86542857D01*
X104405904Y-90809523D02*
X104405904Y-90314285D01*
X104710666Y-90580952D01*
X104710666Y-90466666D01*
X104748761Y-90390476D01*
X104786857Y-90352380D01*
X104863047Y-90314285D01*
X105053523Y-90314285D01*
X105129714Y-90352380D01*
X105167809Y-90390476D01*
X105205904Y-90466666D01*
X105205904Y-90695238D01*
X105167809Y-90771428D01*
X105129714Y-90809523D01*
X105129714Y-89971428D02*
X105167809Y-89933333D01*
X105205904Y-89971428D01*
X105167809Y-90009523D01*
X105129714Y-89971428D01*
X105205904Y-89971428D01*
X104405904Y-89666666D02*
X104405904Y-89171428D01*
X104710666Y-89438095D01*
X104710666Y-89323809D01*
X104748761Y-89247619D01*
X104786857Y-89209523D01*
X104863047Y-89171428D01*
X105053523Y-89171428D01*
X105129714Y-89209523D01*
X105167809Y-89247619D01*
X105205904Y-89323809D01*
X105205904Y-89552380D01*
X105167809Y-89628571D01*
X105129714Y-89666666D01*
X104405904Y-88942857D02*
X105205904Y-88676190D01*
X104405904Y-88409523D01*
X104405904Y-87152380D02*
X104405904Y-87533333D01*
X104786857Y-87571428D01*
X104748761Y-87533333D01*
X104710666Y-87457142D01*
X104710666Y-87266666D01*
X104748761Y-87190476D01*
X104786857Y-87152380D01*
X104863047Y-87114285D01*
X105053523Y-87114285D01*
X105129714Y-87152380D01*
X105167809Y-87190476D01*
X105205904Y-87266666D01*
X105205904Y-87457142D01*
X105167809Y-87533333D01*
X105129714Y-87571428D01*
X104405904Y-86885714D02*
X105205904Y-86619047D01*
X104405904Y-86352380D01*
X143357142Y-78554642D02*
X143404761Y-78602261D01*
X143452380Y-78745119D01*
X143452380Y-78840357D01*
X143404761Y-78983214D01*
X143309523Y-79078452D01*
X143214285Y-79126071D01*
X143023809Y-79173690D01*
X142880952Y-79173690D01*
X142690476Y-79126071D01*
X142595238Y-79078452D01*
X142500000Y-78983214D01*
X142452380Y-78840357D01*
X142452380Y-78745119D01*
X142500000Y-78602261D01*
X142547619Y-78554642D01*
X142452380Y-77935595D02*
X142452380Y-77745119D01*
X142500000Y-77649880D01*
X142595238Y-77554642D01*
X142785714Y-77507023D01*
X143119047Y-77507023D01*
X143309523Y-77554642D01*
X143404761Y-77649880D01*
X143452380Y-77745119D01*
X143452380Y-77935595D01*
X143404761Y-78030833D01*
X143309523Y-78126071D01*
X143119047Y-78173690D01*
X142785714Y-78173690D01*
X142595238Y-78126071D01*
X142500000Y-78030833D01*
X142452380Y-77935595D01*
X143452380Y-77078452D02*
X142452380Y-77078452D01*
X143452380Y-76507023D01*
X142452380Y-76507023D01*
X142452380Y-76173690D02*
X142452380Y-75602261D01*
X143452380Y-75887976D02*
X142452380Y-75887976D01*
X143452380Y-74697500D02*
X142976190Y-75030833D01*
X143452380Y-75268928D02*
X142452380Y-75268928D01*
X142452380Y-74887976D01*
X142500000Y-74792738D01*
X142547619Y-74745119D01*
X142642857Y-74697500D01*
X142785714Y-74697500D01*
X142880952Y-74745119D01*
X142928571Y-74792738D01*
X142976190Y-74887976D01*
X142976190Y-75268928D01*
X142452380Y-74078452D02*
X142452380Y-73887976D01*
X142500000Y-73792738D01*
X142595238Y-73697500D01*
X142785714Y-73649880D01*
X143119047Y-73649880D01*
X143309523Y-73697500D01*
X143404761Y-73792738D01*
X143452380Y-73887976D01*
X143452380Y-74078452D01*
X143404761Y-74173690D01*
X143309523Y-74268928D01*
X143119047Y-74316547D01*
X142785714Y-74316547D01*
X142595238Y-74268928D01*
X142500000Y-74173690D01*
X142452380Y-74078452D01*
X143452380Y-72745119D02*
X143452380Y-73221309D01*
X142452380Y-73221309D01*
X143404761Y-72459404D02*
X143452380Y-72316547D01*
X143452380Y-72078452D01*
X143404761Y-71983214D01*
X143357142Y-71935595D01*
X143261904Y-71887976D01*
X143166666Y-71887976D01*
X143071428Y-71935595D01*
X143023809Y-71983214D01*
X142976190Y-72078452D01*
X142928571Y-72268928D01*
X142880952Y-72364166D01*
X142833333Y-72411785D01*
X142738095Y-72459404D01*
X142642857Y-72459404D01*
X142547619Y-72411785D01*
X142500000Y-72364166D01*
X142452380Y-72268928D01*
X142452380Y-72030833D01*
X142500000Y-71887976D01*
X152161904Y-84523809D02*
X151780952Y-84790476D01*
X152161904Y-84980952D02*
X151361904Y-84980952D01*
X151361904Y-84676190D01*
X151400000Y-84600000D01*
X151438095Y-84561904D01*
X151514285Y-84523809D01*
X151628571Y-84523809D01*
X151704761Y-84561904D01*
X151742857Y-84600000D01*
X151780952Y-84676190D01*
X151780952Y-84980952D01*
X151742857Y-84180952D02*
X151742857Y-83914285D01*
X152161904Y-83800000D02*
X152161904Y-84180952D01*
X151361904Y-84180952D01*
X151361904Y-83800000D01*
X151400000Y-83038095D02*
X151361904Y-83114285D01*
X151361904Y-83228571D01*
X151400000Y-83342857D01*
X151476190Y-83419047D01*
X151552380Y-83457142D01*
X151704761Y-83495238D01*
X151819047Y-83495238D01*
X151971428Y-83457142D01*
X152047619Y-83419047D01*
X152123809Y-83342857D01*
X152161904Y-83228571D01*
X152161904Y-83152380D01*
X152123809Y-83038095D01*
X152085714Y-83000000D01*
X151819047Y-83000000D01*
X151819047Y-83152380D01*
X151742857Y-82657142D02*
X151742857Y-82390476D01*
X152161904Y-82276190D02*
X152161904Y-82657142D01*
X151361904Y-82657142D01*
X151361904Y-82276190D01*
X152161904Y-81933333D02*
X151361904Y-81933333D01*
X152161904Y-81476190D01*
X151361904Y-81476190D01*
X151933333Y-80523809D02*
X151933333Y-80142857D01*
X152161904Y-80600000D02*
X151361904Y-80333333D01*
X152161904Y-80066666D01*
X152161904Y-79800000D02*
X151361904Y-79800000D01*
X151361904Y-79609523D01*
X151400000Y-79495238D01*
X151476190Y-79419047D01*
X151552380Y-79380952D01*
X151704761Y-79342857D01*
X151819047Y-79342857D01*
X151971428Y-79380952D01*
X152047619Y-79419047D01*
X152123809Y-79495238D01*
X152161904Y-79609523D01*
X152161904Y-79800000D01*
X152085714Y-78542857D02*
X152123809Y-78580952D01*
X152161904Y-78695238D01*
X152161904Y-78771428D01*
X152123809Y-78885714D01*
X152047619Y-78961904D01*
X151971428Y-79000000D01*
X151819047Y-79038095D01*
X151704761Y-79038095D01*
X151552380Y-79000000D01*
X151476190Y-78961904D01*
X151400000Y-78885714D01*
X151361904Y-78771428D01*
X151361904Y-78695238D01*
X151400000Y-78580952D01*
X151438095Y-78542857D01*
X151438095Y-78238095D02*
X151400000Y-78200000D01*
X151361904Y-78123809D01*
X151361904Y-77933333D01*
X151400000Y-77857142D01*
X151438095Y-77819047D01*
X151514285Y-77780952D01*
X151590476Y-77780952D01*
X151704761Y-77819047D01*
X152161904Y-78276190D01*
X152161904Y-77780952D01*
X148285714Y-81476190D02*
X148323809Y-81514285D01*
X148361904Y-81628571D01*
X148361904Y-81704761D01*
X148323809Y-81819047D01*
X148247619Y-81895238D01*
X148171428Y-81933333D01*
X148019047Y-81971428D01*
X147904761Y-81971428D01*
X147752380Y-81933333D01*
X147676190Y-81895238D01*
X147600000Y-81819047D01*
X147561904Y-81704761D01*
X147561904Y-81628571D01*
X147600000Y-81514285D01*
X147638095Y-81476190D01*
X148361904Y-80676190D02*
X147980952Y-80942857D01*
X148361904Y-81133333D02*
X147561904Y-81133333D01*
X147561904Y-80828571D01*
X147600000Y-80752380D01*
X147638095Y-80714285D01*
X147714285Y-80676190D01*
X147828571Y-80676190D01*
X147904761Y-80714285D01*
X147942857Y-80752380D01*
X147980952Y-80828571D01*
X147980952Y-81133333D01*
X147561904Y-80409523D02*
X147561904Y-79876190D01*
X148361904Y-80409523D01*
X148361904Y-79876190D01*
X148323809Y-79000000D02*
X148361904Y-78885714D01*
X148361904Y-78695238D01*
X148323809Y-78619047D01*
X148285714Y-78580952D01*
X148209523Y-78542857D01*
X148133333Y-78542857D01*
X148057142Y-78580952D01*
X148019047Y-78619047D01*
X147980952Y-78695238D01*
X147942857Y-78847619D01*
X147904761Y-78923809D01*
X147866666Y-78961904D01*
X147790476Y-79000000D01*
X147714285Y-79000000D01*
X147638095Y-78961904D01*
X147600000Y-78923809D01*
X147561904Y-78847619D01*
X147561904Y-78657142D01*
X147600000Y-78542857D01*
X147561904Y-78276190D02*
X148361904Y-78085714D01*
X147790476Y-77933333D01*
X148361904Y-77780952D01*
X147561904Y-77590476D01*
X94535595Y-70671428D02*
X95297500Y-70671428D01*
X94916547Y-71052380D02*
X94916547Y-70290476D01*
X105266666Y-95242380D02*
X104695238Y-95242380D01*
X104980952Y-95242380D02*
X104980952Y-94242380D01*
X104885714Y-94385238D01*
X104790476Y-94480476D01*
X104695238Y-94528095D01*
X105647619Y-94337619D02*
X105695238Y-94290000D01*
X105790476Y-94242380D01*
X106028571Y-94242380D01*
X106123809Y-94290000D01*
X106171428Y-94337619D01*
X106219047Y-94432857D01*
X106219047Y-94528095D01*
X106171428Y-94670952D01*
X105600000Y-95242380D01*
X106219047Y-95242380D01*
X106552380Y-94575714D02*
X106790476Y-95242380D01*
X107028571Y-94575714D01*
X108076190Y-94242380D02*
X108742857Y-94242380D01*
X108314285Y-95242380D01*
X109314285Y-94242380D02*
X109409523Y-94242380D01*
X109504761Y-94290000D01*
X109552380Y-94337619D01*
X109600000Y-94432857D01*
X109647619Y-94623333D01*
X109647619Y-94861428D01*
X109600000Y-95051904D01*
X109552380Y-95147142D01*
X109504761Y-95194761D01*
X109409523Y-95242380D01*
X109314285Y-95242380D01*
X109219047Y-95194761D01*
X109171428Y-95147142D01*
X109123809Y-95051904D01*
X109076190Y-94861428D01*
X109076190Y-94623333D01*
X109123809Y-94432857D01*
X109171428Y-94337619D01*
X109219047Y-94290000D01*
X109314285Y-94242380D01*
X110266666Y-94242380D02*
X110361904Y-94242380D01*
X110457142Y-94290000D01*
X110504761Y-94337619D01*
X110552380Y-94432857D01*
X110600000Y-94623333D01*
X110600000Y-94861428D01*
X110552380Y-95051904D01*
X110504761Y-95147142D01*
X110457142Y-95194761D01*
X110361904Y-95242380D01*
X110266666Y-95242380D01*
X110171428Y-95194761D01*
X110123809Y-95147142D01*
X110076190Y-95051904D01*
X110028571Y-94861428D01*
X110028571Y-94623333D01*
X110076190Y-94432857D01*
X110123809Y-94337619D01*
X110171428Y-94290000D01*
X110266666Y-94242380D01*
X111028571Y-95242380D02*
X111028571Y-94575714D01*
X111028571Y-94670952D02*
X111076190Y-94623333D01*
X111171428Y-94575714D01*
X111314285Y-94575714D01*
X111409523Y-94623333D01*
X111457142Y-94718571D01*
X111457142Y-95242380D01*
X111457142Y-94718571D02*
X111504761Y-94623333D01*
X111600000Y-94575714D01*
X111742857Y-94575714D01*
X111838095Y-94623333D01*
X111885714Y-94718571D01*
X111885714Y-95242380D01*
X112314285Y-94956666D02*
X112790476Y-94956666D01*
X112219047Y-95242380D02*
X112552380Y-94242380D01*
X112885714Y-95242380D01*
X113980952Y-95242380D02*
X113980952Y-94242380D01*
X114314285Y-94956666D01*
X114647619Y-94242380D01*
X114647619Y-95242380D01*
X115076190Y-94956666D02*
X115552380Y-94956666D01*
X114980952Y-95242380D02*
X115314285Y-94242380D01*
X115647619Y-95242380D01*
X115885714Y-94242380D02*
X116552380Y-95242380D01*
X116552380Y-94242380D02*
X115885714Y-95242380D01*
X105266666Y-95852380D02*
X104790476Y-95852380D01*
X104742857Y-96328571D01*
X104790476Y-96280952D01*
X104885714Y-96233333D01*
X105123809Y-96233333D01*
X105219047Y-96280952D01*
X105266666Y-96328571D01*
X105314285Y-96423809D01*
X105314285Y-96661904D01*
X105266666Y-96757142D01*
X105219047Y-96804761D01*
X105123809Y-96852380D01*
X104885714Y-96852380D01*
X104790476Y-96804761D01*
X104742857Y-96757142D01*
X105600000Y-95852380D02*
X105933333Y-96852380D01*
X106266666Y-95852380D01*
X108076190Y-95947619D02*
X108123809Y-95900000D01*
X108219047Y-95852380D01*
X108457142Y-95852380D01*
X108552380Y-95900000D01*
X108600000Y-95947619D01*
X108647619Y-96042857D01*
X108647619Y-96138095D01*
X108600000Y-96280952D01*
X108028571Y-96852380D01*
X108647619Y-96852380D01*
X109266666Y-95852380D02*
X109361904Y-95852380D01*
X109457142Y-95900000D01*
X109504761Y-95947619D01*
X109552380Y-96042857D01*
X109600000Y-96233333D01*
X109600000Y-96471428D01*
X109552380Y-96661904D01*
X109504761Y-96757142D01*
X109457142Y-96804761D01*
X109361904Y-96852380D01*
X109266666Y-96852380D01*
X109171428Y-96804761D01*
X109123809Y-96757142D01*
X109076190Y-96661904D01*
X109028571Y-96471428D01*
X109028571Y-96233333D01*
X109076190Y-96042857D01*
X109123809Y-95947619D01*
X109171428Y-95900000D01*
X109266666Y-95852380D01*
X110219047Y-95852380D02*
X110314285Y-95852380D01*
X110409523Y-95900000D01*
X110457142Y-95947619D01*
X110504761Y-96042857D01*
X110552380Y-96233333D01*
X110552380Y-96471428D01*
X110504761Y-96661904D01*
X110457142Y-96757142D01*
X110409523Y-96804761D01*
X110314285Y-96852380D01*
X110219047Y-96852380D01*
X110123809Y-96804761D01*
X110076190Y-96757142D01*
X110028571Y-96661904D01*
X109980952Y-96471428D01*
X109980952Y-96233333D01*
X110028571Y-96042857D01*
X110076190Y-95947619D01*
X110123809Y-95900000D01*
X110219047Y-95852380D01*
X110980952Y-96852380D02*
X110980952Y-96185714D01*
X110980952Y-96280952D02*
X111028571Y-96233333D01*
X111123809Y-96185714D01*
X111266666Y-96185714D01*
X111361904Y-96233333D01*
X111409523Y-96328571D01*
X111409523Y-96852380D01*
X111409523Y-96328571D02*
X111457142Y-96233333D01*
X111552380Y-96185714D01*
X111695238Y-96185714D01*
X111790476Y-96233333D01*
X111838095Y-96328571D01*
X111838095Y-96852380D01*
X112266666Y-96566666D02*
X112742857Y-96566666D01*
X112171428Y-96852380D02*
X112504761Y-95852380D01*
X112838095Y-96852380D01*
X113933333Y-96852380D02*
X113933333Y-95852380D01*
X114266666Y-96566666D01*
X114600000Y-95852380D01*
X114600000Y-96852380D01*
X115028571Y-96566666D02*
X115504761Y-96566666D01*
X114933333Y-96852380D02*
X115266666Y-95852380D01*
X115600000Y-96852380D01*
X115838095Y-95852380D02*
X116504761Y-96852380D01*
X116504761Y-95852380D02*
X115838095Y-96852380D01*
X104361904Y-97462380D02*
X104980952Y-97462380D01*
X104647619Y-97843333D01*
X104790476Y-97843333D01*
X104885714Y-97890952D01*
X104933333Y-97938571D01*
X104980952Y-98033809D01*
X104980952Y-98271904D01*
X104933333Y-98367142D01*
X104885714Y-98414761D01*
X104790476Y-98462380D01*
X104504761Y-98462380D01*
X104409523Y-98414761D01*
X104361904Y-98367142D01*
X105409523Y-98367142D02*
X105457142Y-98414761D01*
X105409523Y-98462380D01*
X105361904Y-98414761D01*
X105409523Y-98367142D01*
X105409523Y-98462380D01*
X105790476Y-97462380D02*
X106409523Y-97462380D01*
X106076190Y-97843333D01*
X106219047Y-97843333D01*
X106314285Y-97890952D01*
X106361904Y-97938571D01*
X106409523Y-98033809D01*
X106409523Y-98271904D01*
X106361904Y-98367142D01*
X106314285Y-98414761D01*
X106219047Y-98462380D01*
X105933333Y-98462380D01*
X105838095Y-98414761D01*
X105790476Y-98367142D01*
X106695238Y-97462380D02*
X107028571Y-98462380D01*
X107361904Y-97462380D01*
X108361904Y-97462380D02*
X109028571Y-97462380D01*
X108600000Y-98462380D01*
X109600000Y-97462380D02*
X109695238Y-97462380D01*
X109790476Y-97510000D01*
X109838095Y-97557619D01*
X109885714Y-97652857D01*
X109933333Y-97843333D01*
X109933333Y-98081428D01*
X109885714Y-98271904D01*
X109838095Y-98367142D01*
X109790476Y-98414761D01*
X109695238Y-98462380D01*
X109600000Y-98462380D01*
X109504761Y-98414761D01*
X109457142Y-98367142D01*
X109409523Y-98271904D01*
X109361904Y-98081428D01*
X109361904Y-97843333D01*
X109409523Y-97652857D01*
X109457142Y-97557619D01*
X109504761Y-97510000D01*
X109600000Y-97462380D01*
X110552380Y-97462380D02*
X110647619Y-97462380D01*
X110742857Y-97510000D01*
X110790476Y-97557619D01*
X110838095Y-97652857D01*
X110885714Y-97843333D01*
X110885714Y-98081428D01*
X110838095Y-98271904D01*
X110790476Y-98367142D01*
X110742857Y-98414761D01*
X110647619Y-98462380D01*
X110552380Y-98462380D01*
X110457142Y-98414761D01*
X110409523Y-98367142D01*
X110361904Y-98271904D01*
X110314285Y-98081428D01*
X110314285Y-97843333D01*
X110361904Y-97652857D01*
X110409523Y-97557619D01*
X110457142Y-97510000D01*
X110552380Y-97462380D01*
X111314285Y-98462380D02*
X111314285Y-97795714D01*
X111314285Y-97890952D02*
X111361904Y-97843333D01*
X111457142Y-97795714D01*
X111600000Y-97795714D01*
X111695238Y-97843333D01*
X111742857Y-97938571D01*
X111742857Y-98462380D01*
X111742857Y-97938571D02*
X111790476Y-97843333D01*
X111885714Y-97795714D01*
X112028571Y-97795714D01*
X112123809Y-97843333D01*
X112171428Y-97938571D01*
X112171428Y-98462380D01*
X112600000Y-98176666D02*
X113076190Y-98176666D01*
X112504761Y-98462380D02*
X112838095Y-97462380D01*
X113171428Y-98462380D01*
X114266666Y-98462380D02*
X114266666Y-97462380D01*
X114599999Y-98176666D01*
X114933333Y-97462380D01*
X114933333Y-98462380D01*
X115361904Y-98176666D02*
X115838095Y-98176666D01*
X115266666Y-98462380D02*
X115600000Y-97462380D01*
X115933333Y-98462380D01*
X116171428Y-97462380D02*
X116838095Y-98462380D01*
X116838095Y-97462380D02*
X116171428Y-98462380D01*
X112652380Y-88200000D02*
X111652380Y-88200000D01*
X112128571Y-88200000D02*
X112128571Y-87628571D01*
X112652380Y-87628571D02*
X111652380Y-87628571D01*
X112366666Y-87200000D02*
X112366666Y-86723809D01*
X112652380Y-87295238D02*
X111652380Y-86961904D01*
X112652380Y-86628571D01*
X112652380Y-85819047D02*
X112652380Y-86295238D01*
X111652380Y-86295238D01*
X112652380Y-85009523D02*
X112652380Y-85485714D01*
X111652380Y-85485714D01*
X111652380Y-84771428D02*
X111652380Y-84152380D01*
X112033333Y-84485714D01*
X112033333Y-84342857D01*
X112080952Y-84247619D01*
X112128571Y-84200000D01*
X112223809Y-84152380D01*
X112461904Y-84152380D01*
X112557142Y-84200000D01*
X112604761Y-84247619D01*
X112652380Y-84342857D01*
X112652380Y-84628571D01*
X112604761Y-84723809D01*
X112557142Y-84771428D01*
X121557142Y-73642857D02*
X121604761Y-73690476D01*
X121652380Y-73833333D01*
X121652380Y-73928571D01*
X121604761Y-74071428D01*
X121509523Y-74166666D01*
X121414285Y-74214285D01*
X121223809Y-74261904D01*
X121080952Y-74261904D01*
X120890476Y-74214285D01*
X120795238Y-74166666D01*
X120700000Y-74071428D01*
X120652380Y-73928571D01*
X120652380Y-73833333D01*
X120700000Y-73690476D01*
X120747619Y-73642857D01*
X121366666Y-73261904D02*
X121366666Y-72785714D01*
X121652380Y-73357142D02*
X120652380Y-73023809D01*
X121652380Y-72690476D01*
X121652380Y-72357142D02*
X120652380Y-72357142D01*
X121652380Y-71785714D01*
X120652380Y-71785714D01*
D12*
X168482142Y-96535714D02*
X168410714Y-96750000D01*
X168339285Y-96821428D01*
X168196428Y-96892857D01*
X167982142Y-96892857D01*
X167839285Y-96821428D01*
X167767857Y-96750000D01*
X167696428Y-96607142D01*
X167696428Y-96035714D01*
X169196428Y-96035714D01*
X169196428Y-96535714D01*
X169125000Y-96678571D01*
X169053571Y-96750000D01*
X168910714Y-96821428D01*
X168767857Y-96821428D01*
X168625000Y-96750000D01*
X168553571Y-96678571D01*
X168482142Y-96535714D01*
X168482142Y-96035714D01*
X167696428Y-98250000D02*
X167696428Y-97535714D01*
X169196428Y-97535714D01*
X169196428Y-98750000D02*
X167982142Y-98750000D01*
X167839285Y-98821428D01*
X167767857Y-98892857D01*
X167696428Y-99035714D01*
X167696428Y-99321428D01*
X167767857Y-99464285D01*
X167839285Y-99535714D01*
X167982142Y-99607142D01*
X169196428Y-99607142D01*
X168482142Y-100321428D02*
X168482142Y-100821428D01*
X167696428Y-101035714D02*
X167696428Y-100321428D01*
X169196428Y-100321428D01*
X169196428Y-101035714D01*
X169196428Y-101464285D02*
X169196428Y-102321428D01*
X167696428Y-101892857D02*
X169196428Y-101892857D01*
X169196428Y-103107142D02*
X169196428Y-103392857D01*
X169125000Y-103535714D01*
X168982142Y-103678571D01*
X168696428Y-103750000D01*
X168196428Y-103750000D01*
X167910714Y-103678571D01*
X167767857Y-103535714D01*
X167696428Y-103392857D01*
X167696428Y-103107142D01*
X167767857Y-102964285D01*
X167910714Y-102821428D01*
X168196428Y-102750000D01*
X168696428Y-102750000D01*
X168982142Y-102821428D01*
X169125000Y-102964285D01*
X169196428Y-103107142D01*
X169196428Y-104678571D02*
X169196428Y-104964285D01*
X169125000Y-105107142D01*
X168982142Y-105250000D01*
X168696428Y-105321428D01*
X168196428Y-105321428D01*
X167910714Y-105250000D01*
X167767857Y-105107142D01*
X167696428Y-104964285D01*
X167696428Y-104678571D01*
X167767857Y-104535714D01*
X167910714Y-104392857D01*
X168196428Y-104321428D01*
X168696428Y-104321428D01*
X168982142Y-104392857D01*
X169125000Y-104535714D01*
X169196428Y-104678571D01*
X169196428Y-105750000D02*
X169196428Y-106607142D01*
X167696428Y-106178571D02*
X169196428Y-106178571D01*
X167696428Y-107107142D02*
X169196428Y-107107142D01*
X168482142Y-107107142D02*
X168482142Y-107964285D01*
X167696428Y-107964285D02*
X169196428Y-107964285D01*
D10*
X135052380Y-116214285D02*
X134052380Y-116214285D01*
X134052380Y-115976190D01*
X134100000Y-115833333D01*
X134195238Y-115738095D01*
X134290476Y-115690476D01*
X134480952Y-115642857D01*
X134623809Y-115642857D01*
X134814285Y-115690476D01*
X134909523Y-115738095D01*
X135004761Y-115833333D01*
X135052380Y-115976190D01*
X135052380Y-116214285D01*
X134528571Y-114880952D02*
X134528571Y-115214285D01*
X135052380Y-115214285D02*
X134052380Y-115214285D01*
X134052380Y-114738095D01*
X134052380Y-114357142D02*
X134861904Y-114357142D01*
X134957142Y-114309523D01*
X135004761Y-114261904D01*
X135052380Y-114166666D01*
X135052380Y-113976190D01*
X135004761Y-113880952D01*
X134957142Y-113833333D01*
X134861904Y-113785714D01*
X134052380Y-113785714D01*
X161286158Y-96025651D02*
X160720473Y-95459966D01*
X160935972Y-95244467D01*
X161016784Y-95217529D01*
X161070659Y-95217529D01*
X161151471Y-95244467D01*
X161232284Y-95325279D01*
X161259221Y-95406091D01*
X161259221Y-95459966D01*
X161232284Y-95540778D01*
X161016784Y-95756277D01*
X162121218Y-95082842D02*
X162121218Y-95136717D01*
X162067343Y-95244467D01*
X162013468Y-95298341D01*
X161905719Y-95352216D01*
X161797969Y-95352216D01*
X161717157Y-95325279D01*
X161582470Y-95244467D01*
X161501658Y-95163654D01*
X161420845Y-95028967D01*
X161393908Y-94948155D01*
X161393908Y-94840406D01*
X161447783Y-94732656D01*
X161501658Y-94678781D01*
X161609407Y-94624906D01*
X161663282Y-94624906D01*
X162713841Y-94597969D02*
X162390592Y-94921218D01*
X162552216Y-94759593D02*
X161986531Y-94193908D01*
X162013468Y-94328595D01*
X162013468Y-94436345D01*
X161986531Y-94517157D01*
X162417529Y-93870659D02*
X162417529Y-93816784D01*
X162444467Y-93735972D01*
X162579154Y-93601285D01*
X162659966Y-93574348D01*
X162713841Y-93574348D01*
X162794653Y-93601285D01*
X162848528Y-93655160D01*
X162902402Y-93762910D01*
X162902402Y-94409407D01*
X163252589Y-94059221D01*
X144901658Y-119210152D02*
X144335972Y-118644467D01*
X144551471Y-118428967D01*
X144632284Y-118402030D01*
X144686158Y-118402030D01*
X144766971Y-118428967D01*
X144847783Y-118509780D01*
X144874720Y-118590592D01*
X144874720Y-118644467D01*
X144847783Y-118725279D01*
X144632284Y-118940778D01*
X144847783Y-118132656D02*
X145548155Y-118563654D01*
X145251844Y-118051844D01*
X145763654Y-118348155D01*
X145332656Y-117647783D01*
X146437089Y-117674720D02*
X145979154Y-117593908D01*
X146113841Y-117997969D02*
X145548155Y-117432284D01*
X145763654Y-117216784D01*
X145844467Y-117189847D01*
X145898341Y-117189847D01*
X145979154Y-117216784D01*
X146059966Y-117297597D01*
X146086903Y-117378409D01*
X146086903Y-117432284D01*
X146059966Y-117513096D01*
X145844467Y-117728595D01*
X100852380Y-75540595D02*
X100852380Y-76112023D01*
X100852380Y-75826309D02*
X99852380Y-75826309D01*
X99995238Y-75921547D01*
X100090476Y-76016785D01*
X100138095Y-76112023D01*
X99947619Y-75159642D02*
X99900000Y-75112023D01*
X99852380Y-75016785D01*
X99852380Y-74778690D01*
X99900000Y-74683452D01*
X99947619Y-74635833D01*
X100042857Y-74588214D01*
X100138095Y-74588214D01*
X100280952Y-74635833D01*
X100852380Y-75207261D01*
X100852380Y-74588214D01*
X99852380Y-74302500D02*
X100852380Y-73969166D01*
X99852380Y-73635833D01*
X100947619Y-73540595D02*
X100947619Y-72778690D01*
X100757142Y-71969166D02*
X100804761Y-72016785D01*
X100852380Y-72159642D01*
X100852380Y-72254880D01*
X100804761Y-72397738D01*
X100709523Y-72492976D01*
X100614285Y-72540595D01*
X100423809Y-72588214D01*
X100280952Y-72588214D01*
X100090476Y-72540595D01*
X99995238Y-72492976D01*
X99900000Y-72397738D01*
X99852380Y-72254880D01*
X99852380Y-72159642D01*
X99900000Y-72016785D01*
X99947619Y-71969166D01*
X167640476Y-93800000D02*
X167564285Y-93761904D01*
X167450000Y-93761904D01*
X167335714Y-93800000D01*
X167259523Y-93876190D01*
X167221428Y-93952380D01*
X167183333Y-94104761D01*
X167183333Y-94219047D01*
X167221428Y-94371428D01*
X167259523Y-94447619D01*
X167335714Y-94523809D01*
X167450000Y-94561904D01*
X167526190Y-94561904D01*
X167640476Y-94523809D01*
X167678571Y-94485714D01*
X167678571Y-94219047D01*
X167526190Y-94219047D01*
X168021428Y-94561904D02*
X168021428Y-93761904D01*
X168478571Y-94561904D01*
X168478571Y-93761904D01*
X168859523Y-94561904D02*
X168859523Y-93761904D01*
X169050000Y-93761904D01*
X169164285Y-93800000D01*
X169240476Y-93876190D01*
X169278571Y-93952380D01*
X169316666Y-94104761D01*
X169316666Y-94219047D01*
X169278571Y-94371428D01*
X169240476Y-94447619D01*
X169164285Y-94523809D01*
X169050000Y-94561904D01*
X168859523Y-94561904D01*
X105252380Y-77328571D02*
X104252380Y-77328571D01*
X104728571Y-77328571D02*
X104728571Y-76757142D01*
X105252380Y-76757142D02*
X104252380Y-76757142D01*
X104966666Y-76328571D02*
X104966666Y-75852380D01*
X105252380Y-76423809D02*
X104252380Y-76090476D01*
X105252380Y-75757142D01*
X105252380Y-74947619D02*
X105252380Y-75423809D01*
X104252380Y-75423809D01*
X105252380Y-74138095D02*
X105252380Y-74614285D01*
X104252380Y-74614285D01*
X104300000Y-72519047D02*
X104252380Y-72614285D01*
X104252380Y-72757142D01*
X104300000Y-72900000D01*
X104395238Y-72995238D01*
X104490476Y-73042857D01*
X104680952Y-73090476D01*
X104823809Y-73090476D01*
X105014285Y-73042857D01*
X105109523Y-72995238D01*
X105204761Y-72900000D01*
X105252380Y-72757142D01*
X105252380Y-72661904D01*
X105204761Y-72519047D01*
X105157142Y-72471428D01*
X104823809Y-72471428D01*
X104823809Y-72661904D01*
X105252380Y-72042857D02*
X104252380Y-72042857D01*
X104728571Y-72042857D02*
X104728571Y-71471428D01*
X105252380Y-71471428D02*
X104252380Y-71471428D01*
X151219047Y-92166666D02*
X151695238Y-92166666D01*
X151123809Y-92452380D02*
X151457142Y-91452380D01*
X151790476Y-92452380D01*
X152123809Y-91452380D02*
X152123809Y-92261904D01*
X152171428Y-92357142D01*
X152219047Y-92404761D01*
X152314285Y-92452380D01*
X152504761Y-92452380D01*
X152600000Y-92404761D01*
X152647619Y-92357142D01*
X152695238Y-92261904D01*
X152695238Y-91452380D01*
X153076190Y-91452380D02*
X153742857Y-92452380D01*
X153742857Y-91452380D02*
X153076190Y-92452380D01*
X154885714Y-92452380D02*
X154885714Y-91452380D01*
X155552380Y-91452380D02*
X155742857Y-91452380D01*
X155838095Y-91500000D01*
X155933333Y-91595238D01*
X155980952Y-91785714D01*
X155980952Y-92119047D01*
X155933333Y-92309523D01*
X155838095Y-92404761D01*
X155742857Y-92452380D01*
X155552380Y-92452380D01*
X155457142Y-92404761D01*
X155361904Y-92309523D01*
X155314285Y-92119047D01*
X155314285Y-91785714D01*
X155361904Y-91595238D01*
X155457142Y-91500000D01*
X155552380Y-91452380D01*
X94422619Y-89580952D02*
X94422619Y-89009523D01*
X94422619Y-89295238D02*
X95422619Y-89295238D01*
X95279761Y-89200000D01*
X95184523Y-89104761D01*
X95136904Y-89009523D01*
X95327380Y-89961904D02*
X95375000Y-90009523D01*
X95422619Y-90104761D01*
X95422619Y-90342857D01*
X95375000Y-90438095D01*
X95327380Y-90485714D01*
X95232142Y-90533333D01*
X95136904Y-90533333D01*
X94994047Y-90485714D01*
X94422619Y-89914285D01*
X94422619Y-90533333D01*
X95422619Y-90819047D02*
X94422619Y-91152380D01*
X95422619Y-91485714D01*
X124747142Y-81802261D02*
X124794761Y-81849880D01*
X124842380Y-81992738D01*
X124842380Y-82087976D01*
X124794761Y-82230833D01*
X124699523Y-82326071D01*
X124604285Y-82373690D01*
X124413809Y-82421309D01*
X124270952Y-82421309D01*
X124080476Y-82373690D01*
X123985238Y-82326071D01*
X123890000Y-82230833D01*
X123842380Y-82087976D01*
X123842380Y-81992738D01*
X123890000Y-81849880D01*
X123937619Y-81802261D01*
X124556666Y-81421309D02*
X124556666Y-80945119D01*
X124842380Y-81516547D02*
X123842380Y-81183214D01*
X124842380Y-80849880D01*
X124842380Y-80516547D02*
X123842380Y-80516547D01*
X124842380Y-79945119D01*
X123842380Y-79945119D01*
X124937619Y-79707023D02*
X124937619Y-78945119D01*
X124842380Y-78707023D02*
X123842380Y-78707023D01*
X124318571Y-78707023D02*
X124318571Y-78135595D01*
X124842380Y-78135595D02*
X123842380Y-78135595D01*
X125500000Y-80183214D02*
X125452380Y-80278452D01*
X125452380Y-80421309D01*
X125500000Y-80564166D01*
X125595238Y-80659404D01*
X125690476Y-80707023D01*
X125880952Y-80754642D01*
X126023809Y-80754642D01*
X126214285Y-80707023D01*
X126309523Y-80659404D01*
X126404761Y-80564166D01*
X126452380Y-80421309D01*
X126452380Y-80326071D01*
X126404761Y-80183214D01*
X126357142Y-80135595D01*
X126023809Y-80135595D01*
X126023809Y-80326071D01*
X126452380Y-79707023D02*
X125452380Y-79707023D01*
X126452380Y-79135595D01*
X125452380Y-79135595D01*
X126452380Y-78659404D02*
X125452380Y-78659404D01*
X125452380Y-78421309D01*
X125500000Y-78278452D01*
X125595238Y-78183214D01*
X125690476Y-78135595D01*
X125880952Y-78087976D01*
X126023809Y-78087976D01*
X126214285Y-78135595D01*
X126309523Y-78183214D01*
X126404761Y-78278452D01*
X126452380Y-78421309D01*
X126452380Y-78659404D01*
X127967142Y-81564166D02*
X128014761Y-81611785D01*
X128062380Y-81754642D01*
X128062380Y-81849880D01*
X128014761Y-81992738D01*
X127919523Y-82087976D01*
X127824285Y-82135595D01*
X127633809Y-82183214D01*
X127490952Y-82183214D01*
X127300476Y-82135595D01*
X127205238Y-82087976D01*
X127110000Y-81992738D01*
X127062380Y-81849880D01*
X127062380Y-81754642D01*
X127110000Y-81611785D01*
X127157619Y-81564166D01*
X127776666Y-81183214D02*
X127776666Y-80707023D01*
X128062380Y-81278452D02*
X127062380Y-80945119D01*
X128062380Y-80611785D01*
X128062380Y-80278452D02*
X127062380Y-80278452D01*
X128062380Y-79707023D01*
X127062380Y-79707023D01*
X128157619Y-79468928D02*
X128157619Y-78707023D01*
X128062380Y-77992738D02*
X128062380Y-78468928D01*
X127062380Y-78468928D01*
X154961904Y-80180952D02*
X154961904Y-79685714D01*
X155266666Y-79952380D01*
X155266666Y-79838095D01*
X155304761Y-79761904D01*
X155342857Y-79723809D01*
X155419047Y-79685714D01*
X155609523Y-79685714D01*
X155685714Y-79723809D01*
X155723809Y-79761904D01*
X155761904Y-79838095D01*
X155761904Y-80066666D01*
X155723809Y-80142857D01*
X155685714Y-80180952D01*
X155685714Y-79342857D02*
X155723809Y-79304761D01*
X155761904Y-79342857D01*
X155723809Y-79380952D01*
X155685714Y-79342857D01*
X155761904Y-79342857D01*
X154961904Y-79038095D02*
X154961904Y-78542857D01*
X155266666Y-78809523D01*
X155266666Y-78695238D01*
X155304761Y-78619047D01*
X155342857Y-78580952D01*
X155419047Y-78542857D01*
X155609523Y-78542857D01*
X155685714Y-78580952D01*
X155723809Y-78619047D01*
X155761904Y-78695238D01*
X155761904Y-78923809D01*
X155723809Y-79000000D01*
X155685714Y-79038095D01*
X154961904Y-78314285D02*
X155761904Y-78047619D01*
X154961904Y-77780952D01*
X152561904Y-85000000D02*
X152561904Y-84542857D01*
X153361904Y-84771428D02*
X152561904Y-84771428D01*
X153361904Y-84276190D02*
X152561904Y-84276190D01*
X152942857Y-84276190D02*
X152942857Y-83819047D01*
X153361904Y-83819047D02*
X152561904Y-83819047D01*
X153361904Y-82980952D02*
X152980952Y-83247619D01*
X153361904Y-83438095D02*
X152561904Y-83438095D01*
X152561904Y-83133333D01*
X152600000Y-83057142D01*
X152638095Y-83019047D01*
X152714285Y-82980952D01*
X152828571Y-82980952D01*
X152904761Y-83019047D01*
X152942857Y-83057142D01*
X152980952Y-83133333D01*
X152980952Y-83438095D01*
X152561904Y-82485714D02*
X152561904Y-82333333D01*
X152600000Y-82257142D01*
X152676190Y-82180952D01*
X152828571Y-82142857D01*
X153095238Y-82142857D01*
X153247619Y-82180952D01*
X153323809Y-82257142D01*
X153361904Y-82333333D01*
X153361904Y-82485714D01*
X153323809Y-82561904D01*
X153247619Y-82638095D01*
X153095238Y-82676190D01*
X152828571Y-82676190D01*
X152676190Y-82638095D01*
X152600000Y-82561904D01*
X152561904Y-82485714D01*
X152561904Y-81914285D02*
X152561904Y-81457142D01*
X153361904Y-81685714D02*
X152561904Y-81685714D01*
X153133333Y-80619047D02*
X153133333Y-80238095D01*
X153361904Y-80695238D02*
X152561904Y-80428571D01*
X153361904Y-80161904D01*
X153361904Y-79895238D02*
X152561904Y-79895238D01*
X152561904Y-79704761D01*
X152600000Y-79590476D01*
X152676190Y-79514285D01*
X152752380Y-79476190D01*
X152904761Y-79438095D01*
X153019047Y-79438095D01*
X153171428Y-79476190D01*
X153247619Y-79514285D01*
X153323809Y-79590476D01*
X153361904Y-79704761D01*
X153361904Y-79895238D01*
X153285714Y-78638095D02*
X153323809Y-78676190D01*
X153361904Y-78790476D01*
X153361904Y-78866666D01*
X153323809Y-78980952D01*
X153247619Y-79057142D01*
X153171428Y-79095238D01*
X153019047Y-79133333D01*
X152904761Y-79133333D01*
X152752380Y-79095238D01*
X152676190Y-79057142D01*
X152600000Y-78980952D01*
X152561904Y-78866666D01*
X152561904Y-78790476D01*
X152600000Y-78676190D01*
X152638095Y-78638095D01*
X153361904Y-77876190D02*
X153361904Y-78333333D01*
X153361904Y-78104761D02*
X152561904Y-78104761D01*
X152676190Y-78180952D01*
X152752380Y-78257142D01*
X152790476Y-78333333D01*
X131052380Y-75871428D02*
X131861904Y-75871428D01*
X131957142Y-75823809D01*
X132004761Y-75776190D01*
X132052380Y-75680952D01*
X132052380Y-75490476D01*
X132004761Y-75395238D01*
X131957142Y-75347619D01*
X131861904Y-75300000D01*
X131052380Y-75300000D01*
X131766666Y-74871428D02*
X131766666Y-74395238D01*
X132052380Y-74966666D02*
X131052380Y-74633333D01*
X132052380Y-74300000D01*
X132052380Y-73395238D02*
X131576190Y-73728571D01*
X132052380Y-73966666D02*
X131052380Y-73966666D01*
X131052380Y-73585714D01*
X131100000Y-73490476D01*
X131147619Y-73442857D01*
X131242857Y-73395238D01*
X131385714Y-73395238D01*
X131480952Y-73442857D01*
X131528571Y-73490476D01*
X131576190Y-73585714D01*
X131576190Y-73966666D01*
X131052380Y-73109523D02*
X131052380Y-72538095D01*
X132052380Y-72823809D02*
X131052380Y-72823809D01*
X132052380Y-71680952D02*
X132052380Y-72252380D01*
X132052380Y-71966666D02*
X131052380Y-71966666D01*
X131195238Y-72061904D01*
X131290476Y-72157142D01*
X131338095Y-72252380D01*
X149142857Y-81685714D02*
X149180952Y-81571428D01*
X149219047Y-81533333D01*
X149295238Y-81495238D01*
X149409523Y-81495238D01*
X149485714Y-81533333D01*
X149523809Y-81571428D01*
X149561904Y-81647619D01*
X149561904Y-81952380D01*
X148761904Y-81952380D01*
X148761904Y-81685714D01*
X148800000Y-81609523D01*
X148838095Y-81571428D01*
X148914285Y-81533333D01*
X148990476Y-81533333D01*
X149066666Y-81571428D01*
X149104761Y-81609523D01*
X149142857Y-81685714D01*
X149142857Y-81952380D01*
X149561904Y-80695238D02*
X149180952Y-80961904D01*
X149561904Y-81152380D02*
X148761904Y-81152380D01*
X148761904Y-80847619D01*
X148800000Y-80771428D01*
X148838095Y-80733333D01*
X148914285Y-80695238D01*
X149028571Y-80695238D01*
X149104761Y-80733333D01*
X149142857Y-80771428D01*
X149180952Y-80847619D01*
X149180952Y-81152380D01*
X149561904Y-80352380D02*
X148761904Y-80352380D01*
X149561904Y-79895238D02*
X149104761Y-80238095D01*
X148761904Y-79895238D02*
X149219047Y-80352380D01*
X149523809Y-78980952D02*
X149561904Y-78866666D01*
X149561904Y-78676190D01*
X149523809Y-78600000D01*
X149485714Y-78561904D01*
X149409523Y-78523809D01*
X149333333Y-78523809D01*
X149257142Y-78561904D01*
X149219047Y-78600000D01*
X149180952Y-78676190D01*
X149142857Y-78828571D01*
X149104761Y-78904761D01*
X149066666Y-78942857D01*
X148990476Y-78980952D01*
X148914285Y-78980952D01*
X148838095Y-78942857D01*
X148800000Y-78904761D01*
X148761904Y-78828571D01*
X148761904Y-78638095D01*
X148800000Y-78523809D01*
X148761904Y-78257142D02*
X149561904Y-78066666D01*
X148990476Y-77914285D01*
X149561904Y-77761904D01*
X148761904Y-77571428D01*
X109452380Y-88200000D02*
X108452380Y-88200000D01*
X108928571Y-88200000D02*
X108928571Y-87628571D01*
X109452380Y-87628571D02*
X108452380Y-87628571D01*
X109166666Y-87200000D02*
X109166666Y-86723809D01*
X109452380Y-87295238D02*
X108452380Y-86961904D01*
X109452380Y-86628571D01*
X109452380Y-85819047D02*
X109452380Y-86295238D01*
X108452380Y-86295238D01*
X109452380Y-85009523D02*
X109452380Y-85485714D01*
X108452380Y-85485714D01*
X109452380Y-84152380D02*
X109452380Y-84723809D01*
X109452380Y-84438095D02*
X108452380Y-84438095D01*
X108595238Y-84533333D01*
X108690476Y-84628571D01*
X108738095Y-84723809D01*
X156286158Y-95825651D02*
X155720473Y-95259966D01*
X155935972Y-95044467D01*
X156016784Y-95017529D01*
X156070659Y-95017529D01*
X156151471Y-95044467D01*
X156232284Y-95125279D01*
X156259221Y-95206091D01*
X156259221Y-95259966D01*
X156232284Y-95340778D01*
X156016784Y-95556277D01*
X157121218Y-94882842D02*
X157121218Y-94936717D01*
X157067343Y-95044467D01*
X157013468Y-95098341D01*
X156905719Y-95152216D01*
X156797969Y-95152216D01*
X156717157Y-95125279D01*
X156582470Y-95044467D01*
X156501658Y-94963654D01*
X156420845Y-94828967D01*
X156393908Y-94748155D01*
X156393908Y-94640406D01*
X156447783Y-94532656D01*
X156501658Y-94478781D01*
X156609407Y-94424906D01*
X156663282Y-94424906D01*
X157713841Y-94397969D02*
X157390592Y-94721218D01*
X157552216Y-94559593D02*
X156986531Y-93993908D01*
X157013468Y-94128595D01*
X157013468Y-94236345D01*
X156986531Y-94317157D01*
X157659966Y-93320473D02*
X157390592Y-93589847D01*
X157633028Y-93886158D01*
X157633028Y-93832284D01*
X157659966Y-93751471D01*
X157794653Y-93616784D01*
X157875465Y-93589847D01*
X157929340Y-93589847D01*
X158010152Y-93616784D01*
X158144839Y-93751471D01*
X158171776Y-93832284D01*
X158171776Y-93886158D01*
X158144839Y-93966971D01*
X158010152Y-94101658D01*
X157929340Y-94128595D01*
X157875465Y-94128595D01*
X134668000Y-80183214D02*
X134629904Y-80278452D01*
X134629904Y-80421309D01*
X134668000Y-80564166D01*
X134744190Y-80659404D01*
X134820380Y-80707023D01*
X134972761Y-80754642D01*
X135087047Y-80754642D01*
X135239428Y-80707023D01*
X135315619Y-80659404D01*
X135391809Y-80564166D01*
X135429904Y-80421309D01*
X135429904Y-80326071D01*
X135391809Y-80183214D01*
X135353714Y-80135595D01*
X135087047Y-80135595D01*
X135087047Y-80326071D01*
X135429904Y-79707023D02*
X134629904Y-79707023D01*
X135429904Y-79135595D01*
X134629904Y-79135595D01*
X135429904Y-78659404D02*
X134629904Y-78659404D01*
X134629904Y-78421309D01*
X134668000Y-78278452D01*
X134744190Y-78183214D01*
X134820380Y-78135595D01*
X134972761Y-78087976D01*
X135087047Y-78087976D01*
X135239428Y-78135595D01*
X135315619Y-78183214D01*
X135391809Y-78278452D01*
X135429904Y-78421309D01*
X135429904Y-78659404D01*
X135917904Y-80897500D02*
X135917904Y-80278452D01*
X136222666Y-80611785D01*
X136222666Y-80468928D01*
X136260761Y-80373690D01*
X136298857Y-80326071D01*
X136375047Y-80278452D01*
X136565523Y-80278452D01*
X136641714Y-80326071D01*
X136679809Y-80373690D01*
X136717904Y-80468928D01*
X136717904Y-80754642D01*
X136679809Y-80849880D01*
X136641714Y-80897500D01*
X136641714Y-79849880D02*
X136679809Y-79802261D01*
X136717904Y-79849880D01*
X136679809Y-79897500D01*
X136641714Y-79849880D01*
X136717904Y-79849880D01*
X135917904Y-79468928D02*
X135917904Y-78849880D01*
X136222666Y-79183214D01*
X136222666Y-79040357D01*
X136260761Y-78945119D01*
X136298857Y-78897500D01*
X136375047Y-78849880D01*
X136565523Y-78849880D01*
X136641714Y-78897500D01*
X136679809Y-78945119D01*
X136717904Y-79040357D01*
X136717904Y-79326071D01*
X136679809Y-79421309D01*
X136641714Y-79468928D01*
X136184571Y-78516547D02*
X136717904Y-78278452D01*
X136184571Y-78040357D01*
X137205904Y-88802261D02*
X138005904Y-88564166D01*
X137434476Y-88373690D01*
X138005904Y-88183214D01*
X137205904Y-87945119D01*
X138005904Y-87087976D02*
X138005904Y-87564166D01*
X137205904Y-87564166D01*
X137586857Y-86754642D02*
X137586857Y-86421309D01*
X138005904Y-86278452D02*
X138005904Y-86754642D01*
X137205904Y-86754642D01*
X137205904Y-86278452D01*
X138005904Y-85849880D02*
X137205904Y-85849880D01*
X137205904Y-85611785D01*
X137244000Y-85468928D01*
X137320190Y-85373690D01*
X137396380Y-85326071D01*
X137548761Y-85278452D01*
X137663047Y-85278452D01*
X137815428Y-85326071D01*
X137891619Y-85373690D01*
X137967809Y-85468928D01*
X138005904Y-85611785D01*
X138005904Y-85849880D01*
X137167809Y-84135595D02*
X138196380Y-84992738D01*
X137205904Y-83802261D02*
X137853523Y-83802261D01*
X137929714Y-83754642D01*
X137967809Y-83707023D01*
X138005904Y-83611785D01*
X138005904Y-83421309D01*
X137967809Y-83326071D01*
X137929714Y-83278452D01*
X137853523Y-83230833D01*
X137205904Y-83230833D01*
X137777333Y-82802261D02*
X137777333Y-82326071D01*
X138005904Y-82897500D02*
X137205904Y-82564166D01*
X138005904Y-82230833D01*
X138005904Y-81326071D02*
X137624952Y-81659404D01*
X138005904Y-81897500D02*
X137205904Y-81897500D01*
X137205904Y-81516547D01*
X137244000Y-81421309D01*
X137282095Y-81373690D01*
X137358285Y-81326071D01*
X137472571Y-81326071D01*
X137548761Y-81373690D01*
X137586857Y-81421309D01*
X137624952Y-81516547D01*
X137624952Y-81897500D01*
X137205904Y-81040357D02*
X137205904Y-80468928D01*
X138005904Y-80754642D02*
X137205904Y-80754642D01*
X138082095Y-80373690D02*
X138082095Y-79611785D01*
X137205904Y-79516547D02*
X137205904Y-78945119D01*
X138005904Y-79230833D02*
X137205904Y-79230833D01*
X137205904Y-78707023D02*
X138005904Y-78040357D01*
X137205904Y-78040357D02*
X138005904Y-78707023D01*
X138493904Y-84040357D02*
X139141523Y-84040357D01*
X139217714Y-83992738D01*
X139255809Y-83945119D01*
X139293904Y-83849880D01*
X139293904Y-83659404D01*
X139255809Y-83564166D01*
X139217714Y-83516547D01*
X139141523Y-83468928D01*
X138493904Y-83468928D01*
X139065333Y-83040357D02*
X139065333Y-82564166D01*
X139293904Y-83135595D02*
X138493904Y-82802261D01*
X139293904Y-82468928D01*
X139293904Y-81564166D02*
X138912952Y-81897500D01*
X139293904Y-82135595D02*
X138493904Y-82135595D01*
X138493904Y-81754642D01*
X138532000Y-81659404D01*
X138570095Y-81611785D01*
X138646285Y-81564166D01*
X138760571Y-81564166D01*
X138836761Y-81611785D01*
X138874857Y-81659404D01*
X138912952Y-81754642D01*
X138912952Y-82135595D01*
X138493904Y-81278452D02*
X138493904Y-80707023D01*
X139293904Y-80992738D02*
X138493904Y-80992738D01*
X139370095Y-80611785D02*
X139370095Y-79849880D01*
X139293904Y-79040357D02*
X138912952Y-79373690D01*
X139293904Y-79611785D02*
X138493904Y-79611785D01*
X138493904Y-79230833D01*
X138532000Y-79135595D01*
X138570095Y-79087976D01*
X138646285Y-79040357D01*
X138760571Y-79040357D01*
X138836761Y-79087976D01*
X138874857Y-79135595D01*
X138912952Y-79230833D01*
X138912952Y-79611785D01*
X138493904Y-78707023D02*
X139293904Y-78040357D01*
X138493904Y-78040357D02*
X139293904Y-78707023D01*
X97750000Y-89638095D02*
X97797619Y-89542857D01*
X97797619Y-89400000D01*
X97750000Y-89257142D01*
X97654761Y-89161904D01*
X97559523Y-89114285D01*
X97369047Y-89066666D01*
X97226190Y-89066666D01*
X97035714Y-89114285D01*
X96940476Y-89161904D01*
X96845238Y-89257142D01*
X96797619Y-89400000D01*
X96797619Y-89495238D01*
X96845238Y-89638095D01*
X96892857Y-89685714D01*
X97226190Y-89685714D01*
X97226190Y-89495238D01*
X96797619Y-90114285D02*
X97797619Y-90114285D01*
X96797619Y-90685714D01*
X97797619Y-90685714D01*
X96797619Y-91161904D02*
X97797619Y-91161904D01*
X97797619Y-91400000D01*
X97750000Y-91542857D01*
X97654761Y-91638095D01*
X97559523Y-91685714D01*
X97369047Y-91733333D01*
X97226190Y-91733333D01*
X97035714Y-91685714D01*
X96940476Y-91638095D01*
X96845238Y-91542857D01*
X96797619Y-91400000D01*
X96797619Y-91161904D01*
X107000000Y-85609523D02*
X106961904Y-85685714D01*
X106961904Y-85800000D01*
X107000000Y-85914285D01*
X107076190Y-85990476D01*
X107152380Y-86028571D01*
X107304761Y-86066666D01*
X107419047Y-86066666D01*
X107571428Y-86028571D01*
X107647619Y-85990476D01*
X107723809Y-85914285D01*
X107761904Y-85800000D01*
X107761904Y-85723809D01*
X107723809Y-85609523D01*
X107685714Y-85571428D01*
X107419047Y-85571428D01*
X107419047Y-85723809D01*
X107761904Y-85228571D02*
X106961904Y-85228571D01*
X107761904Y-84771428D01*
X106961904Y-84771428D01*
X107761904Y-84390476D02*
X106961904Y-84390476D01*
X106961904Y-84200000D01*
X107000000Y-84085714D01*
X107076190Y-84009523D01*
X107152380Y-83971428D01*
X107304761Y-83933333D01*
X107419047Y-83933333D01*
X107571428Y-83971428D01*
X107647619Y-84009523D01*
X107723809Y-84085714D01*
X107761904Y-84200000D01*
X107761904Y-84390476D01*
X111052380Y-88200000D02*
X110052380Y-88200000D01*
X110528571Y-88200000D02*
X110528571Y-87628571D01*
X111052380Y-87628571D02*
X110052380Y-87628571D01*
X110766666Y-87200000D02*
X110766666Y-86723809D01*
X111052380Y-87295238D02*
X110052380Y-86961904D01*
X111052380Y-86628571D01*
X111052380Y-85819047D02*
X111052380Y-86295238D01*
X110052380Y-86295238D01*
X111052380Y-85009523D02*
X111052380Y-85485714D01*
X110052380Y-85485714D01*
X110147619Y-84723809D02*
X110100000Y-84676190D01*
X110052380Y-84580952D01*
X110052380Y-84342857D01*
X110100000Y-84247619D01*
X110147619Y-84200000D01*
X110242857Y-84152380D01*
X110338095Y-84152380D01*
X110480952Y-84200000D01*
X111052380Y-84771428D01*
X111052380Y-84152380D01*
X115852380Y-85752380D02*
X116852380Y-85419047D01*
X115852380Y-85085714D01*
X116471428Y-84752380D02*
X116471428Y-83990476D01*
X116852380Y-84371428D02*
X116090476Y-84371428D01*
X96735595Y-70671428D02*
X97497500Y-70671428D01*
X138575042Y-118954247D02*
X138410050Y-119119238D01*
X138669322Y-119378511D02*
X138174348Y-118883536D01*
X138410050Y-118647834D01*
X138928595Y-118836396D02*
X139164297Y-118600693D01*
X139022876Y-119024957D02*
X138692893Y-118364991D01*
X139352859Y-118694974D01*
X139022876Y-118035008D02*
X139423570Y-118435702D01*
X139494280Y-118459272D01*
X139541421Y-118459272D01*
X139612132Y-118435702D01*
X139706412Y-118341421D01*
X139729983Y-118270710D01*
X139729983Y-118223570D01*
X139706412Y-118152859D01*
X139305719Y-117752165D01*
X140272098Y-117775735D02*
X140036396Y-118011438D01*
X139541421Y-117516463D01*
X139871404Y-117186480D02*
X140154247Y-116903637D01*
X140507800Y-117540033D02*
X140012825Y-117045058D01*
%TO.C,K1*%
X93261904Y-99952380D02*
X93261904Y-98952380D01*
X93833333Y-99952380D02*
X93404761Y-99380952D01*
X93833333Y-98952380D02*
X93261904Y-99523809D01*
X94785714Y-99952380D02*
X94214285Y-99952380D01*
X94500000Y-99952380D02*
X94500000Y-98952380D01*
X94404761Y-99095238D01*
X94309523Y-99190476D01*
X94214285Y-99238095D01*
D13*
%TO.C,D501*%
X146000000Y-115300000D02*
X146300000Y-115900000D01*
X145700000Y-115900000D02*
X146000000Y-115300000D01*
X146610000Y-115250000D02*
X146610000Y-115950000D01*
X146300000Y-115900000D02*
X145700000Y-115900000D01*
X145390000Y-115950000D02*
X145390000Y-115250000D01*
X146300000Y-115300000D02*
X145700000Y-115300000D01*
%TO.C,D502*%
X142250000Y-115300000D02*
X142550000Y-115900000D01*
X142550000Y-115300000D02*
X141950000Y-115300000D01*
X142860000Y-115250000D02*
X142860000Y-115950000D01*
X141950000Y-115900000D02*
X142250000Y-115300000D01*
X141640000Y-115950000D02*
X141640000Y-115250000D01*
X142550000Y-115900000D02*
X141950000Y-115900000D01*
%TO.C,D503*%
X140250000Y-115300000D02*
X140550000Y-115900000D01*
X139640000Y-115950000D02*
X139640000Y-115250000D01*
X140550000Y-115900000D02*
X139950000Y-115900000D01*
X140550000Y-115300000D02*
X139950000Y-115300000D01*
X139950000Y-115900000D02*
X140250000Y-115300000D01*
X140860000Y-115250000D02*
X140860000Y-115950000D01*
D11*
%TO.C,J501*%
X159270000Y-93330000D02*
X159270000Y-90670000D01*
X156670000Y-90670000D02*
X158000000Y-90670000D01*
X169490000Y-93330000D02*
X169490000Y-90670000D01*
X156670000Y-92000000D02*
X156670000Y-90670000D01*
X159270000Y-90670000D02*
X169490000Y-90670000D01*
X159270000Y-93330000D02*
X169490000Y-93330000D01*
%TO.C,J601*%
X96100000Y-75300000D02*
X96100000Y-75800000D01*
X94700000Y-71690000D02*
X94700000Y-71490000D01*
X94700000Y-71490000D02*
X94400000Y-71490000D01*
X92940000Y-71690000D02*
X92940000Y-76410000D01*
X92940000Y-76410000D02*
X99060000Y-76410000D01*
X98450000Y-75800000D02*
X98450000Y-72300000D01*
X93550000Y-72300000D02*
X93550000Y-75800000D01*
X94700000Y-71590000D02*
X94400000Y-71590000D01*
X99060000Y-76410000D02*
X99060000Y-71690000D01*
X95500000Y-71690000D02*
X95500000Y-72300000D01*
X98450000Y-72300000D02*
X96500000Y-72300000D01*
X95900000Y-75800000D02*
X95900000Y-75300000D01*
X95500000Y-72300000D02*
X93550000Y-72300000D01*
X99060000Y-73000000D02*
X98450000Y-73000000D01*
X92940000Y-74300000D02*
X93550000Y-74300000D01*
X96500000Y-72300000D02*
X96500000Y-71690000D01*
X99060000Y-74300000D02*
X98450000Y-74300000D01*
X94400000Y-71490000D02*
X94400000Y-71690000D01*
X93550000Y-75800000D02*
X98450000Y-75800000D01*
X92940000Y-73000000D02*
X93550000Y-73000000D01*
X93890000Y-71390000D02*
X92640000Y-71390000D01*
X96000000Y-75800000D02*
X96000000Y-75300000D01*
X92640000Y-71390000D02*
X92640000Y-72640000D01*
X95900000Y-75300000D02*
X96100000Y-75300000D01*
X99060000Y-71690000D02*
X92940000Y-71690000D01*
D13*
%TO.C,JP101*%
X161110000Y-79560000D02*
X161110000Y-80440000D01*
X162890000Y-80440000D02*
X161110000Y-80440000D01*
X162890000Y-79560000D02*
X162890000Y-80440000D01*
X161110000Y-79560000D02*
X162890000Y-79560000D01*
%TO.C,JP102*%
X106600000Y-90125000D02*
X107800000Y-90125000D01*
X106600000Y-90125000D02*
X106600000Y-86675000D01*
X107800000Y-86675000D02*
X107800000Y-90125000D01*
X106600000Y-86675000D02*
X107800000Y-86675000D01*
D11*
%TO.C,K101*%
X164590000Y-87300000D02*
X164590000Y-87600000D01*
X165300000Y-86500000D02*
X165300000Y-88450000D01*
X168800000Y-86000000D02*
X168300000Y-86000000D01*
X164690000Y-86500000D02*
X165300000Y-86500000D01*
X169410000Y-89060000D02*
X169410000Y-80940000D01*
X166000000Y-80940000D02*
X166000000Y-81550000D01*
X165300000Y-83500000D02*
X164690000Y-83500000D01*
X164690000Y-89060000D02*
X169410000Y-89060000D01*
X168800000Y-81550000D02*
X165300000Y-81550000D01*
X168800000Y-88450000D02*
X168800000Y-81550000D01*
X164690000Y-87300000D02*
X164490000Y-87300000D01*
X167300000Y-89060000D02*
X167300000Y-88450000D01*
X165300000Y-88450000D02*
X168800000Y-88450000D01*
X169410000Y-80940000D02*
X164690000Y-80940000D01*
X164390000Y-89360000D02*
X165640000Y-89360000D01*
X168300000Y-84100000D02*
X168300000Y-83900000D01*
X167300000Y-80940000D02*
X167300000Y-81550000D01*
X168300000Y-86100000D02*
X168300000Y-85900000D01*
X164690000Y-80940000D02*
X164690000Y-89060000D01*
X164490000Y-87600000D02*
X164690000Y-87600000D01*
X168300000Y-83900000D02*
X168800000Y-83900000D01*
X168800000Y-84100000D02*
X168300000Y-84100000D01*
X166000000Y-89060000D02*
X166000000Y-88450000D01*
X164390000Y-88110000D02*
X164390000Y-89360000D01*
X168800000Y-86100000D02*
X168300000Y-86100000D01*
X165300000Y-81550000D02*
X165300000Y-83500000D01*
X168800000Y-84000000D02*
X168300000Y-84000000D01*
X168300000Y-85900000D02*
X168800000Y-85900000D01*
X164490000Y-87300000D02*
X164490000Y-87600000D01*
%TO.C,P101*%
X157735000Y-76360000D02*
X155935000Y-76360000D01*
X146065000Y-76360000D02*
X146065000Y-77300000D01*
X144265000Y-74760000D02*
X144265000Y-76360000D01*
X145535000Y-71890000D02*
X156465000Y-71890000D01*
X144265000Y-76360000D02*
X146065000Y-76360000D01*
X157735000Y-74760000D02*
X157735000Y-76360000D01*
%TO.C,P102*%
X134035000Y-71890000D02*
X139965000Y-71890000D01*
X134565000Y-76360000D02*
X134565000Y-77300000D01*
X141235000Y-74760000D02*
X141235000Y-76360000D01*
X141235000Y-76360000D02*
X139435000Y-76360000D01*
X132765000Y-76360000D02*
X134565000Y-76360000D01*
X132765000Y-74760000D02*
X132765000Y-76360000D01*
%TO.C,P103*%
X156040000Y-81890000D02*
X154890000Y-81890000D01*
X158010000Y-83060000D02*
X158010000Y-86940000D01*
X156040000Y-88110000D02*
X154890000Y-88110000D01*
X154890000Y-82940000D02*
X153900000Y-82940000D01*
X154890000Y-88110000D02*
X154890000Y-87060000D01*
X154890000Y-81890000D02*
X154890000Y-82940000D01*
%TO.C,P501*%
X154890000Y-98440000D02*
X153900000Y-98440000D01*
X154890000Y-97390000D02*
X154890000Y-98440000D01*
X156040000Y-97390000D02*
X154890000Y-97390000D01*
X156040000Y-103610000D02*
X154890000Y-103610000D01*
X158010000Y-98560000D02*
X158010000Y-102440000D01*
X154890000Y-103610000D02*
X154890000Y-102560000D01*
%TO.C,SW501*%
X135600000Y-113350000D02*
X135900000Y-113350000D01*
X138100000Y-116650000D02*
X138400000Y-116650000D01*
X135900000Y-116650000D02*
X135600000Y-116650000D01*
X138400000Y-116650000D02*
X138400000Y-113350000D01*
X135600000Y-116650000D02*
X135600000Y-113350000D01*
X138400000Y-113350000D02*
X138100000Y-113350000D01*
%TO.C,J602*%
X93550000Y-87800000D02*
X98450000Y-87800000D01*
X93550000Y-84300000D02*
X93550000Y-87800000D01*
X96000000Y-87800000D02*
X96000000Y-87300000D01*
X92940000Y-83690000D02*
X92940000Y-88410000D01*
X94700000Y-83690000D02*
X94700000Y-83490000D01*
X99060000Y-88410000D02*
X99060000Y-83690000D01*
X95900000Y-87800000D02*
X95900000Y-87300000D01*
X96500000Y-84300000D02*
X96500000Y-83690000D01*
X92640000Y-83390000D02*
X92640000Y-84640000D01*
X99060000Y-83690000D02*
X92940000Y-83690000D01*
X94700000Y-83590000D02*
X94400000Y-83590000D01*
X92940000Y-88410000D02*
X99060000Y-88410000D01*
X95500000Y-84300000D02*
X93550000Y-84300000D01*
X99060000Y-86300000D02*
X98450000Y-86300000D01*
X96100000Y-87300000D02*
X96100000Y-87800000D01*
X95900000Y-87300000D02*
X96100000Y-87300000D01*
X95500000Y-83690000D02*
X95500000Y-84300000D01*
X98450000Y-87800000D02*
X98450000Y-84300000D01*
X92940000Y-85000000D02*
X93550000Y-85000000D01*
X92940000Y-86300000D02*
X93550000Y-86300000D01*
X93890000Y-83390000D02*
X92640000Y-83390000D01*
X94400000Y-83490000D02*
X94400000Y-83690000D01*
X94700000Y-83490000D02*
X94400000Y-83490000D01*
X98450000Y-84300000D02*
X96500000Y-84300000D01*
X99060000Y-85000000D02*
X98450000Y-85000000D01*
%TO.C,J603*%
X96500000Y-78300000D02*
X96500000Y-77690000D01*
X93890000Y-77390000D02*
X92640000Y-77390000D01*
X92940000Y-77690000D02*
X92940000Y-82410000D01*
X98450000Y-78300000D02*
X96500000Y-78300000D01*
X99060000Y-79000000D02*
X98450000Y-79000000D01*
X92940000Y-79000000D02*
X93550000Y-79000000D01*
X92940000Y-82410000D02*
X99060000Y-82410000D01*
X94700000Y-77690000D02*
X94700000Y-77490000D01*
X95500000Y-78300000D02*
X93550000Y-78300000D01*
X94700000Y-77590000D02*
X94400000Y-77590000D01*
X95500000Y-77690000D02*
X95500000Y-78300000D01*
X96000000Y-81800000D02*
X96000000Y-81300000D01*
X92640000Y-77390000D02*
X92640000Y-78640000D01*
X99060000Y-77690000D02*
X92940000Y-77690000D01*
X96100000Y-81300000D02*
X96100000Y-81800000D01*
X95900000Y-81300000D02*
X96100000Y-81300000D01*
X95900000Y-81800000D02*
X95900000Y-81300000D01*
X94700000Y-77490000D02*
X94400000Y-77490000D01*
X92940000Y-80300000D02*
X93550000Y-80300000D01*
X99060000Y-82410000D02*
X99060000Y-77690000D01*
X99060000Y-80300000D02*
X98450000Y-80300000D01*
X98450000Y-81800000D02*
X98450000Y-78300000D01*
X93550000Y-81800000D02*
X98450000Y-81800000D01*
X93550000Y-78300000D02*
X93550000Y-81800000D01*
X94400000Y-77490000D02*
X94400000Y-77690000D01*
%TO.C,P104*%
X113500000Y-82800000D02*
X113500000Y-82300000D01*
X107000000Y-78690000D02*
X107000000Y-79300000D01*
X106200000Y-78590000D02*
X105900000Y-78590000D01*
X107600000Y-82300000D02*
X107600000Y-82800000D01*
X107400000Y-82300000D02*
X107600000Y-82300000D01*
X118560000Y-80000000D02*
X117950000Y-80000000D01*
X117950000Y-82800000D02*
X117950000Y-79300000D01*
X107000000Y-79300000D02*
X105050000Y-79300000D01*
X104140000Y-78390000D02*
X104140000Y-79640000D01*
X107500000Y-82800000D02*
X107500000Y-82300000D01*
X104440000Y-81300000D02*
X105050000Y-81300000D01*
X118560000Y-83410000D02*
X118560000Y-78690000D01*
X118560000Y-81300000D02*
X117950000Y-81300000D01*
X105900000Y-78490000D02*
X105900000Y-78690000D01*
X106200000Y-78490000D02*
X105900000Y-78490000D01*
X111400000Y-82800000D02*
X111400000Y-82300000D01*
X113600000Y-82300000D02*
X113600000Y-82800000D01*
X113400000Y-82300000D02*
X113600000Y-82300000D01*
X117950000Y-79300000D02*
X116000000Y-79300000D01*
X109400000Y-82300000D02*
X109600000Y-82300000D01*
X116000000Y-79300000D02*
X116000000Y-78690000D01*
X115400000Y-82300000D02*
X115600000Y-82300000D01*
X105390000Y-78390000D02*
X104140000Y-78390000D01*
X105050000Y-79300000D02*
X105050000Y-82800000D01*
X115600000Y-82300000D02*
X115600000Y-82800000D01*
X109500000Y-82800000D02*
X109500000Y-82300000D01*
X105050000Y-82800000D02*
X117950000Y-82800000D01*
X104440000Y-83410000D02*
X118560000Y-83410000D01*
X107400000Y-82800000D02*
X107400000Y-82300000D01*
X111400000Y-82300000D02*
X111600000Y-82300000D01*
X104440000Y-80000000D02*
X105050000Y-80000000D01*
X115400000Y-82800000D02*
X115400000Y-82300000D01*
X106200000Y-78690000D02*
X106200000Y-78490000D01*
X111500000Y-82800000D02*
X111500000Y-82300000D01*
X118560000Y-78690000D02*
X104440000Y-78690000D01*
X109400000Y-82800000D02*
X109400000Y-82300000D01*
X109600000Y-82300000D02*
X109600000Y-82800000D01*
X104440000Y-78690000D02*
X104440000Y-83410000D01*
X111600000Y-82300000D02*
X111600000Y-82800000D01*
X113400000Y-82800000D02*
X113400000Y-82300000D01*
X115500000Y-82800000D02*
X115500000Y-82300000D01*
%TO.C,K1*%
X92750000Y-104100000D02*
X92250000Y-104100000D01*
X96360000Y-103500000D02*
X95750000Y-103500000D01*
X92250000Y-106000000D02*
X92750000Y-106000000D01*
X96560000Y-102400000D02*
X96360000Y-102400000D01*
X92250000Y-104000000D02*
X92750000Y-104000000D01*
X96360000Y-109060000D02*
X96360000Y-100940000D01*
X92250000Y-108450000D02*
X95750000Y-108450000D01*
X93750000Y-100940000D02*
X93750000Y-101550000D01*
X91640000Y-109060000D02*
X96360000Y-109060000D01*
X96560000Y-102700000D02*
X96560000Y-102400000D01*
X95050000Y-100940000D02*
X95050000Y-101550000D01*
X92750000Y-105900000D02*
X92750000Y-106100000D01*
X92250000Y-101550000D02*
X92250000Y-108450000D01*
X92250000Y-105900000D02*
X92750000Y-105900000D01*
X96360000Y-100940000D02*
X91640000Y-100940000D01*
X95750000Y-101550000D02*
X92250000Y-101550000D01*
X91640000Y-100940000D02*
X91640000Y-109060000D01*
X95750000Y-106500000D02*
X96360000Y-106500000D01*
X96460000Y-102700000D02*
X96460000Y-102400000D01*
X95750000Y-103500000D02*
X95750000Y-101550000D01*
X95750000Y-108450000D02*
X95750000Y-106500000D01*
X92250000Y-103900000D02*
X92750000Y-103900000D01*
X96660000Y-100640000D02*
X95410000Y-100640000D01*
X92750000Y-103900000D02*
X92750000Y-104100000D01*
X96660000Y-101890000D02*
X96660000Y-100640000D01*
X95050000Y-109060000D02*
X95050000Y-108450000D01*
X96360000Y-102700000D02*
X96560000Y-102700000D01*
X93750000Y-109060000D02*
X93750000Y-108450000D01*
X92750000Y-106100000D02*
X92250000Y-106100000D01*
%TO.C,P110*%
X116985000Y-74760000D02*
X116985000Y-76360000D01*
X107815000Y-76360000D02*
X107815000Y-77300000D01*
X116985000Y-76360000D02*
X115185000Y-76360000D01*
X107285000Y-71890000D02*
X115715000Y-71890000D01*
X106015000Y-76360000D02*
X107815000Y-76360000D01*
X106015000Y-74760000D02*
X106015000Y-76360000D01*
%TO.C,J1*%
X123660000Y-71890000D02*
X128340000Y-71890000D01*
X129610000Y-76360000D02*
X127810000Y-76360000D01*
X129610000Y-74760000D02*
X129610000Y-76360000D01*
X122390000Y-76360000D02*
X124190000Y-76360000D01*
X122390000Y-74760000D02*
X122390000Y-76360000D01*
X124190000Y-76360000D02*
X124190000Y-77300000D01*
%TD*%
M02*
