%TF.GenerationSoftware,KiCad,Pcbnew,(5.99.0-9885-g7a8abcadd2)*%
%TF.CreationDate,2021-03-24T01:14:47-05:00*%
%TF.ProjectId,24_control_board,32345f63-6f6e-4747-926f-6c5f626f6172,rev?*%
%TF.SameCoordinates,Original*%
%TF.FileFunction,Soldermask,Top*%
%TF.FilePolarity,Negative*%
%FSLAX46Y46*%
G04 Gerber Fmt 4.6, Leading zero omitted, Abs format (unit mm)*
G04 Created by KiCad (PCBNEW (5.99.0-9885-g7a8abcadd2)) date 2021-03-24 01:14:47*
%MOMM*%
%LPD*%
G01*
G04 APERTURE LIST*
G04 Aperture macros list*
%AMRoundRect*
0 Rectangle with rounded corners*
0 $1 Rounding radius*
0 $2 $3 $4 $5 $6 $7 $8 $9 X,Y pos of 4 corners*
0 Add a 4 corners polygon primitive as box body*
4,1,4,$2,$3,$4,$5,$6,$7,$8,$9,$2,$3,0*
0 Add four circle primitives for the rounded corners*
1,1,$1+$1,$2,$3*
1,1,$1+$1,$4,$5*
1,1,$1+$1,$6,$7*
1,1,$1+$1,$8,$9*
0 Add four rect primitives between the rounded corners*
20,1,$1+$1,$2,$3,$4,$5,0*
20,1,$1+$1,$4,$5,$6,$7,0*
20,1,$1+$1,$6,$7,$8,$9,0*
20,1,$1+$1,$8,$9,$2,$3,0*%
G04 Aperture macros list end*
%ADD10C,0.150000*%
%ADD11RoundRect,0.150000X0.300000X-0.150000X0.300000X0.150000X-0.300000X0.150000X-0.300000X-0.150000X0*%
%ADD12R,1.700000X1.700000*%
%ADD13O,1.700000X1.700000*%
%ADD14RoundRect,0.250000X-0.350000X-0.625000X0.350000X-0.625000X0.350000X0.625000X-0.350000X0.625000X0*%
%ADD15O,1.200000X1.750000*%
%ADD16RoundRect,0.150000X-0.175000X-0.150000X0.175000X-0.150000X0.175000X0.150000X-0.175000X0.150000X0*%
%ADD17RoundRect,0.225000X0.225000X-0.250000X0.225000X0.250000X-0.225000X0.250000X-0.225000X-0.250000X0*%
%ADD18RoundRect,0.250000X0.625000X-0.350000X0.625000X0.350000X-0.625000X0.350000X-0.625000X-0.350000X0*%
%ADD19O,1.750000X1.200000*%
%ADD20C,3.200000*%
%ADD21RoundRect,0.150000X-0.150000X-0.700000X0.150000X-0.700000X0.150000X0.700000X-0.150000X0.700000X0*%
%ADD22RoundRect,0.250000X-0.250000X-1.150000X0.250000X-1.150000X0.250000X1.150000X-0.250000X1.150000X0*%
%ADD23RoundRect,0.150000X-0.625000X0.150000X-0.625000X-0.150000X0.625000X-0.150000X0.625000X0.150000X0*%
%ADD24RoundRect,0.250000X-0.650000X0.350000X-0.650000X-0.350000X0.650000X-0.350000X0.650000X0.350000X0*%
%ADD25R,1.700000X0.900000*%
%ADD26RoundRect,0.250000X-0.625000X0.350000X-0.625000X-0.350000X0.625000X-0.350000X0.625000X0.350000X0*%
%ADD27C,0.650000*%
%ADD28O,1.000000X2.100000*%
%ADD29O,1.000000X1.600000*%
G04 APERTURE END LIST*
D10*
%TO.C,JP101*%
X161950000Y-79800000D02*
X162050000Y-79800000D01*
X162050000Y-79800000D02*
X162050000Y-80200000D01*
X162050000Y-80200000D02*
X161950000Y-80200000D01*
X161950000Y-80200000D02*
X161950000Y-79800000D01*
G36*
X162050000Y-80200000D02*
G01*
X161950000Y-80200000D01*
X161950000Y-79800000D01*
X162050000Y-79800000D01*
X162050000Y-80200000D01*
G37*
X162050000Y-80200000D02*
X161950000Y-80200000D01*
X161950000Y-79800000D01*
X162050000Y-79800000D01*
X162050000Y-80200000D01*
%TO.C,JP102*%
X106950000Y-87875000D02*
X106950000Y-87775000D01*
X106950000Y-87775000D02*
X107450000Y-87775000D01*
X107450000Y-87775000D02*
X107450000Y-87875000D01*
X107450000Y-87875000D02*
X106950000Y-87875000D01*
G36*
X107450000Y-87875000D02*
G01*
X106950000Y-87875000D01*
X106950000Y-87775000D01*
X107450000Y-87775000D01*
X107450000Y-87875000D01*
G37*
X107450000Y-87875000D02*
X106950000Y-87875000D01*
X106950000Y-87775000D01*
X107450000Y-87775000D01*
X107450000Y-87875000D01*
X106950000Y-89025000D02*
X106950000Y-88925000D01*
X106950000Y-88925000D02*
X107450000Y-88925000D01*
X107450000Y-88925000D02*
X107450000Y-89025000D01*
X107450000Y-89025000D02*
X106950000Y-89025000D01*
G36*
X107450000Y-89025000D02*
G01*
X106950000Y-89025000D01*
X106950000Y-88925000D01*
X107450000Y-88925000D01*
X107450000Y-89025000D01*
G37*
X107450000Y-89025000D02*
X106950000Y-89025000D01*
X106950000Y-88925000D01*
X107450000Y-88925000D01*
X107450000Y-89025000D01*
%TD*%
D11*
%TO.C,D501*%
X146000000Y-116350000D03*
X146000000Y-114850000D03*
%TD*%
%TO.C,D502*%
X142250000Y-116350000D03*
X142250000Y-114850000D03*
%TD*%
%TO.C,D503*%
X140250000Y-116350000D03*
X140250000Y-114850000D03*
%TD*%
D12*
%TO.C,J501*%
X158000000Y-92000000D03*
D13*
X160540000Y-92000000D03*
X163080000Y-92000000D03*
X165620000Y-92000000D03*
X168160000Y-92000000D03*
%TD*%
D14*
%TO.C,J601*%
X95000000Y-73500000D03*
D15*
X97000000Y-73500000D03*
%TD*%
D16*
%TO.C,JP101*%
X161575000Y-80000000D03*
X162425000Y-80000000D03*
%TD*%
D17*
%TO.C,JP102*%
X107200000Y-89550000D03*
X107200000Y-88400000D03*
X107200000Y-87250000D03*
%TD*%
D18*
%TO.C,K101*%
X166500000Y-87000000D03*
D19*
X166500000Y-85000000D03*
X166500000Y-83000000D03*
%TD*%
D20*
%TO.C,MK101*%
X96000000Y-115000000D03*
%TD*%
%TO.C,MK102*%
X166000000Y-115000000D03*
%TD*%
%TO.C,MK103*%
X166000000Y-75000000D03*
%TD*%
%TO.C,MK104*%
X96000000Y-95000000D03*
%TD*%
D21*
%TO.C,P101*%
X146625000Y-76450000D03*
X147875000Y-76450000D03*
X149125000Y-76450000D03*
X150375000Y-76450000D03*
X151625000Y-76450000D03*
X152875000Y-76450000D03*
X154125000Y-76450000D03*
X155375000Y-76450000D03*
D22*
X144775000Y-73100000D03*
X157225000Y-73100000D03*
%TD*%
D21*
%TO.C,P102*%
X135125000Y-76450000D03*
X136375000Y-76450000D03*
X137625000Y-76450000D03*
X138875000Y-76450000D03*
D22*
X133275000Y-73100000D03*
X140725000Y-73100000D03*
%TD*%
D23*
%TO.C,P103*%
X154675000Y-83500000D03*
X154675000Y-84500000D03*
X154675000Y-85500000D03*
X154675000Y-86500000D03*
D24*
X157200000Y-87800000D03*
X157200000Y-82200000D03*
%TD*%
D23*
%TO.C,P501*%
X154675000Y-99000000D03*
X154675000Y-100000000D03*
X154675000Y-101000000D03*
X154675000Y-102000000D03*
D24*
X157200000Y-103300000D03*
X157200000Y-97700000D03*
%TD*%
D25*
%TO.C,SW501*%
X137000000Y-116700000D03*
X137000000Y-113300000D03*
%TD*%
D14*
%TO.C,J602*%
X95000000Y-85500000D03*
D15*
X97000000Y-85500000D03*
%TD*%
D14*
%TO.C,J603*%
X95000000Y-79500000D03*
D15*
X97000000Y-79500000D03*
%TD*%
D14*
%TO.C,P104*%
X106500000Y-80500000D03*
D15*
X108500000Y-80500000D03*
X110500000Y-80500000D03*
X112500000Y-80500000D03*
X114500000Y-80500000D03*
X116500000Y-80500000D03*
%TD*%
D26*
%TO.C,K1*%
X94550000Y-103000000D03*
D19*
X94550000Y-105000000D03*
X94550000Y-107000000D03*
%TD*%
D21*
%TO.C,P110*%
X108375000Y-76450000D03*
X109625000Y-76450000D03*
X110875000Y-76450000D03*
X112125000Y-76450000D03*
X113375000Y-76450000D03*
X114625000Y-76450000D03*
D22*
X116475000Y-73100000D03*
X106525000Y-73100000D03*
%TD*%
D21*
%TO.C,J1*%
X124750000Y-76450000D03*
X126000000Y-76450000D03*
X127250000Y-76450000D03*
D22*
X129100000Y-73100000D03*
X122900000Y-73100000D03*
%TD*%
D27*
%TO.C,J401*%
X156890000Y-113400000D03*
X151110000Y-113400000D03*
D28*
X158320000Y-112870000D03*
X149680000Y-112870000D03*
D29*
X158320000Y-117050000D03*
X149680000Y-117050000D03*
%TD*%
D12*
%TO.C,J901*%
X106000000Y-115000000D03*
D13*
X106000000Y-112460000D03*
X108540000Y-115000000D03*
X108540000Y-112460000D03*
X111080000Y-115000000D03*
X111080000Y-112460000D03*
X113620000Y-115000000D03*
X113620000Y-112460000D03*
X116160000Y-115000000D03*
X116160000Y-112460000D03*
X118700000Y-115000000D03*
X118700000Y-112460000D03*
X121240000Y-115000000D03*
X121240000Y-112460000D03*
X123780000Y-115000000D03*
X123780000Y-112460000D03*
X126320000Y-115000000D03*
X126320000Y-112460000D03*
X128860000Y-115000000D03*
X128860000Y-112460000D03*
%TD*%
M02*
