%TF.GenerationSoftware,KiCad,Pcbnew,(5.99.0-9885-g7a8abcadd2)*%
%TF.CreationDate,2021-03-24T01:14:47-05:00*%
%TF.ProjectId,24_control_board,32345f63-6f6e-4747-926f-6c5f626f6172,rev?*%
%TF.SameCoordinates,Original*%
%TF.FileFunction,Legend,Bot*%
%TF.FilePolarity,Positive*%
%FSLAX46Y46*%
G04 Gerber Fmt 4.6, Leading zero omitted, Abs format (unit mm)*
G04 Created by KiCad (PCBNEW (5.99.0-9885-g7a8abcadd2)) date 2021-03-24 01:14:47*
%MOMM*%
%LPD*%
G01*
G04 APERTURE LIST*
%ADD10C,0.120000*%
%ADD11C,0.150000*%
%ADD12C,0.149860*%
%ADD13C,0.130000*%
%ADD14C,0.050000*%
%ADD15C,0.400000*%
%ADD16C,0.200000*%
%ADD17C,0.100000*%
%ADD18C,0.127000*%
G04 APERTURE END LIST*
D10*
X157000000Y-81500000D02*
X156000000Y-83000000D01*
D11*
X159595238Y-80952380D02*
X159595238Y-79952380D01*
X159119047Y-80952380D02*
X159119047Y-79952380D01*
X158785714Y-80666666D01*
X158452380Y-79952380D01*
X158452380Y-80952380D01*
X157976190Y-79952380D02*
X157976190Y-80761904D01*
X157928571Y-80857142D01*
X157880952Y-80904761D01*
X157785714Y-80952380D01*
X157595238Y-80952380D01*
X157500000Y-80904761D01*
X157452380Y-80857142D01*
X157404761Y-80761904D01*
X157404761Y-79952380D01*
X123542857Y-117342857D02*
X123542857Y-118200000D01*
X123600000Y-118371428D01*
X123714285Y-118485714D01*
X123885714Y-118542857D01*
X124000000Y-118542857D01*
X122400000Y-118542857D02*
X122971428Y-118542857D01*
X122971428Y-117342857D01*
X121314285Y-118428571D02*
X121371428Y-118485714D01*
X121542857Y-118542857D01*
X121657142Y-118542857D01*
X121828571Y-118485714D01*
X121942857Y-118371428D01*
X122000000Y-118257142D01*
X122057142Y-118028571D01*
X122057142Y-117857142D01*
X122000000Y-117628571D01*
X121942857Y-117514285D01*
X121828571Y-117400000D01*
X121657142Y-117342857D01*
X121542857Y-117342857D01*
X121371428Y-117400000D01*
X121314285Y-117457142D01*
X120457142Y-117342857D02*
X120457142Y-118200000D01*
X120514285Y-118371428D01*
X120628571Y-118485714D01*
X120800000Y-118542857D01*
X120914285Y-118542857D01*
X119314285Y-118542857D02*
X119885714Y-118542857D01*
X119885714Y-117342857D01*
X118228571Y-118428571D02*
X118285714Y-118485714D01*
X118457142Y-118542857D01*
X118571428Y-118542857D01*
X118742857Y-118485714D01*
X118857142Y-118371428D01*
X118914285Y-118257142D01*
X118971428Y-118028571D01*
X118971428Y-117857142D01*
X118914285Y-117628571D01*
X118857142Y-117514285D01*
X118742857Y-117400000D01*
X118571428Y-117342857D01*
X118457142Y-117342857D01*
X118285714Y-117400000D01*
X118228571Y-117457142D01*
X117371428Y-117342857D02*
X117371428Y-118200000D01*
X117428571Y-118371428D01*
X117542857Y-118485714D01*
X117714285Y-118542857D01*
X117828571Y-118542857D01*
X116228571Y-118542857D02*
X116800000Y-118542857D01*
X116800000Y-117342857D01*
X115142857Y-118428571D02*
X115200000Y-118485714D01*
X115371428Y-118542857D01*
X115485714Y-118542857D01*
X115657142Y-118485714D01*
X115771428Y-118371428D01*
X115828571Y-118257142D01*
X115885714Y-118028571D01*
X115885714Y-117857142D01*
X115828571Y-117628571D01*
X115771428Y-117514285D01*
X115657142Y-117400000D01*
X115485714Y-117342857D01*
X115371428Y-117342857D01*
X115200000Y-117400000D01*
X115142857Y-117457142D01*
X114285714Y-117342857D02*
X114285714Y-118200000D01*
X114342857Y-118371428D01*
X114457142Y-118485714D01*
X114628571Y-118542857D01*
X114742857Y-118542857D01*
X113142857Y-118542857D02*
X113714285Y-118542857D01*
X113714285Y-117342857D01*
X112057142Y-118428571D02*
X112114285Y-118485714D01*
X112285714Y-118542857D01*
X112400000Y-118542857D01*
X112571428Y-118485714D01*
X112685714Y-118371428D01*
X112742857Y-118257142D01*
X112800000Y-118028571D01*
X112800000Y-117857142D01*
X112742857Y-117628571D01*
X112685714Y-117514285D01*
X112571428Y-117400000D01*
X112400000Y-117342857D01*
X112285714Y-117342857D01*
X112114285Y-117400000D01*
X112057142Y-117457142D01*
%TO.C,D1*%
X114002380Y-104261904D02*
X113002380Y-104261904D01*
X113002380Y-104500000D01*
X113050000Y-104642857D01*
X113145238Y-104738095D01*
X113240476Y-104785714D01*
X113430952Y-104833333D01*
X113573809Y-104833333D01*
X113764285Y-104785714D01*
X113859523Y-104738095D01*
X113954761Y-104642857D01*
X114002380Y-104500000D01*
X114002380Y-104261904D01*
X114002380Y-105785714D02*
X114002380Y-105214285D01*
X114002380Y-105500000D02*
X113002380Y-105500000D01*
X113145238Y-105404761D01*
X113240476Y-105309523D01*
X113288095Y-105214285D01*
%TO.C,C206*%
X117119047Y-100007142D02*
X117166666Y-100054761D01*
X117309523Y-100102380D01*
X117404761Y-100102380D01*
X117547619Y-100054761D01*
X117642857Y-99959523D01*
X117690476Y-99864285D01*
X117738095Y-99673809D01*
X117738095Y-99530952D01*
X117690476Y-99340476D01*
X117642857Y-99245238D01*
X117547619Y-99150000D01*
X117404761Y-99102380D01*
X117309523Y-99102380D01*
X117166666Y-99150000D01*
X117119047Y-99197619D01*
X116738095Y-99197619D02*
X116690476Y-99150000D01*
X116595238Y-99102380D01*
X116357142Y-99102380D01*
X116261904Y-99150000D01*
X116214285Y-99197619D01*
X116166666Y-99292857D01*
X116166666Y-99388095D01*
X116214285Y-99530952D01*
X116785714Y-100102380D01*
X116166666Y-100102380D01*
X115547619Y-99102380D02*
X115452380Y-99102380D01*
X115357142Y-99150000D01*
X115309523Y-99197619D01*
X115261904Y-99292857D01*
X115214285Y-99483333D01*
X115214285Y-99721428D01*
X115261904Y-99911904D01*
X115309523Y-100007142D01*
X115357142Y-100054761D01*
X115452380Y-100102380D01*
X115547619Y-100102380D01*
X115642857Y-100054761D01*
X115690476Y-100007142D01*
X115738095Y-99911904D01*
X115785714Y-99721428D01*
X115785714Y-99483333D01*
X115738095Y-99292857D01*
X115690476Y-99197619D01*
X115642857Y-99150000D01*
X115547619Y-99102380D01*
X114357142Y-99102380D02*
X114547619Y-99102380D01*
X114642857Y-99150000D01*
X114690476Y-99197619D01*
X114785714Y-99340476D01*
X114833333Y-99530952D01*
X114833333Y-99911904D01*
X114785714Y-100007142D01*
X114738095Y-100054761D01*
X114642857Y-100102380D01*
X114452380Y-100102380D01*
X114357142Y-100054761D01*
X114309523Y-100007142D01*
X114261904Y-99911904D01*
X114261904Y-99673809D01*
X114309523Y-99578571D01*
X114357142Y-99530952D01*
X114452380Y-99483333D01*
X114642857Y-99483333D01*
X114738095Y-99530952D01*
X114785714Y-99578571D01*
X114833333Y-99673809D01*
%TO.C,C209*%
X106619047Y-90007142D02*
X106666666Y-90054761D01*
X106809523Y-90102380D01*
X106904761Y-90102380D01*
X107047619Y-90054761D01*
X107142857Y-89959523D01*
X107190476Y-89864285D01*
X107238095Y-89673809D01*
X107238095Y-89530952D01*
X107190476Y-89340476D01*
X107142857Y-89245238D01*
X107047619Y-89150000D01*
X106904761Y-89102380D01*
X106809523Y-89102380D01*
X106666666Y-89150000D01*
X106619047Y-89197619D01*
X106238095Y-89197619D02*
X106190476Y-89150000D01*
X106095238Y-89102380D01*
X105857142Y-89102380D01*
X105761904Y-89150000D01*
X105714285Y-89197619D01*
X105666666Y-89292857D01*
X105666666Y-89388095D01*
X105714285Y-89530952D01*
X106285714Y-90102380D01*
X105666666Y-90102380D01*
X105047619Y-89102380D02*
X104952380Y-89102380D01*
X104857142Y-89150000D01*
X104809523Y-89197619D01*
X104761904Y-89292857D01*
X104714285Y-89483333D01*
X104714285Y-89721428D01*
X104761904Y-89911904D01*
X104809523Y-90007142D01*
X104857142Y-90054761D01*
X104952380Y-90102380D01*
X105047619Y-90102380D01*
X105142857Y-90054761D01*
X105190476Y-90007142D01*
X105238095Y-89911904D01*
X105285714Y-89721428D01*
X105285714Y-89483333D01*
X105238095Y-89292857D01*
X105190476Y-89197619D01*
X105142857Y-89150000D01*
X105047619Y-89102380D01*
X104238095Y-90102380D02*
X104047619Y-90102380D01*
X103952380Y-90054761D01*
X103904761Y-90007142D01*
X103809523Y-89864285D01*
X103761904Y-89673809D01*
X103761904Y-89292857D01*
X103809523Y-89197619D01*
X103857142Y-89150000D01*
X103952380Y-89102380D01*
X104142857Y-89102380D01*
X104238095Y-89150000D01*
X104285714Y-89197619D01*
X104333333Y-89292857D01*
X104333333Y-89530952D01*
X104285714Y-89626190D01*
X104238095Y-89673809D01*
X104142857Y-89721428D01*
X103952380Y-89721428D01*
X103857142Y-89673809D01*
X103809523Y-89626190D01*
X103761904Y-89530952D01*
%TO.C,D102*%
X155452380Y-77309523D02*
X154452380Y-77309523D01*
X154452380Y-77547619D01*
X154500000Y-77690476D01*
X154595238Y-77785714D01*
X154690476Y-77833333D01*
X154880952Y-77880952D01*
X155023809Y-77880952D01*
X155214285Y-77833333D01*
X155309523Y-77785714D01*
X155404761Y-77690476D01*
X155452380Y-77547619D01*
X155452380Y-77309523D01*
X155452380Y-78833333D02*
X155452380Y-78261904D01*
X155452380Y-78547619D02*
X154452380Y-78547619D01*
X154595238Y-78452380D01*
X154690476Y-78357142D01*
X154738095Y-78261904D01*
X154452380Y-79452380D02*
X154452380Y-79547619D01*
X154500000Y-79642857D01*
X154547619Y-79690476D01*
X154642857Y-79738095D01*
X154833333Y-79785714D01*
X155071428Y-79785714D01*
X155261904Y-79738095D01*
X155357142Y-79690476D01*
X155404761Y-79642857D01*
X155452380Y-79547619D01*
X155452380Y-79452380D01*
X155404761Y-79357142D01*
X155357142Y-79309523D01*
X155261904Y-79261904D01*
X155071428Y-79214285D01*
X154833333Y-79214285D01*
X154642857Y-79261904D01*
X154547619Y-79309523D01*
X154500000Y-79357142D01*
X154452380Y-79452380D01*
X154547619Y-80166666D02*
X154500000Y-80214285D01*
X154452380Y-80309523D01*
X154452380Y-80547619D01*
X154500000Y-80642857D01*
X154547619Y-80690476D01*
X154642857Y-80738095D01*
X154738095Y-80738095D01*
X154880952Y-80690476D01*
X155452380Y-80119047D01*
X155452380Y-80738095D01*
%TO.C,D103*%
X112440476Y-86952380D02*
X112440476Y-85952380D01*
X112202380Y-85952380D01*
X112059523Y-86000000D01*
X111964285Y-86095238D01*
X111916666Y-86190476D01*
X111869047Y-86380952D01*
X111869047Y-86523809D01*
X111916666Y-86714285D01*
X111964285Y-86809523D01*
X112059523Y-86904761D01*
X112202380Y-86952380D01*
X112440476Y-86952380D01*
X110916666Y-86952380D02*
X111488095Y-86952380D01*
X111202380Y-86952380D02*
X111202380Y-85952380D01*
X111297619Y-86095238D01*
X111392857Y-86190476D01*
X111488095Y-86238095D01*
X110297619Y-85952380D02*
X110202380Y-85952380D01*
X110107142Y-86000000D01*
X110059523Y-86047619D01*
X110011904Y-86142857D01*
X109964285Y-86333333D01*
X109964285Y-86571428D01*
X110011904Y-86761904D01*
X110059523Y-86857142D01*
X110107142Y-86904761D01*
X110202380Y-86952380D01*
X110297619Y-86952380D01*
X110392857Y-86904761D01*
X110440476Y-86857142D01*
X110488095Y-86761904D01*
X110535714Y-86571428D01*
X110535714Y-86333333D01*
X110488095Y-86142857D01*
X110440476Y-86047619D01*
X110392857Y-86000000D01*
X110297619Y-85952380D01*
X109630952Y-85952380D02*
X109011904Y-85952380D01*
X109345238Y-86333333D01*
X109202380Y-86333333D01*
X109107142Y-86380952D01*
X109059523Y-86428571D01*
X109011904Y-86523809D01*
X109011904Y-86761904D01*
X109059523Y-86857142D01*
X109107142Y-86904761D01*
X109202380Y-86952380D01*
X109488095Y-86952380D01*
X109583333Y-86904761D01*
X109630952Y-86857142D01*
%TO.C,D201*%
X108602380Y-94809523D02*
X107602380Y-94809523D01*
X107602380Y-95047619D01*
X107650000Y-95190476D01*
X107745238Y-95285714D01*
X107840476Y-95333333D01*
X108030952Y-95380952D01*
X108173809Y-95380952D01*
X108364285Y-95333333D01*
X108459523Y-95285714D01*
X108554761Y-95190476D01*
X108602380Y-95047619D01*
X108602380Y-94809523D01*
X107697619Y-95761904D02*
X107650000Y-95809523D01*
X107602380Y-95904761D01*
X107602380Y-96142857D01*
X107650000Y-96238095D01*
X107697619Y-96285714D01*
X107792857Y-96333333D01*
X107888095Y-96333333D01*
X108030952Y-96285714D01*
X108602380Y-95714285D01*
X108602380Y-96333333D01*
X107602380Y-96952380D02*
X107602380Y-97047619D01*
X107650000Y-97142857D01*
X107697619Y-97190476D01*
X107792857Y-97238095D01*
X107983333Y-97285714D01*
X108221428Y-97285714D01*
X108411904Y-97238095D01*
X108507142Y-97190476D01*
X108554761Y-97142857D01*
X108602380Y-97047619D01*
X108602380Y-96952380D01*
X108554761Y-96857142D01*
X108507142Y-96809523D01*
X108411904Y-96761904D01*
X108221428Y-96714285D01*
X107983333Y-96714285D01*
X107792857Y-96761904D01*
X107697619Y-96809523D01*
X107650000Y-96857142D01*
X107602380Y-96952380D01*
X108602380Y-98238095D02*
X108602380Y-97666666D01*
X108602380Y-97952380D02*
X107602380Y-97952380D01*
X107745238Y-97857142D01*
X107840476Y-97761904D01*
X107888095Y-97666666D01*
%TO.C,D504*%
X139452380Y-77559523D02*
X138452380Y-77559523D01*
X138452380Y-77797619D01*
X138500000Y-77940476D01*
X138595238Y-78035714D01*
X138690476Y-78083333D01*
X138880952Y-78130952D01*
X139023809Y-78130952D01*
X139214285Y-78083333D01*
X139309523Y-78035714D01*
X139404761Y-77940476D01*
X139452380Y-77797619D01*
X139452380Y-77559523D01*
X138452380Y-79035714D02*
X138452380Y-78559523D01*
X138928571Y-78511904D01*
X138880952Y-78559523D01*
X138833333Y-78654761D01*
X138833333Y-78892857D01*
X138880952Y-78988095D01*
X138928571Y-79035714D01*
X139023809Y-79083333D01*
X139261904Y-79083333D01*
X139357142Y-79035714D01*
X139404761Y-78988095D01*
X139452380Y-78892857D01*
X139452380Y-78654761D01*
X139404761Y-78559523D01*
X139357142Y-78511904D01*
X138452380Y-79702380D02*
X138452380Y-79797619D01*
X138500000Y-79892857D01*
X138547619Y-79940476D01*
X138642857Y-79988095D01*
X138833333Y-80035714D01*
X139071428Y-80035714D01*
X139261904Y-79988095D01*
X139357142Y-79940476D01*
X139404761Y-79892857D01*
X139452380Y-79797619D01*
X139452380Y-79702380D01*
X139404761Y-79607142D01*
X139357142Y-79559523D01*
X139261904Y-79511904D01*
X139071428Y-79464285D01*
X138833333Y-79464285D01*
X138642857Y-79511904D01*
X138547619Y-79559523D01*
X138500000Y-79607142D01*
X138452380Y-79702380D01*
X138785714Y-80892857D02*
X139452380Y-80892857D01*
X138404761Y-80654761D02*
X139119047Y-80416666D01*
X139119047Y-81035714D01*
%TO.C,D701*%
X123452380Y-77309523D02*
X122452380Y-77309523D01*
X122452380Y-77547619D01*
X122500000Y-77690476D01*
X122595238Y-77785714D01*
X122690476Y-77833333D01*
X122880952Y-77880952D01*
X123023809Y-77880952D01*
X123214285Y-77833333D01*
X123309523Y-77785714D01*
X123404761Y-77690476D01*
X123452380Y-77547619D01*
X123452380Y-77309523D01*
X122452380Y-78214285D02*
X122452380Y-78880952D01*
X123452380Y-78452380D01*
X122452380Y-79452380D02*
X122452380Y-79547619D01*
X122500000Y-79642857D01*
X122547619Y-79690476D01*
X122642857Y-79738095D01*
X122833333Y-79785714D01*
X123071428Y-79785714D01*
X123261904Y-79738095D01*
X123357142Y-79690476D01*
X123404761Y-79642857D01*
X123452380Y-79547619D01*
X123452380Y-79452380D01*
X123404761Y-79357142D01*
X123357142Y-79309523D01*
X123261904Y-79261904D01*
X123071428Y-79214285D01*
X122833333Y-79214285D01*
X122642857Y-79261904D01*
X122547619Y-79309523D01*
X122500000Y-79357142D01*
X122452380Y-79452380D01*
X123452380Y-80738095D02*
X123452380Y-80166666D01*
X123452380Y-80452380D02*
X122452380Y-80452380D01*
X122595238Y-80357142D01*
X122690476Y-80261904D01*
X122738095Y-80166666D01*
%TO.C,L201*%
X117119047Y-90952380D02*
X117595238Y-90952380D01*
X117595238Y-89952380D01*
X116833333Y-90047619D02*
X116785714Y-90000000D01*
X116690476Y-89952380D01*
X116452380Y-89952380D01*
X116357142Y-90000000D01*
X116309523Y-90047619D01*
X116261904Y-90142857D01*
X116261904Y-90238095D01*
X116309523Y-90380952D01*
X116880952Y-90952380D01*
X116261904Y-90952380D01*
X115642857Y-89952380D02*
X115547619Y-89952380D01*
X115452380Y-90000000D01*
X115404761Y-90047619D01*
X115357142Y-90142857D01*
X115309523Y-90333333D01*
X115309523Y-90571428D01*
X115357142Y-90761904D01*
X115404761Y-90857142D01*
X115452380Y-90904761D01*
X115547619Y-90952380D01*
X115642857Y-90952380D01*
X115738095Y-90904761D01*
X115785714Y-90857142D01*
X115833333Y-90761904D01*
X115880952Y-90571428D01*
X115880952Y-90333333D01*
X115833333Y-90142857D01*
X115785714Y-90047619D01*
X115738095Y-90000000D01*
X115642857Y-89952380D01*
X114357142Y-90952380D02*
X114928571Y-90952380D01*
X114642857Y-90952380D02*
X114642857Y-89952380D01*
X114738095Y-90095238D01*
X114833333Y-90190476D01*
X114928571Y-90238095D01*
%TO.C,L202*%
X103452380Y-95880952D02*
X103452380Y-95404761D01*
X102452380Y-95404761D01*
X102547619Y-96166666D02*
X102500000Y-96214285D01*
X102452380Y-96309523D01*
X102452380Y-96547619D01*
X102500000Y-96642857D01*
X102547619Y-96690476D01*
X102642857Y-96738095D01*
X102738095Y-96738095D01*
X102880952Y-96690476D01*
X103452380Y-96119047D01*
X103452380Y-96738095D01*
X102452380Y-97357142D02*
X102452380Y-97452380D01*
X102500000Y-97547619D01*
X102547619Y-97595238D01*
X102642857Y-97642857D01*
X102833333Y-97690476D01*
X103071428Y-97690476D01*
X103261904Y-97642857D01*
X103357142Y-97595238D01*
X103404761Y-97547619D01*
X103452380Y-97452380D01*
X103452380Y-97357142D01*
X103404761Y-97261904D01*
X103357142Y-97214285D01*
X103261904Y-97166666D01*
X103071428Y-97119047D01*
X102833333Y-97119047D01*
X102642857Y-97166666D01*
X102547619Y-97214285D01*
X102500000Y-97261904D01*
X102452380Y-97357142D01*
X102547619Y-98071428D02*
X102500000Y-98119047D01*
X102452380Y-98214285D01*
X102452380Y-98452380D01*
X102500000Y-98547619D01*
X102547619Y-98595238D01*
X102642857Y-98642857D01*
X102738095Y-98642857D01*
X102880952Y-98595238D01*
X103452380Y-98023809D01*
X103452380Y-98642857D01*
%TO.C,Q601*%
X103047619Y-83547619D02*
X103142857Y-83500000D01*
X103238095Y-83404761D01*
X103380952Y-83261904D01*
X103476190Y-83214285D01*
X103571428Y-83214285D01*
X103523809Y-83452380D02*
X103619047Y-83404761D01*
X103714285Y-83309523D01*
X103761904Y-83119047D01*
X103761904Y-82785714D01*
X103714285Y-82595238D01*
X103619047Y-82500000D01*
X103523809Y-82452380D01*
X103333333Y-82452380D01*
X103238095Y-82500000D01*
X103142857Y-82595238D01*
X103095238Y-82785714D01*
X103095238Y-83119047D01*
X103142857Y-83309523D01*
X103238095Y-83404761D01*
X103333333Y-83452380D01*
X103523809Y-83452380D01*
X102238095Y-82452380D02*
X102428571Y-82452380D01*
X102523809Y-82500000D01*
X102571428Y-82547619D01*
X102666666Y-82690476D01*
X102714285Y-82880952D01*
X102714285Y-83261904D01*
X102666666Y-83357142D01*
X102619047Y-83404761D01*
X102523809Y-83452380D01*
X102333333Y-83452380D01*
X102238095Y-83404761D01*
X102190476Y-83357142D01*
X102142857Y-83261904D01*
X102142857Y-83023809D01*
X102190476Y-82928571D01*
X102238095Y-82880952D01*
X102333333Y-82833333D01*
X102523809Y-82833333D01*
X102619047Y-82880952D01*
X102666666Y-82928571D01*
X102714285Y-83023809D01*
X101523809Y-82452380D02*
X101428571Y-82452380D01*
X101333333Y-82500000D01*
X101285714Y-82547619D01*
X101238095Y-82642857D01*
X101190476Y-82833333D01*
X101190476Y-83071428D01*
X101238095Y-83261904D01*
X101285714Y-83357142D01*
X101333333Y-83404761D01*
X101428571Y-83452380D01*
X101523809Y-83452380D01*
X101619047Y-83404761D01*
X101666666Y-83357142D01*
X101714285Y-83261904D01*
X101761904Y-83071428D01*
X101761904Y-82833333D01*
X101714285Y-82642857D01*
X101666666Y-82547619D01*
X101619047Y-82500000D01*
X101523809Y-82452380D01*
X100238095Y-83452380D02*
X100809523Y-83452380D01*
X100523809Y-83452380D02*
X100523809Y-82452380D01*
X100619047Y-82595238D01*
X100714285Y-82690476D01*
X100809523Y-82738095D01*
%TO.C,Q602*%
X103047619Y-77557619D02*
X103142857Y-77510000D01*
X103238095Y-77414761D01*
X103380952Y-77271904D01*
X103476190Y-77224285D01*
X103571428Y-77224285D01*
X103523809Y-77462380D02*
X103619047Y-77414761D01*
X103714285Y-77319523D01*
X103761904Y-77129047D01*
X103761904Y-76795714D01*
X103714285Y-76605238D01*
X103619047Y-76510000D01*
X103523809Y-76462380D01*
X103333333Y-76462380D01*
X103238095Y-76510000D01*
X103142857Y-76605238D01*
X103095238Y-76795714D01*
X103095238Y-77129047D01*
X103142857Y-77319523D01*
X103238095Y-77414761D01*
X103333333Y-77462380D01*
X103523809Y-77462380D01*
X102238095Y-76462380D02*
X102428571Y-76462380D01*
X102523809Y-76510000D01*
X102571428Y-76557619D01*
X102666666Y-76700476D01*
X102714285Y-76890952D01*
X102714285Y-77271904D01*
X102666666Y-77367142D01*
X102619047Y-77414761D01*
X102523809Y-77462380D01*
X102333333Y-77462380D01*
X102238095Y-77414761D01*
X102190476Y-77367142D01*
X102142857Y-77271904D01*
X102142857Y-77033809D01*
X102190476Y-76938571D01*
X102238095Y-76890952D01*
X102333333Y-76843333D01*
X102523809Y-76843333D01*
X102619047Y-76890952D01*
X102666666Y-76938571D01*
X102714285Y-77033809D01*
X101523809Y-76462380D02*
X101428571Y-76462380D01*
X101333333Y-76510000D01*
X101285714Y-76557619D01*
X101238095Y-76652857D01*
X101190476Y-76843333D01*
X101190476Y-77081428D01*
X101238095Y-77271904D01*
X101285714Y-77367142D01*
X101333333Y-77414761D01*
X101428571Y-77462380D01*
X101523809Y-77462380D01*
X101619047Y-77414761D01*
X101666666Y-77367142D01*
X101714285Y-77271904D01*
X101761904Y-77081428D01*
X101761904Y-76843333D01*
X101714285Y-76652857D01*
X101666666Y-76557619D01*
X101619047Y-76510000D01*
X101523809Y-76462380D01*
X100809523Y-76557619D02*
X100761904Y-76510000D01*
X100666666Y-76462380D01*
X100428571Y-76462380D01*
X100333333Y-76510000D01*
X100285714Y-76557619D01*
X100238095Y-76652857D01*
X100238095Y-76748095D01*
X100285714Y-76890952D01*
X100857142Y-77462380D01*
X100238095Y-77462380D01*
%TO.C,Q1001*%
X125673809Y-98547619D02*
X125769047Y-98500000D01*
X125864285Y-98404761D01*
X126007142Y-98261904D01*
X126102380Y-98214285D01*
X126197619Y-98214285D01*
X126150000Y-98452380D02*
X126245238Y-98404761D01*
X126340476Y-98309523D01*
X126388095Y-98119047D01*
X126388095Y-97785714D01*
X126340476Y-97595238D01*
X126245238Y-97500000D01*
X126150000Y-97452380D01*
X125959523Y-97452380D01*
X125864285Y-97500000D01*
X125769047Y-97595238D01*
X125721428Y-97785714D01*
X125721428Y-98119047D01*
X125769047Y-98309523D01*
X125864285Y-98404761D01*
X125959523Y-98452380D01*
X126150000Y-98452380D01*
X124769047Y-98452380D02*
X125340476Y-98452380D01*
X125054761Y-98452380D02*
X125054761Y-97452380D01*
X125150000Y-97595238D01*
X125245238Y-97690476D01*
X125340476Y-97738095D01*
X124150000Y-97452380D02*
X124054761Y-97452380D01*
X123959523Y-97500000D01*
X123911904Y-97547619D01*
X123864285Y-97642857D01*
X123816666Y-97833333D01*
X123816666Y-98071428D01*
X123864285Y-98261904D01*
X123911904Y-98357142D01*
X123959523Y-98404761D01*
X124054761Y-98452380D01*
X124150000Y-98452380D01*
X124245238Y-98404761D01*
X124292857Y-98357142D01*
X124340476Y-98261904D01*
X124388095Y-98071428D01*
X124388095Y-97833333D01*
X124340476Y-97642857D01*
X124292857Y-97547619D01*
X124245238Y-97500000D01*
X124150000Y-97452380D01*
X123197619Y-97452380D02*
X123102380Y-97452380D01*
X123007142Y-97500000D01*
X122959523Y-97547619D01*
X122911904Y-97642857D01*
X122864285Y-97833333D01*
X122864285Y-98071428D01*
X122911904Y-98261904D01*
X122959523Y-98357142D01*
X123007142Y-98404761D01*
X123102380Y-98452380D01*
X123197619Y-98452380D01*
X123292857Y-98404761D01*
X123340476Y-98357142D01*
X123388095Y-98261904D01*
X123435714Y-98071428D01*
X123435714Y-97833333D01*
X123388095Y-97642857D01*
X123340476Y-97547619D01*
X123292857Y-97500000D01*
X123197619Y-97452380D01*
X121911904Y-98452380D02*
X122483333Y-98452380D01*
X122197619Y-98452380D02*
X122197619Y-97452380D01*
X122292857Y-97595238D01*
X122388095Y-97690476D01*
X122483333Y-97738095D01*
%TO.C,Q1002*%
X125673809Y-102547619D02*
X125769047Y-102500000D01*
X125864285Y-102404761D01*
X126007142Y-102261904D01*
X126102380Y-102214285D01*
X126197619Y-102214285D01*
X126150000Y-102452380D02*
X126245238Y-102404761D01*
X126340476Y-102309523D01*
X126388095Y-102119047D01*
X126388095Y-101785714D01*
X126340476Y-101595238D01*
X126245238Y-101500000D01*
X126150000Y-101452380D01*
X125959523Y-101452380D01*
X125864285Y-101500000D01*
X125769047Y-101595238D01*
X125721428Y-101785714D01*
X125721428Y-102119047D01*
X125769047Y-102309523D01*
X125864285Y-102404761D01*
X125959523Y-102452380D01*
X126150000Y-102452380D01*
X124769047Y-102452380D02*
X125340476Y-102452380D01*
X125054761Y-102452380D02*
X125054761Y-101452380D01*
X125150000Y-101595238D01*
X125245238Y-101690476D01*
X125340476Y-101738095D01*
X124150000Y-101452380D02*
X124054761Y-101452380D01*
X123959523Y-101500000D01*
X123911904Y-101547619D01*
X123864285Y-101642857D01*
X123816666Y-101833333D01*
X123816666Y-102071428D01*
X123864285Y-102261904D01*
X123911904Y-102357142D01*
X123959523Y-102404761D01*
X124054761Y-102452380D01*
X124150000Y-102452380D01*
X124245238Y-102404761D01*
X124292857Y-102357142D01*
X124340476Y-102261904D01*
X124388095Y-102071428D01*
X124388095Y-101833333D01*
X124340476Y-101642857D01*
X124292857Y-101547619D01*
X124245238Y-101500000D01*
X124150000Y-101452380D01*
X123197619Y-101452380D02*
X123102380Y-101452380D01*
X123007142Y-101500000D01*
X122959523Y-101547619D01*
X122911904Y-101642857D01*
X122864285Y-101833333D01*
X122864285Y-102071428D01*
X122911904Y-102261904D01*
X122959523Y-102357142D01*
X123007142Y-102404761D01*
X123102380Y-102452380D01*
X123197619Y-102452380D01*
X123292857Y-102404761D01*
X123340476Y-102357142D01*
X123388095Y-102261904D01*
X123435714Y-102071428D01*
X123435714Y-101833333D01*
X123388095Y-101642857D01*
X123340476Y-101547619D01*
X123292857Y-101500000D01*
X123197619Y-101452380D01*
X122483333Y-101547619D02*
X122435714Y-101500000D01*
X122340476Y-101452380D01*
X122102380Y-101452380D01*
X122007142Y-101500000D01*
X121959523Y-101547619D01*
X121911904Y-101642857D01*
X121911904Y-101738095D01*
X121959523Y-101880952D01*
X122530952Y-102452380D01*
X121911904Y-102452380D01*
%TO.C,Q1003*%
X125673809Y-106547619D02*
X125769047Y-106500000D01*
X125864285Y-106404761D01*
X126007142Y-106261904D01*
X126102380Y-106214285D01*
X126197619Y-106214285D01*
X126150000Y-106452380D02*
X126245238Y-106404761D01*
X126340476Y-106309523D01*
X126388095Y-106119047D01*
X126388095Y-105785714D01*
X126340476Y-105595238D01*
X126245238Y-105500000D01*
X126150000Y-105452380D01*
X125959523Y-105452380D01*
X125864285Y-105500000D01*
X125769047Y-105595238D01*
X125721428Y-105785714D01*
X125721428Y-106119047D01*
X125769047Y-106309523D01*
X125864285Y-106404761D01*
X125959523Y-106452380D01*
X126150000Y-106452380D01*
X124769047Y-106452380D02*
X125340476Y-106452380D01*
X125054761Y-106452380D02*
X125054761Y-105452380D01*
X125150000Y-105595238D01*
X125245238Y-105690476D01*
X125340476Y-105738095D01*
X124150000Y-105452380D02*
X124054761Y-105452380D01*
X123959523Y-105500000D01*
X123911904Y-105547619D01*
X123864285Y-105642857D01*
X123816666Y-105833333D01*
X123816666Y-106071428D01*
X123864285Y-106261904D01*
X123911904Y-106357142D01*
X123959523Y-106404761D01*
X124054761Y-106452380D01*
X124150000Y-106452380D01*
X124245238Y-106404761D01*
X124292857Y-106357142D01*
X124340476Y-106261904D01*
X124388095Y-106071428D01*
X124388095Y-105833333D01*
X124340476Y-105642857D01*
X124292857Y-105547619D01*
X124245238Y-105500000D01*
X124150000Y-105452380D01*
X123197619Y-105452380D02*
X123102380Y-105452380D01*
X123007142Y-105500000D01*
X122959523Y-105547619D01*
X122911904Y-105642857D01*
X122864285Y-105833333D01*
X122864285Y-106071428D01*
X122911904Y-106261904D01*
X122959523Y-106357142D01*
X123007142Y-106404761D01*
X123102380Y-106452380D01*
X123197619Y-106452380D01*
X123292857Y-106404761D01*
X123340476Y-106357142D01*
X123388095Y-106261904D01*
X123435714Y-106071428D01*
X123435714Y-105833333D01*
X123388095Y-105642857D01*
X123340476Y-105547619D01*
X123292857Y-105500000D01*
X123197619Y-105452380D01*
X122530952Y-105452380D02*
X121911904Y-105452380D01*
X122245238Y-105833333D01*
X122102380Y-105833333D01*
X122007142Y-105880952D01*
X121959523Y-105928571D01*
X121911904Y-106023809D01*
X121911904Y-106261904D01*
X121959523Y-106357142D01*
X122007142Y-106404761D01*
X122102380Y-106452380D01*
X122388095Y-106452380D01*
X122483333Y-106404761D01*
X122530952Y-106357142D01*
%TO.C,U201*%
X113452380Y-96285714D02*
X114261904Y-96285714D01*
X114357142Y-96333333D01*
X114404761Y-96380952D01*
X114452380Y-96476190D01*
X114452380Y-96666666D01*
X114404761Y-96761904D01*
X114357142Y-96809523D01*
X114261904Y-96857142D01*
X113452380Y-96857142D01*
X113547619Y-97285714D02*
X113500000Y-97333333D01*
X113452380Y-97428571D01*
X113452380Y-97666666D01*
X113500000Y-97761904D01*
X113547619Y-97809523D01*
X113642857Y-97857142D01*
X113738095Y-97857142D01*
X113880952Y-97809523D01*
X114452380Y-97238095D01*
X114452380Y-97857142D01*
X113452380Y-98476190D02*
X113452380Y-98571428D01*
X113500000Y-98666666D01*
X113547619Y-98714285D01*
X113642857Y-98761904D01*
X113833333Y-98809523D01*
X114071428Y-98809523D01*
X114261904Y-98761904D01*
X114357142Y-98714285D01*
X114404761Y-98666666D01*
X114452380Y-98571428D01*
X114452380Y-98476190D01*
X114404761Y-98380952D01*
X114357142Y-98333333D01*
X114261904Y-98285714D01*
X114071428Y-98238095D01*
X113833333Y-98238095D01*
X113642857Y-98285714D01*
X113547619Y-98333333D01*
X113500000Y-98380952D01*
X113452380Y-98476190D01*
X114452380Y-99761904D02*
X114452380Y-99190476D01*
X114452380Y-99476190D02*
X113452380Y-99476190D01*
X113595238Y-99380952D01*
X113690476Y-99285714D01*
X113738095Y-99190476D01*
%TO.C,U202*%
X102052380Y-101785714D02*
X102861904Y-101785714D01*
X102957142Y-101833333D01*
X103004761Y-101880952D01*
X103052380Y-101976190D01*
X103052380Y-102166666D01*
X103004761Y-102261904D01*
X102957142Y-102309523D01*
X102861904Y-102357142D01*
X102052380Y-102357142D01*
X102147619Y-102785714D02*
X102100000Y-102833333D01*
X102052380Y-102928571D01*
X102052380Y-103166666D01*
X102100000Y-103261904D01*
X102147619Y-103309523D01*
X102242857Y-103357142D01*
X102338095Y-103357142D01*
X102480952Y-103309523D01*
X103052380Y-102738095D01*
X103052380Y-103357142D01*
X102052380Y-103976190D02*
X102052380Y-104071428D01*
X102100000Y-104166666D01*
X102147619Y-104214285D01*
X102242857Y-104261904D01*
X102433333Y-104309523D01*
X102671428Y-104309523D01*
X102861904Y-104261904D01*
X102957142Y-104214285D01*
X103004761Y-104166666D01*
X103052380Y-104071428D01*
X103052380Y-103976190D01*
X103004761Y-103880952D01*
X102957142Y-103833333D01*
X102861904Y-103785714D01*
X102671428Y-103738095D01*
X102433333Y-103738095D01*
X102242857Y-103785714D01*
X102147619Y-103833333D01*
X102100000Y-103880952D01*
X102052380Y-103976190D01*
X102147619Y-104690476D02*
X102100000Y-104738095D01*
X102052380Y-104833333D01*
X102052380Y-105071428D01*
X102100000Y-105166666D01*
X102147619Y-105214285D01*
X102242857Y-105261904D01*
X102338095Y-105261904D01*
X102480952Y-105214285D01*
X103052380Y-104642857D01*
X103052380Y-105261904D01*
%TO.C,U701*%
X125854285Y-80522380D02*
X125854285Y-81331904D01*
X125806666Y-81427142D01*
X125759047Y-81474761D01*
X125663809Y-81522380D01*
X125473333Y-81522380D01*
X125378095Y-81474761D01*
X125330476Y-81427142D01*
X125282857Y-81331904D01*
X125282857Y-80522380D01*
X124901904Y-80522380D02*
X124235238Y-80522380D01*
X124663809Y-81522380D01*
X123663809Y-80522380D02*
X123568571Y-80522380D01*
X123473333Y-80570000D01*
X123425714Y-80617619D01*
X123378095Y-80712857D01*
X123330476Y-80903333D01*
X123330476Y-81141428D01*
X123378095Y-81331904D01*
X123425714Y-81427142D01*
X123473333Y-81474761D01*
X123568571Y-81522380D01*
X123663809Y-81522380D01*
X123759047Y-81474761D01*
X123806666Y-81427142D01*
X123854285Y-81331904D01*
X123901904Y-81141428D01*
X123901904Y-80903333D01*
X123854285Y-80712857D01*
X123806666Y-80617619D01*
X123759047Y-80570000D01*
X123663809Y-80522380D01*
X122378095Y-81522380D02*
X122949523Y-81522380D01*
X122663809Y-81522380D02*
X122663809Y-80522380D01*
X122759047Y-80665238D01*
X122854285Y-80760476D01*
X122949523Y-80808095D01*
%TO.C,U801*%
X152064860Y-83485704D02*
X152874384Y-83485704D01*
X152969622Y-83533323D01*
X153017241Y-83580942D01*
X153064860Y-83676180D01*
X153064860Y-83866656D01*
X153017241Y-83961894D01*
X152969622Y-84009513D01*
X152874384Y-84057132D01*
X152064860Y-84057132D01*
X152493432Y-84676180D02*
X152445813Y-84580942D01*
X152398194Y-84533323D01*
X152302956Y-84485704D01*
X152255337Y-84485704D01*
X152160099Y-84533323D01*
X152112480Y-84580942D01*
X152064860Y-84676180D01*
X152064860Y-84866656D01*
X152112480Y-84961894D01*
X152160099Y-85009513D01*
X152255337Y-85057132D01*
X152302956Y-85057132D01*
X152398194Y-85009513D01*
X152445813Y-84961894D01*
X152493432Y-84866656D01*
X152493432Y-84676180D01*
X152541051Y-84580942D01*
X152588670Y-84533323D01*
X152683908Y-84485704D01*
X152874384Y-84485704D01*
X152969622Y-84533323D01*
X153017241Y-84580942D01*
X153064860Y-84676180D01*
X153064860Y-84866656D01*
X153017241Y-84961894D01*
X152969622Y-85009513D01*
X152874384Y-85057132D01*
X152683908Y-85057132D01*
X152588670Y-85009513D01*
X152541051Y-84961894D01*
X152493432Y-84866656D01*
X152064860Y-85676180D02*
X152064860Y-85771418D01*
X152112480Y-85866656D01*
X152160099Y-85914275D01*
X152255337Y-85961894D01*
X152445813Y-86009513D01*
X152683908Y-86009513D01*
X152874384Y-85961894D01*
X152969622Y-85914275D01*
X153017241Y-85866656D01*
X153064860Y-85771418D01*
X153064860Y-85676180D01*
X153017241Y-85580942D01*
X152969622Y-85533323D01*
X152874384Y-85485704D01*
X152683908Y-85438085D01*
X152445813Y-85438085D01*
X152255337Y-85485704D01*
X152160099Y-85533323D01*
X152112480Y-85580942D01*
X152064860Y-85676180D01*
X153064860Y-86961894D02*
X153064860Y-86390466D01*
X153064860Y-86676180D02*
X152064860Y-86676180D01*
X152207718Y-86580942D01*
X152302956Y-86485704D01*
X152350575Y-86390466D01*
%TO.C,X501*%
X137261904Y-83502380D02*
X136595238Y-84502380D01*
X136595238Y-83502380D02*
X137261904Y-84502380D01*
X135738095Y-83502380D02*
X136214285Y-83502380D01*
X136261904Y-83978571D01*
X136214285Y-83930952D01*
X136119047Y-83883333D01*
X135880952Y-83883333D01*
X135785714Y-83930952D01*
X135738095Y-83978571D01*
X135690476Y-84073809D01*
X135690476Y-84311904D01*
X135738095Y-84407142D01*
X135785714Y-84454761D01*
X135880952Y-84502380D01*
X136119047Y-84502380D01*
X136214285Y-84454761D01*
X136261904Y-84407142D01*
X135071428Y-83502380D02*
X134976190Y-83502380D01*
X134880952Y-83550000D01*
X134833333Y-83597619D01*
X134785714Y-83692857D01*
X134738095Y-83883333D01*
X134738095Y-84121428D01*
X134785714Y-84311904D01*
X134833333Y-84407142D01*
X134880952Y-84454761D01*
X134976190Y-84502380D01*
X135071428Y-84502380D01*
X135166666Y-84454761D01*
X135214285Y-84407142D01*
X135261904Y-84311904D01*
X135309523Y-84121428D01*
X135309523Y-83883333D01*
X135261904Y-83692857D01*
X135214285Y-83597619D01*
X135166666Y-83550000D01*
X135071428Y-83502380D01*
X133785714Y-84502380D02*
X134357142Y-84502380D01*
X134071428Y-84502380D02*
X134071428Y-83502380D01*
X134166666Y-83645238D01*
X134261904Y-83740476D01*
X134357142Y-83788095D01*
%TO.C,U301*%
X158714285Y-104952380D02*
X158714285Y-105761904D01*
X158666666Y-105857142D01*
X158619047Y-105904761D01*
X158523809Y-105952380D01*
X158333333Y-105952380D01*
X158238095Y-105904761D01*
X158190476Y-105857142D01*
X158142857Y-105761904D01*
X158142857Y-104952380D01*
X157761904Y-104952380D02*
X157142857Y-104952380D01*
X157476190Y-105333333D01*
X157333333Y-105333333D01*
X157238095Y-105380952D01*
X157190476Y-105428571D01*
X157142857Y-105523809D01*
X157142857Y-105761904D01*
X157190476Y-105857142D01*
X157238095Y-105904761D01*
X157333333Y-105952380D01*
X157619047Y-105952380D01*
X157714285Y-105904761D01*
X157761904Y-105857142D01*
X156523809Y-104952380D02*
X156428571Y-104952380D01*
X156333333Y-105000000D01*
X156285714Y-105047619D01*
X156238095Y-105142857D01*
X156190476Y-105333333D01*
X156190476Y-105571428D01*
X156238095Y-105761904D01*
X156285714Y-105857142D01*
X156333333Y-105904761D01*
X156428571Y-105952380D01*
X156523809Y-105952380D01*
X156619047Y-105904761D01*
X156666666Y-105857142D01*
X156714285Y-105761904D01*
X156761904Y-105571428D01*
X156761904Y-105333333D01*
X156714285Y-105142857D01*
X156666666Y-105047619D01*
X156619047Y-105000000D01*
X156523809Y-104952380D01*
X155238095Y-105952380D02*
X155809523Y-105952380D01*
X155523809Y-105952380D02*
X155523809Y-104952380D01*
X155619047Y-105095238D01*
X155714285Y-105190476D01*
X155809523Y-105238095D01*
X159785714Y-103928571D02*
X159642857Y-103976190D01*
X159595238Y-104023809D01*
X159547619Y-104119047D01*
X159547619Y-104261904D01*
X159595238Y-104357142D01*
X159642857Y-104404761D01*
X159738095Y-104452380D01*
X160119047Y-104452380D01*
X160119047Y-103452380D01*
X159785714Y-103452380D01*
X159690476Y-103500000D01*
X159642857Y-103547619D01*
X159595238Y-103642857D01*
X159595238Y-103738095D01*
X159642857Y-103833333D01*
X159690476Y-103880952D01*
X159785714Y-103928571D01*
X160119047Y-103928571D01*
X158642857Y-104452380D02*
X159119047Y-104452380D01*
X159119047Y-103452380D01*
X158309523Y-103928571D02*
X157976190Y-103928571D01*
X157833333Y-104452380D02*
X158309523Y-104452380D01*
X158309523Y-103452380D01*
X157833333Y-103452380D01*
D12*
%TO.C,U501*%
X139784514Y-94446669D02*
X139784514Y-95053245D01*
X139748833Y-95124607D01*
X139713152Y-95160288D01*
X139641790Y-95195969D01*
X139499066Y-95195969D01*
X139427704Y-95160288D01*
X139392023Y-95124607D01*
X139356342Y-95053245D01*
X139356342Y-94446669D01*
X138642723Y-94446669D02*
X138999533Y-94446669D01*
X139035214Y-94803478D01*
X138999533Y-94767797D01*
X138928171Y-94732116D01*
X138749766Y-94732116D01*
X138678404Y-94767797D01*
X138642723Y-94803478D01*
X138607042Y-94874840D01*
X138607042Y-95053245D01*
X138642723Y-95124607D01*
X138678404Y-95160288D01*
X138749766Y-95195969D01*
X138928171Y-95195969D01*
X138999533Y-95160288D01*
X139035214Y-95124607D01*
X138143190Y-94446669D02*
X138071828Y-94446669D01*
X138000466Y-94482350D01*
X137964785Y-94518030D01*
X137929104Y-94589392D01*
X137893423Y-94732116D01*
X137893423Y-94910521D01*
X137929104Y-95053245D01*
X137964785Y-95124607D01*
X138000466Y-95160288D01*
X138071828Y-95195969D01*
X138143190Y-95195969D01*
X138214552Y-95160288D01*
X138250233Y-95124607D01*
X138285914Y-95053245D01*
X138321595Y-94910521D01*
X138321595Y-94732116D01*
X138285914Y-94589392D01*
X138250233Y-94518030D01*
X138214552Y-94482350D01*
X138143190Y-94446669D01*
X137179804Y-95195969D02*
X137607976Y-95195969D01*
X137393890Y-95195969D02*
X137393890Y-94446669D01*
X137465252Y-94553711D01*
X137536614Y-94625073D01*
X137607976Y-94660754D01*
D11*
%TO.C,J401*%
X155285714Y-109807380D02*
X155285714Y-110521666D01*
X155333333Y-110664523D01*
X155428571Y-110759761D01*
X155571428Y-110807380D01*
X155666666Y-110807380D01*
X154380952Y-110140714D02*
X154380952Y-110807380D01*
X154619047Y-109759761D02*
X154857142Y-110474047D01*
X154238095Y-110474047D01*
X153666666Y-109807380D02*
X153571428Y-109807380D01*
X153476190Y-109855000D01*
X153428571Y-109902619D01*
X153380952Y-109997857D01*
X153333333Y-110188333D01*
X153333333Y-110426428D01*
X153380952Y-110616904D01*
X153428571Y-110712142D01*
X153476190Y-110759761D01*
X153571428Y-110807380D01*
X153666666Y-110807380D01*
X153761904Y-110759761D01*
X153809523Y-110712142D01*
X153857142Y-110616904D01*
X153904761Y-110426428D01*
X153904761Y-110188333D01*
X153857142Y-109997857D01*
X153809523Y-109902619D01*
X153761904Y-109855000D01*
X153666666Y-109807380D01*
X152380952Y-110807380D02*
X152952380Y-110807380D01*
X152666666Y-110807380D02*
X152666666Y-109807380D01*
X152761904Y-109950238D01*
X152857142Y-110045476D01*
X152952380Y-110093095D01*
%TO.C,J901*%
X102682380Y-112444285D02*
X103396666Y-112444285D01*
X103539523Y-112396666D01*
X103634761Y-112301428D01*
X103682380Y-112158571D01*
X103682380Y-112063333D01*
X103682380Y-112968095D02*
X103682380Y-113158571D01*
X103634761Y-113253809D01*
X103587142Y-113301428D01*
X103444285Y-113396666D01*
X103253809Y-113444285D01*
X102872857Y-113444285D01*
X102777619Y-113396666D01*
X102730000Y-113349047D01*
X102682380Y-113253809D01*
X102682380Y-113063333D01*
X102730000Y-112968095D01*
X102777619Y-112920476D01*
X102872857Y-112872857D01*
X103110952Y-112872857D01*
X103206190Y-112920476D01*
X103253809Y-112968095D01*
X103301428Y-113063333D01*
X103301428Y-113253809D01*
X103253809Y-113349047D01*
X103206190Y-113396666D01*
X103110952Y-113444285D01*
X102682380Y-114063333D02*
X102682380Y-114158571D01*
X102730000Y-114253809D01*
X102777619Y-114301428D01*
X102872857Y-114349047D01*
X103063333Y-114396666D01*
X103301428Y-114396666D01*
X103491904Y-114349047D01*
X103587142Y-114301428D01*
X103634761Y-114253809D01*
X103682380Y-114158571D01*
X103682380Y-114063333D01*
X103634761Y-113968095D01*
X103587142Y-113920476D01*
X103491904Y-113872857D01*
X103301428Y-113825238D01*
X103063333Y-113825238D01*
X102872857Y-113872857D01*
X102777619Y-113920476D01*
X102730000Y-113968095D01*
X102682380Y-114063333D01*
X103682380Y-115349047D02*
X103682380Y-114777619D01*
X103682380Y-115063333D02*
X102682380Y-115063333D01*
X102825238Y-114968095D01*
X102920476Y-114872857D01*
X102968095Y-114777619D01*
%TO.C,D101*%
X104690476Y-106602380D02*
X104690476Y-105602380D01*
X104452380Y-105602380D01*
X104309523Y-105650000D01*
X104214285Y-105745238D01*
X104166666Y-105840476D01*
X104119047Y-106030952D01*
X104119047Y-106173809D01*
X104166666Y-106364285D01*
X104214285Y-106459523D01*
X104309523Y-106554761D01*
X104452380Y-106602380D01*
X104690476Y-106602380D01*
X103166666Y-106602380D02*
X103738095Y-106602380D01*
X103452380Y-106602380D02*
X103452380Y-105602380D01*
X103547619Y-105745238D01*
X103642857Y-105840476D01*
X103738095Y-105888095D01*
X102547619Y-105602380D02*
X102452380Y-105602380D01*
X102357142Y-105650000D01*
X102309523Y-105697619D01*
X102261904Y-105792857D01*
X102214285Y-105983333D01*
X102214285Y-106221428D01*
X102261904Y-106411904D01*
X102309523Y-106507142D01*
X102357142Y-106554761D01*
X102452380Y-106602380D01*
X102547619Y-106602380D01*
X102642857Y-106554761D01*
X102690476Y-106507142D01*
X102738095Y-106411904D01*
X102785714Y-106221428D01*
X102785714Y-105983333D01*
X102738095Y-105792857D01*
X102690476Y-105697619D01*
X102642857Y-105650000D01*
X102547619Y-105602380D01*
X101261904Y-106602380D02*
X101833333Y-106602380D01*
X101547619Y-106602380D02*
X101547619Y-105602380D01*
X101642857Y-105745238D01*
X101738095Y-105840476D01*
X101833333Y-105888095D01*
%TO.C,C910*%
X101707142Y-107380952D02*
X101754761Y-107333333D01*
X101802380Y-107190476D01*
X101802380Y-107095238D01*
X101754761Y-106952380D01*
X101659523Y-106857142D01*
X101564285Y-106809523D01*
X101373809Y-106761904D01*
X101230952Y-106761904D01*
X101040476Y-106809523D01*
X100945238Y-106857142D01*
X100850000Y-106952380D01*
X100802380Y-107095238D01*
X100802380Y-107190476D01*
X100850000Y-107333333D01*
X100897619Y-107380952D01*
X101802380Y-107857142D02*
X101802380Y-108047619D01*
X101754761Y-108142857D01*
X101707142Y-108190476D01*
X101564285Y-108285714D01*
X101373809Y-108333333D01*
X100992857Y-108333333D01*
X100897619Y-108285714D01*
X100850000Y-108238095D01*
X100802380Y-108142857D01*
X100802380Y-107952380D01*
X100850000Y-107857142D01*
X100897619Y-107809523D01*
X100992857Y-107761904D01*
X101230952Y-107761904D01*
X101326190Y-107809523D01*
X101373809Y-107857142D01*
X101421428Y-107952380D01*
X101421428Y-108142857D01*
X101373809Y-108238095D01*
X101326190Y-108285714D01*
X101230952Y-108333333D01*
X101802380Y-109285714D02*
X101802380Y-108714285D01*
X101802380Y-109000000D02*
X100802380Y-109000000D01*
X100945238Y-108904761D01*
X101040476Y-108809523D01*
X101088095Y-108714285D01*
X100802380Y-109904761D02*
X100802380Y-110000000D01*
X100850000Y-110095238D01*
X100897619Y-110142857D01*
X100992857Y-110190476D01*
X101183333Y-110238095D01*
X101421428Y-110238095D01*
X101611904Y-110190476D01*
X101707142Y-110142857D01*
X101754761Y-110095238D01*
X101802380Y-110000000D01*
X101802380Y-109904761D01*
X101754761Y-109809523D01*
X101707142Y-109761904D01*
X101611904Y-109714285D01*
X101421428Y-109666666D01*
X101183333Y-109666666D01*
X100992857Y-109714285D01*
X100897619Y-109761904D01*
X100850000Y-109809523D01*
X100802380Y-109904761D01*
%TO.C,D202*%
X112302380Y-90509523D02*
X111302380Y-90509523D01*
X111302380Y-90747619D01*
X111350000Y-90890476D01*
X111445238Y-90985714D01*
X111540476Y-91033333D01*
X111730952Y-91080952D01*
X111873809Y-91080952D01*
X112064285Y-91033333D01*
X112159523Y-90985714D01*
X112254761Y-90890476D01*
X112302380Y-90747619D01*
X112302380Y-90509523D01*
X111397619Y-91461904D02*
X111350000Y-91509523D01*
X111302380Y-91604761D01*
X111302380Y-91842857D01*
X111350000Y-91938095D01*
X111397619Y-91985714D01*
X111492857Y-92033333D01*
X111588095Y-92033333D01*
X111730952Y-91985714D01*
X112302380Y-91414285D01*
X112302380Y-92033333D01*
X111302380Y-92652380D02*
X111302380Y-92747619D01*
X111350000Y-92842857D01*
X111397619Y-92890476D01*
X111492857Y-92938095D01*
X111683333Y-92985714D01*
X111921428Y-92985714D01*
X112111904Y-92938095D01*
X112207142Y-92890476D01*
X112254761Y-92842857D01*
X112302380Y-92747619D01*
X112302380Y-92652380D01*
X112254761Y-92557142D01*
X112207142Y-92509523D01*
X112111904Y-92461904D01*
X111921428Y-92414285D01*
X111683333Y-92414285D01*
X111492857Y-92461904D01*
X111397619Y-92509523D01*
X111350000Y-92557142D01*
X111302380Y-92652380D01*
X111397619Y-93366666D02*
X111350000Y-93414285D01*
X111302380Y-93509523D01*
X111302380Y-93747619D01*
X111350000Y-93842857D01*
X111397619Y-93890476D01*
X111492857Y-93938095D01*
X111588095Y-93938095D01*
X111730952Y-93890476D01*
X112302380Y-93319047D01*
X112302380Y-93938095D01*
%TO.C,U402*%
X149214285Y-105052380D02*
X149214285Y-105861904D01*
X149166666Y-105957142D01*
X149119047Y-106004761D01*
X149023809Y-106052380D01*
X148833333Y-106052380D01*
X148738095Y-106004761D01*
X148690476Y-105957142D01*
X148642857Y-105861904D01*
X148642857Y-105052380D01*
X147738095Y-105385714D02*
X147738095Y-106052380D01*
X147976190Y-105004761D02*
X148214285Y-105719047D01*
X147595238Y-105719047D01*
X147023809Y-105052380D02*
X146928571Y-105052380D01*
X146833333Y-105100000D01*
X146785714Y-105147619D01*
X146738095Y-105242857D01*
X146690476Y-105433333D01*
X146690476Y-105671428D01*
X146738095Y-105861904D01*
X146785714Y-105957142D01*
X146833333Y-106004761D01*
X146928571Y-106052380D01*
X147023809Y-106052380D01*
X147119047Y-106004761D01*
X147166666Y-105957142D01*
X147214285Y-105861904D01*
X147261904Y-105671428D01*
X147261904Y-105433333D01*
X147214285Y-105242857D01*
X147166666Y-105147619D01*
X147119047Y-105100000D01*
X147023809Y-105052380D01*
X146309523Y-105147619D02*
X146261904Y-105100000D01*
X146166666Y-105052380D01*
X145928571Y-105052380D01*
X145833333Y-105100000D01*
X145785714Y-105147619D01*
X145738095Y-105242857D01*
X145738095Y-105338095D01*
X145785714Y-105480952D01*
X146357142Y-106052380D01*
X145738095Y-106052380D01*
D10*
%TO.C,D1*%
X110850000Y-106500000D02*
X110850000Y-103950000D01*
X112550000Y-106500000D02*
X112550000Y-103950000D01*
X112550000Y-106500000D02*
X110850000Y-106500000D01*
D13*
%TO.C,R2*%
X113260000Y-105250000D02*
X113260000Y-105950000D01*
X114140000Y-105950000D02*
X114140000Y-105250000D01*
D14*
X113425000Y-105775000D02*
X113975000Y-105775000D01*
X113975000Y-105775000D02*
X113975000Y-105425000D01*
X113975000Y-105425000D02*
X113425000Y-105425000D01*
X113425000Y-105425000D02*
X113425000Y-105700000D01*
X113425000Y-105700000D02*
X113425000Y-105775000D01*
G36*
X113975000Y-105775000D02*
G01*
X113425000Y-105775000D01*
X113425000Y-105425000D01*
X113975000Y-105425000D01*
X113975000Y-105775000D01*
G37*
X113975000Y-105775000D02*
X113425000Y-105775000D01*
X113425000Y-105425000D01*
X113975000Y-105425000D01*
X113975000Y-105775000D01*
D13*
%TO.C,R3*%
X111430000Y-107720000D02*
X110730000Y-107720000D01*
X110730000Y-108940000D02*
X111430000Y-108940000D01*
D15*
X111280000Y-108330000D02*
G75*
G03*
X111280000Y-108330000I-200000J0D01*
G01*
D13*
%TO.C,C101*%
X162060000Y-83150000D02*
X162060000Y-83850000D01*
X162940000Y-83850000D02*
X162940000Y-83150000D01*
D16*
X162600000Y-83500000D02*
G75*
G03*
X162600000Y-83500000I-100000J0D01*
G01*
D13*
%TO.C,C102*%
X107560000Y-83900000D02*
X107560000Y-84600000D01*
X108440000Y-84600000D02*
X108440000Y-83900000D01*
D16*
X108100000Y-84250000D02*
G75*
G03*
X108100000Y-84250000I-100000J0D01*
G01*
D13*
%TO.C,C201*%
X109350000Y-101890000D02*
X108650000Y-101890000D01*
X108650000Y-103110000D02*
X109350000Y-103110000D01*
D15*
X109200000Y-102500000D02*
G75*
G03*
X109200000Y-102500000I-200000J0D01*
G01*
D13*
%TO.C,C202*%
X112940000Y-96350000D02*
X112940000Y-95650000D01*
X112060000Y-95650000D02*
X112060000Y-96350000D01*
D16*
X112600000Y-96000000D02*
G75*
G03*
X112600000Y-96000000I-100000J0D01*
G01*
D13*
%TO.C,C203*%
X105850000Y-99890000D02*
X105150000Y-99890000D01*
X105150000Y-101110000D02*
X105850000Y-101110000D01*
D15*
X105700000Y-100500000D02*
G75*
G03*
X105700000Y-100500000I-200000J0D01*
G01*
D13*
%TO.C,C204*%
X114440000Y-98350000D02*
X114440000Y-97650000D01*
X113560000Y-97650000D02*
X113560000Y-98350000D01*
D16*
X114100000Y-98000000D02*
G75*
G03*
X114100000Y-98000000I-100000J0D01*
G01*
D13*
%TO.C,C205*%
X102060000Y-104150000D02*
X102060000Y-104850000D01*
X102940000Y-104850000D02*
X102940000Y-104150000D01*
D16*
X102600000Y-104500000D02*
G75*
G03*
X102600000Y-104500000I-100000J0D01*
G01*
D10*
%TO.C,C206*%
X118460000Y-100490000D02*
X118460000Y-103510000D01*
X118460000Y-103510000D02*
X114250000Y-103510000D01*
X114250000Y-100490000D02*
X118460000Y-100490000D01*
D13*
%TO.C,C207*%
X102150000Y-101440000D02*
X102850000Y-101440000D01*
X102850000Y-100560000D02*
X102150000Y-100560000D01*
D16*
X102600000Y-101000000D02*
G75*
G03*
X102600000Y-101000000I-100000J0D01*
G01*
D13*
%TO.C,C208*%
X102150000Y-99940000D02*
X102850000Y-99940000D01*
X102850000Y-99060000D02*
X102150000Y-99060000D01*
D16*
X102600000Y-99500000D02*
G75*
G03*
X102600000Y-99500000I-100000J0D01*
G01*
D10*
%TO.C,C209*%
X103750000Y-90490000D02*
X107960000Y-90490000D01*
X107960000Y-93510000D02*
X103750000Y-93510000D01*
X107960000Y-90490000D02*
X107960000Y-93510000D01*
D13*
%TO.C,C210*%
X100940000Y-101850000D02*
X100940000Y-101150000D01*
X100060000Y-101150000D02*
X100060000Y-101850000D01*
D16*
X100600000Y-101500000D02*
G75*
G03*
X100600000Y-101500000I-100000J0D01*
G01*
D13*
%TO.C,C301*%
X147890000Y-104150000D02*
X147890000Y-104850000D01*
X149110000Y-104850000D02*
X149110000Y-104150000D01*
D15*
X148700000Y-104500000D02*
G75*
G03*
X148700000Y-104500000I-200000J0D01*
G01*
D13*
%TO.C,C501*%
X135940000Y-104350000D02*
X135940000Y-103650000D01*
X135060000Y-103650000D02*
X135060000Y-104350000D01*
D16*
X135600000Y-104000000D02*
G75*
G03*
X135600000Y-104000000I-100000J0D01*
G01*
D13*
%TO.C,C502*%
X139650000Y-88440000D02*
X140350000Y-88440000D01*
X140350000Y-87560000D02*
X139650000Y-87560000D01*
D16*
X140100000Y-88000000D02*
G75*
G03*
X140100000Y-88000000I-100000J0D01*
G01*
D13*
%TO.C,C503*%
X147350000Y-99435000D02*
X146650000Y-99435000D01*
X146650000Y-100315000D02*
X147350000Y-100315000D01*
D16*
X147100000Y-99875000D02*
G75*
G03*
X147100000Y-99875000I-100000J0D01*
G01*
D13*
%TO.C,C504*%
X139650000Y-87190000D02*
X140350000Y-87190000D01*
X140350000Y-86310000D02*
X139650000Y-86310000D01*
D16*
X140100000Y-86750000D02*
G75*
G03*
X140100000Y-86750000I-100000J0D01*
G01*
D13*
%TO.C,C505*%
X133190000Y-86850000D02*
X133190000Y-86150000D01*
X132310000Y-86150000D02*
X132310000Y-86850000D01*
D16*
X132850000Y-86500000D02*
G75*
G03*
X132850000Y-86500000I-100000J0D01*
G01*
D13*
%TO.C,C506*%
X151150000Y-88940000D02*
X151850000Y-88940000D01*
X151850000Y-88060000D02*
X151150000Y-88060000D01*
D16*
X151600000Y-88500000D02*
G75*
G03*
X151600000Y-88500000I-100000J0D01*
G01*
D13*
%TO.C,C507*%
X138690000Y-86850000D02*
X138690000Y-86150000D01*
X137810000Y-86150000D02*
X137810000Y-86850000D01*
D16*
X138350000Y-86500000D02*
G75*
G03*
X138350000Y-86500000I-100000J0D01*
G01*
D13*
%TO.C,C508*%
X130940000Y-92150000D02*
X130940000Y-91450000D01*
X130060000Y-91450000D02*
X130060000Y-92150000D01*
D16*
X130600000Y-91800000D02*
G75*
G03*
X130600000Y-91800000I-100000J0D01*
G01*
D13*
%TO.C,C509*%
X146060000Y-92275000D02*
X146060000Y-92975000D01*
X146940000Y-92975000D02*
X146940000Y-92275000D01*
D16*
X146600000Y-92625000D02*
G75*
G03*
X146600000Y-92625000I-100000J0D01*
G01*
D13*
%TO.C,C510*%
X131650000Y-90440000D02*
X132350000Y-90440000D01*
X132350000Y-89560000D02*
X131650000Y-89560000D01*
D16*
X132100000Y-90000000D02*
G75*
G03*
X132100000Y-90000000I-100000J0D01*
G01*
D13*
%TO.C,C511*%
X133560000Y-103650000D02*
X133560000Y-104350000D01*
X134440000Y-104350000D02*
X134440000Y-103650000D01*
D16*
X134100000Y-104000000D02*
G75*
G03*
X134100000Y-104000000I-100000J0D01*
G01*
D13*
%TO.C,C512*%
X146650000Y-101440000D02*
X147350000Y-101440000D01*
X147350000Y-100560000D02*
X146650000Y-100560000D01*
D16*
X147100000Y-101000000D02*
G75*
G03*
X147100000Y-101000000I-100000J0D01*
G01*
D13*
%TO.C,C701*%
X123440000Y-76350000D02*
X123440000Y-75650000D01*
X122560000Y-75650000D02*
X122560000Y-76350000D01*
D16*
X123100000Y-76000000D02*
G75*
G03*
X123100000Y-76000000I-100000J0D01*
G01*
D13*
%TO.C,C702*%
X129440000Y-84850000D02*
X129440000Y-84150000D01*
X128560000Y-84150000D02*
X128560000Y-84850000D01*
D16*
X129100000Y-84500000D02*
G75*
G03*
X129100000Y-84500000I-100000J0D01*
G01*
D13*
%TO.C,C703*%
X122850000Y-88060000D02*
X122150000Y-88060000D01*
X122150000Y-88940000D02*
X122850000Y-88940000D01*
D16*
X122600000Y-88500000D02*
G75*
G03*
X122600000Y-88500000I-100000J0D01*
G01*
D13*
%TO.C,C801*%
X156162480Y-88289990D02*
X156862480Y-88289990D01*
X156862480Y-87409990D02*
X156162480Y-87409990D01*
D16*
X156612480Y-87849990D02*
G75*
G03*
X156612480Y-87849990I-100000J0D01*
G01*
D13*
%TO.C,C802*%
X157072480Y-84499990D02*
X157072480Y-85199990D01*
X157952480Y-85199990D02*
X157952480Y-84499990D01*
D16*
X157612480Y-84849990D02*
G75*
G03*
X157612480Y-84849990I-100000J0D01*
G01*
D13*
%TO.C,C901*%
X120350000Y-107560000D02*
X119650000Y-107560000D01*
X119650000Y-108440000D02*
X120350000Y-108440000D01*
D16*
X120100000Y-108000000D02*
G75*
G03*
X120100000Y-108000000I-100000J0D01*
G01*
D13*
%TO.C,C902*%
X144810000Y-104150000D02*
X144810000Y-104850000D01*
X145690000Y-104850000D02*
X145690000Y-104150000D01*
D16*
X145350000Y-104500000D02*
G75*
G03*
X145350000Y-104500000I-100000J0D01*
G01*
D13*
%TO.C,C907*%
X109350000Y-99890000D02*
X108650000Y-99890000D01*
X108650000Y-101110000D02*
X109350000Y-101110000D01*
D15*
X109200000Y-100500000D02*
G75*
G03*
X109200000Y-100500000I-200000J0D01*
G01*
D13*
%TO.C,C909*%
X101850000Y-81890000D02*
X101150000Y-81890000D01*
X101150000Y-83110000D02*
X101850000Y-83110000D01*
D15*
X101700000Y-82500000D02*
G75*
G03*
X101700000Y-82500000I-200000J0D01*
G01*
D13*
%TO.C,C1001*%
X126800000Y-96440000D02*
X127500000Y-96440000D01*
X127500000Y-95560000D02*
X126800000Y-95560000D01*
D16*
X127250000Y-96000000D02*
G75*
G03*
X127250000Y-96000000I-100000J0D01*
G01*
D13*
%TO.C,C1002*%
X127500000Y-99560000D02*
X126800000Y-99560000D01*
X126800000Y-100440000D02*
X127500000Y-100440000D01*
D16*
X127250000Y-100000000D02*
G75*
G03*
X127250000Y-100000000I-100000J0D01*
G01*
D13*
%TO.C,C1003*%
X126800000Y-104440000D02*
X127500000Y-104440000D01*
X127500000Y-103560000D02*
X126800000Y-103560000D01*
D16*
X127250000Y-104000000D02*
G75*
G03*
X127250000Y-104000000I-100000J0D01*
G01*
D13*
%TO.C,C1004*%
X141060000Y-87150000D02*
X141060000Y-87850000D01*
X141940000Y-87850000D02*
X141940000Y-87150000D01*
D16*
X141600000Y-87500000D02*
G75*
G03*
X141600000Y-87500000I-100000J0D01*
G01*
D13*
%TO.C,C1005*%
X142060000Y-87150000D02*
X142060000Y-87850000D01*
X142940000Y-87850000D02*
X142940000Y-87150000D01*
D16*
X142600000Y-87500000D02*
G75*
G03*
X142600000Y-87500000I-100000J0D01*
G01*
D13*
%TO.C,C1006*%
X143060000Y-87150000D02*
X143060000Y-87850000D01*
X143940000Y-87850000D02*
X143940000Y-87150000D01*
D16*
X143600000Y-87500000D02*
G75*
G03*
X143600000Y-87500000I-100000J0D01*
G01*
D10*
%TO.C,D102*%
X154160000Y-78300000D02*
X154160000Y-80200000D01*
X151840000Y-79700000D02*
X151840000Y-78300000D01*
%TO.C,D103*%
X111450000Y-85660000D02*
X109550000Y-85660000D01*
X110050000Y-83340000D02*
X111450000Y-83340000D01*
%TO.C,D201*%
X110850000Y-95000000D02*
X110850000Y-97550000D01*
X109150000Y-95000000D02*
X109150000Y-97550000D01*
X109150000Y-95000000D02*
X110850000Y-95000000D01*
%TO.C,D504*%
X135840000Y-79950000D02*
X135840000Y-78550000D01*
X138160000Y-78550000D02*
X138160000Y-80450000D01*
%TO.C,D701*%
X127080000Y-79760000D02*
X127080000Y-78300000D01*
X123920000Y-79760000D02*
X124850000Y-79760000D01*
X127080000Y-79760000D02*
X126150000Y-79760000D01*
X123920000Y-79760000D02*
X123920000Y-77600000D01*
D13*
%TO.C,JP701*%
X124940000Y-72360000D02*
X124060000Y-72360000D01*
X124060000Y-72360000D02*
X124060000Y-74140000D01*
X124940000Y-74140000D02*
X124940000Y-72360000D01*
X124940000Y-74140000D02*
X124060000Y-74140000D01*
%TO.C,JP702*%
X126940000Y-74140000D02*
X126060000Y-74140000D01*
X126060000Y-72360000D02*
X126060000Y-74140000D01*
X126940000Y-74140000D02*
X126940000Y-72360000D01*
X126940000Y-72360000D02*
X126060000Y-72360000D01*
D10*
%TO.C,L201*%
X118000000Y-95600000D02*
X114000000Y-95600000D01*
X118000000Y-91400000D02*
X114000000Y-91400000D01*
%TO.C,L202*%
X108100000Y-95000000D02*
X108100000Y-99000000D01*
X103900000Y-95000000D02*
X103900000Y-99000000D01*
%TO.C,Q601*%
X101240000Y-83920000D02*
X103400000Y-83920000D01*
X101240000Y-87080000D02*
X101240000Y-86150000D01*
X101240000Y-87080000D02*
X102700000Y-87080000D01*
X101240000Y-83920000D02*
X101240000Y-84850000D01*
%TO.C,Q602*%
X101240000Y-77930000D02*
X101240000Y-78860000D01*
X101240000Y-81090000D02*
X101240000Y-80160000D01*
X101240000Y-81090000D02*
X102700000Y-81090000D01*
X101240000Y-77930000D02*
X103400000Y-77930000D01*
%TO.C,Q1001*%
X124910000Y-93920000D02*
X124910000Y-94850000D01*
X124910000Y-97080000D02*
X124910000Y-96150000D01*
X124910000Y-97080000D02*
X122750000Y-97080000D01*
X124910000Y-93920000D02*
X123450000Y-93920000D01*
%TO.C,Q1002*%
X124910000Y-97920000D02*
X124910000Y-98850000D01*
X124910000Y-101080000D02*
X122750000Y-101080000D01*
X124910000Y-97920000D02*
X123450000Y-97920000D01*
X124910000Y-101080000D02*
X124910000Y-100150000D01*
%TO.C,Q1003*%
X124910000Y-101920000D02*
X124910000Y-102850000D01*
X124910000Y-105080000D02*
X124910000Y-104150000D01*
X124910000Y-105080000D02*
X122750000Y-105080000D01*
X124910000Y-101920000D02*
X123450000Y-101920000D01*
D13*
%TO.C,R101*%
X149440000Y-78350000D02*
X149440000Y-77650000D01*
X148560000Y-77650000D02*
X148560000Y-78350000D01*
D14*
X148725000Y-78175000D02*
X149275000Y-78175000D01*
X149275000Y-78175000D02*
X149275000Y-77825000D01*
X149275000Y-77825000D02*
X148725000Y-77825000D01*
X148725000Y-77825000D02*
X148725000Y-78100000D01*
X148725000Y-78100000D02*
X148725000Y-78175000D01*
G36*
X149275000Y-78175000D02*
G01*
X148725000Y-78175000D01*
X148725000Y-77825000D01*
X149275000Y-77825000D01*
X149275000Y-78175000D01*
G37*
X149275000Y-78175000D02*
X148725000Y-78175000D01*
X148725000Y-77825000D01*
X149275000Y-77825000D01*
X149275000Y-78175000D01*
D13*
%TO.C,R102*%
X162060000Y-86150000D02*
X162060000Y-86850000D01*
X162940000Y-86850000D02*
X162940000Y-86150000D01*
D14*
X162775000Y-86325000D02*
X162225000Y-86325000D01*
X162225000Y-86325000D02*
X162225000Y-86675000D01*
X162225000Y-86675000D02*
X162775000Y-86675000D01*
X162775000Y-86675000D02*
X162775000Y-86400000D01*
X162775000Y-86400000D02*
X162775000Y-86325000D01*
G36*
X162775000Y-86675000D02*
G01*
X162225000Y-86675000D01*
X162225000Y-86325000D01*
X162775000Y-86325000D01*
X162775000Y-86675000D01*
G37*
X162775000Y-86675000D02*
X162225000Y-86675000D01*
X162225000Y-86325000D01*
X162775000Y-86325000D01*
X162775000Y-86675000D01*
D13*
%TO.C,R103*%
X150060000Y-77650000D02*
X150060000Y-78350000D01*
X150940000Y-78350000D02*
X150940000Y-77650000D01*
D14*
X150225000Y-78175000D02*
X150775000Y-78175000D01*
X150775000Y-78175000D02*
X150775000Y-77825000D01*
X150775000Y-77825000D02*
X150225000Y-77825000D01*
X150225000Y-77825000D02*
X150225000Y-78100000D01*
X150225000Y-78100000D02*
X150225000Y-78175000D01*
G36*
X150775000Y-78175000D02*
G01*
X150225000Y-78175000D01*
X150225000Y-77825000D01*
X150775000Y-77825000D01*
X150775000Y-78175000D01*
G37*
X150775000Y-78175000D02*
X150225000Y-78175000D01*
X150225000Y-77825000D01*
X150775000Y-77825000D01*
X150775000Y-78175000D01*
D13*
%TO.C,R104*%
X148560000Y-80450000D02*
X148560000Y-81150000D01*
X149440000Y-81150000D02*
X149440000Y-80450000D01*
D14*
X149275000Y-80625000D02*
X148725000Y-80625000D01*
X148725000Y-80625000D02*
X148725000Y-80975000D01*
X148725000Y-80975000D02*
X149275000Y-80975000D01*
X149275000Y-80975000D02*
X149275000Y-80700000D01*
X149275000Y-80700000D02*
X149275000Y-80625000D01*
G36*
X149275000Y-80975000D02*
G01*
X148725000Y-80975000D01*
X148725000Y-80625000D01*
X149275000Y-80625000D01*
X149275000Y-80975000D01*
G37*
X149275000Y-80975000D02*
X148725000Y-80975000D01*
X148725000Y-80625000D01*
X149275000Y-80625000D01*
X149275000Y-80975000D01*
D13*
%TO.C,R105*%
X150060000Y-80450000D02*
X150060000Y-81150000D01*
X150940000Y-81150000D02*
X150940000Y-80450000D01*
D14*
X150775000Y-80625000D02*
X150225000Y-80625000D01*
X150225000Y-80625000D02*
X150225000Y-80975000D01*
X150225000Y-80975000D02*
X150775000Y-80975000D01*
X150775000Y-80975000D02*
X150775000Y-80700000D01*
X150775000Y-80700000D02*
X150775000Y-80625000D01*
G36*
X150775000Y-80975000D02*
G01*
X150225000Y-80975000D01*
X150225000Y-80625000D01*
X150775000Y-80625000D01*
X150775000Y-80975000D01*
G37*
X150775000Y-80975000D02*
X150225000Y-80975000D01*
X150225000Y-80625000D01*
X150775000Y-80625000D01*
X150775000Y-80975000D01*
D13*
%TO.C,R106*%
X110940000Y-77350000D02*
X110940000Y-76650000D01*
X110060000Y-76650000D02*
X110060000Y-77350000D01*
D14*
X110225000Y-77175000D02*
X110775000Y-77175000D01*
X110775000Y-77175000D02*
X110775000Y-76825000D01*
X110775000Y-76825000D02*
X110225000Y-76825000D01*
X110225000Y-76825000D02*
X110225000Y-77100000D01*
X110225000Y-77100000D02*
X110225000Y-77175000D01*
G36*
X110775000Y-77175000D02*
G01*
X110225000Y-77175000D01*
X110225000Y-76825000D01*
X110775000Y-76825000D01*
X110775000Y-77175000D01*
G37*
X110775000Y-77175000D02*
X110225000Y-77175000D01*
X110225000Y-76825000D01*
X110775000Y-76825000D01*
X110775000Y-77175000D01*
D13*
%TO.C,R107*%
X112060000Y-76650000D02*
X112060000Y-77350000D01*
X112940000Y-77350000D02*
X112940000Y-76650000D01*
D14*
X112225000Y-77175000D02*
X112775000Y-77175000D01*
X112775000Y-77175000D02*
X112775000Y-76825000D01*
X112775000Y-76825000D02*
X112225000Y-76825000D01*
X112225000Y-76825000D02*
X112225000Y-77100000D01*
X112225000Y-77100000D02*
X112225000Y-77175000D01*
G36*
X112775000Y-77175000D02*
G01*
X112225000Y-77175000D01*
X112225000Y-76825000D01*
X112775000Y-76825000D01*
X112775000Y-77175000D01*
G37*
X112775000Y-77175000D02*
X112225000Y-77175000D01*
X112225000Y-76825000D01*
X112775000Y-76825000D01*
X112775000Y-77175000D01*
D13*
%TO.C,R108*%
X114060000Y-76650000D02*
X114060000Y-77350000D01*
X114940000Y-77350000D02*
X114940000Y-76650000D01*
D14*
X114225000Y-77175000D02*
X114775000Y-77175000D01*
X114775000Y-77175000D02*
X114775000Y-76825000D01*
X114775000Y-76825000D02*
X114225000Y-76825000D01*
X114225000Y-76825000D02*
X114225000Y-77100000D01*
X114225000Y-77100000D02*
X114225000Y-77175000D01*
G36*
X114775000Y-77175000D02*
G01*
X114225000Y-77175000D01*
X114225000Y-76825000D01*
X114775000Y-76825000D01*
X114775000Y-77175000D01*
G37*
X114775000Y-77175000D02*
X114225000Y-77175000D01*
X114225000Y-76825000D01*
X114775000Y-76825000D01*
X114775000Y-77175000D01*
D13*
%TO.C,R109*%
X108060000Y-76650000D02*
X108060000Y-77350000D01*
X108940000Y-77350000D02*
X108940000Y-76650000D01*
D14*
X108225000Y-77175000D02*
X108775000Y-77175000D01*
X108775000Y-77175000D02*
X108775000Y-76825000D01*
X108775000Y-76825000D02*
X108225000Y-76825000D01*
X108225000Y-76825000D02*
X108225000Y-77100000D01*
X108225000Y-77100000D02*
X108225000Y-77175000D01*
G36*
X108775000Y-77175000D02*
G01*
X108225000Y-77175000D01*
X108225000Y-76825000D01*
X108775000Y-76825000D01*
X108775000Y-77175000D01*
G37*
X108775000Y-77175000D02*
X108225000Y-77175000D01*
X108225000Y-76825000D01*
X108775000Y-76825000D01*
X108775000Y-77175000D01*
D13*
%TO.C,R201*%
X98560000Y-101150000D02*
X98560000Y-101850000D01*
X99440000Y-101850000D02*
X99440000Y-101150000D01*
D14*
X99275000Y-101325000D02*
X98725000Y-101325000D01*
X98725000Y-101325000D02*
X98725000Y-101675000D01*
X98725000Y-101675000D02*
X99275000Y-101675000D01*
X99275000Y-101675000D02*
X99275000Y-101400000D01*
X99275000Y-101400000D02*
X99275000Y-101325000D01*
G36*
X99275000Y-101675000D02*
G01*
X98725000Y-101675000D01*
X98725000Y-101325000D01*
X99275000Y-101325000D01*
X99275000Y-101675000D01*
G37*
X99275000Y-101675000D02*
X98725000Y-101675000D01*
X98725000Y-101325000D01*
X99275000Y-101325000D01*
X99275000Y-101675000D01*
D13*
%TO.C,R202*%
X99150000Y-103940000D02*
X99850000Y-103940000D01*
X99850000Y-103060000D02*
X99150000Y-103060000D01*
D14*
X99325000Y-103225000D02*
X99325000Y-103775000D01*
X99325000Y-103775000D02*
X99675000Y-103775000D01*
X99675000Y-103775000D02*
X99675000Y-103225000D01*
X99675000Y-103225000D02*
X99400000Y-103225000D01*
X99400000Y-103225000D02*
X99325000Y-103225000D01*
G36*
X99675000Y-103775000D02*
G01*
X99325000Y-103775000D01*
X99325000Y-103225000D01*
X99675000Y-103225000D01*
X99675000Y-103775000D01*
G37*
X99675000Y-103775000D02*
X99325000Y-103775000D01*
X99325000Y-103225000D01*
X99675000Y-103225000D01*
X99675000Y-103775000D01*
D13*
%TO.C,R401*%
X142650000Y-108370000D02*
X143350000Y-108370000D01*
X143350000Y-107490000D02*
X142650000Y-107490000D01*
D14*
X142825000Y-107655000D02*
X142825000Y-108205000D01*
X142825000Y-108205000D02*
X143175000Y-108205000D01*
X143175000Y-108205000D02*
X143175000Y-107655000D01*
X143175000Y-107655000D02*
X142900000Y-107655000D01*
X142900000Y-107655000D02*
X142825000Y-107655000D01*
G36*
X143175000Y-108205000D02*
G01*
X142825000Y-108205000D01*
X142825000Y-107655000D01*
X143175000Y-107655000D01*
X143175000Y-108205000D01*
G37*
X143175000Y-108205000D02*
X142825000Y-108205000D01*
X142825000Y-107655000D01*
X143175000Y-107655000D01*
X143175000Y-108205000D01*
D13*
%TO.C,R402*%
X142650000Y-109440000D02*
X143350000Y-109440000D01*
X143350000Y-108560000D02*
X142650000Y-108560000D01*
D14*
X142825000Y-108725000D02*
X142825000Y-109275000D01*
X142825000Y-109275000D02*
X143175000Y-109275000D01*
X143175000Y-109275000D02*
X143175000Y-108725000D01*
X143175000Y-108725000D02*
X142900000Y-108725000D01*
X142900000Y-108725000D02*
X142825000Y-108725000D01*
G36*
X143175000Y-109275000D02*
G01*
X142825000Y-109275000D01*
X142825000Y-108725000D01*
X143175000Y-108725000D01*
X143175000Y-109275000D01*
G37*
X143175000Y-109275000D02*
X142825000Y-109275000D01*
X142825000Y-108725000D01*
X143175000Y-108725000D01*
X143175000Y-109275000D01*
D13*
%TO.C,R403*%
X147940000Y-112350000D02*
X147940000Y-111650000D01*
X147060000Y-111650000D02*
X147060000Y-112350000D01*
D14*
X147775000Y-111825000D02*
X147225000Y-111825000D01*
X147225000Y-111825000D02*
X147225000Y-112175000D01*
X147225000Y-112175000D02*
X147775000Y-112175000D01*
X147775000Y-112175000D02*
X147775000Y-111900000D01*
X147775000Y-111900000D02*
X147775000Y-111825000D01*
G36*
X147775000Y-112175000D02*
G01*
X147225000Y-112175000D01*
X147225000Y-111825000D01*
X147775000Y-111825000D01*
X147775000Y-112175000D01*
G37*
X147775000Y-112175000D02*
X147225000Y-112175000D01*
X147225000Y-111825000D01*
X147775000Y-111825000D01*
X147775000Y-112175000D01*
D13*
%TO.C,R404*%
X160060000Y-111650000D02*
X160060000Y-112350000D01*
X160940000Y-112350000D02*
X160940000Y-111650000D01*
D14*
X160775000Y-111825000D02*
X160225000Y-111825000D01*
X160225000Y-111825000D02*
X160225000Y-112175000D01*
X160225000Y-112175000D02*
X160775000Y-112175000D01*
X160775000Y-112175000D02*
X160775000Y-111900000D01*
X160775000Y-111900000D02*
X160775000Y-111825000D01*
G36*
X160775000Y-112175000D02*
G01*
X160225000Y-112175000D01*
X160225000Y-111825000D01*
X160775000Y-111825000D01*
X160775000Y-112175000D01*
G37*
X160775000Y-112175000D02*
X160225000Y-112175000D01*
X160225000Y-111825000D01*
X160775000Y-111825000D01*
X160775000Y-112175000D01*
D13*
%TO.C,R501*%
X144060000Y-112150000D02*
X144060000Y-112850000D01*
X144940000Y-112850000D02*
X144940000Y-112150000D01*
D14*
X144225000Y-112675000D02*
X144775000Y-112675000D01*
X144775000Y-112675000D02*
X144775000Y-112325000D01*
X144775000Y-112325000D02*
X144225000Y-112325000D01*
X144225000Y-112325000D02*
X144225000Y-112600000D01*
X144225000Y-112600000D02*
X144225000Y-112675000D01*
G36*
X144775000Y-112675000D02*
G01*
X144225000Y-112675000D01*
X144225000Y-112325000D01*
X144775000Y-112325000D01*
X144775000Y-112675000D01*
G37*
X144775000Y-112675000D02*
X144225000Y-112675000D01*
X144225000Y-112325000D01*
X144775000Y-112325000D01*
X144775000Y-112675000D01*
D13*
%TO.C,R502*%
X142690000Y-112850000D02*
X142690000Y-112150000D01*
X141810000Y-112150000D02*
X141810000Y-112850000D01*
D14*
X141975000Y-112675000D02*
X142525000Y-112675000D01*
X142525000Y-112675000D02*
X142525000Y-112325000D01*
X142525000Y-112325000D02*
X141975000Y-112325000D01*
X141975000Y-112325000D02*
X141975000Y-112600000D01*
X141975000Y-112600000D02*
X141975000Y-112675000D01*
G36*
X142525000Y-112675000D02*
G01*
X141975000Y-112675000D01*
X141975000Y-112325000D01*
X142525000Y-112325000D01*
X142525000Y-112675000D01*
G37*
X142525000Y-112675000D02*
X141975000Y-112675000D01*
X141975000Y-112325000D01*
X142525000Y-112325000D01*
X142525000Y-112675000D01*
D13*
%TO.C,R503*%
X140440000Y-112850000D02*
X140440000Y-112150000D01*
X139560000Y-112150000D02*
X139560000Y-112850000D01*
D14*
X139725000Y-112675000D02*
X140275000Y-112675000D01*
X140275000Y-112675000D02*
X140275000Y-112325000D01*
X140275000Y-112325000D02*
X139725000Y-112325000D01*
X139725000Y-112325000D02*
X139725000Y-112600000D01*
X139725000Y-112600000D02*
X139725000Y-112675000D01*
G36*
X140275000Y-112675000D02*
G01*
X139725000Y-112675000D01*
X139725000Y-112325000D01*
X140275000Y-112325000D01*
X140275000Y-112675000D01*
G37*
X140275000Y-112675000D02*
X139725000Y-112675000D01*
X139725000Y-112325000D01*
X140275000Y-112325000D01*
X140275000Y-112675000D01*
D13*
%TO.C,R504*%
X138190000Y-112850000D02*
X138190000Y-112150000D01*
X137310000Y-112150000D02*
X137310000Y-112850000D01*
D14*
X137475000Y-112675000D02*
X138025000Y-112675000D01*
X138025000Y-112675000D02*
X138025000Y-112325000D01*
X138025000Y-112325000D02*
X137475000Y-112325000D01*
X137475000Y-112325000D02*
X137475000Y-112600000D01*
X137475000Y-112600000D02*
X137475000Y-112675000D01*
G36*
X138025000Y-112675000D02*
G01*
X137475000Y-112675000D01*
X137475000Y-112325000D01*
X138025000Y-112325000D01*
X138025000Y-112675000D01*
G37*
X138025000Y-112675000D02*
X137475000Y-112675000D01*
X137475000Y-112325000D01*
X138025000Y-112325000D01*
X138025000Y-112675000D01*
D13*
%TO.C,R701*%
X124060000Y-75650000D02*
X124060000Y-76350000D01*
X124940000Y-76350000D02*
X124940000Y-75650000D01*
D14*
X124225000Y-76175000D02*
X124775000Y-76175000D01*
X124775000Y-76175000D02*
X124775000Y-75825000D01*
X124775000Y-75825000D02*
X124225000Y-75825000D01*
X124225000Y-75825000D02*
X124225000Y-76100000D01*
X124225000Y-76100000D02*
X124225000Y-76175000D01*
G36*
X124775000Y-76175000D02*
G01*
X124225000Y-76175000D01*
X124225000Y-75825000D01*
X124775000Y-75825000D01*
X124775000Y-76175000D01*
G37*
X124775000Y-76175000D02*
X124225000Y-76175000D01*
X124225000Y-75825000D01*
X124775000Y-75825000D01*
X124775000Y-76175000D01*
D13*
%TO.C,R702*%
X126310000Y-75650000D02*
X126310000Y-76350000D01*
X127190000Y-76350000D02*
X127190000Y-75650000D01*
D14*
X126475000Y-76175000D02*
X127025000Y-76175000D01*
X127025000Y-76175000D02*
X127025000Y-75825000D01*
X127025000Y-75825000D02*
X126475000Y-75825000D01*
X126475000Y-75825000D02*
X126475000Y-76100000D01*
X126475000Y-76100000D02*
X126475000Y-76175000D01*
G36*
X127025000Y-76175000D02*
G01*
X126475000Y-76175000D01*
X126475000Y-75825000D01*
X127025000Y-75825000D01*
X127025000Y-76175000D01*
G37*
X127025000Y-76175000D02*
X126475000Y-76175000D01*
X126475000Y-75825000D01*
X127025000Y-75825000D01*
X127025000Y-76175000D01*
D13*
%TO.C,R801*%
X151162480Y-84789990D02*
X151862480Y-84789990D01*
X151862480Y-83909990D02*
X151162480Y-83909990D01*
D14*
X151687480Y-84624990D02*
X151687480Y-84074990D01*
X151687480Y-84074990D02*
X151337480Y-84074990D01*
X151337480Y-84074990D02*
X151337480Y-84624990D01*
X151337480Y-84624990D02*
X151612480Y-84624990D01*
X151612480Y-84624990D02*
X151687480Y-84624990D01*
G36*
X151687480Y-84624990D02*
G01*
X151337480Y-84624990D01*
X151337480Y-84074990D01*
X151687480Y-84074990D01*
X151687480Y-84624990D01*
G37*
X151687480Y-84624990D02*
X151337480Y-84624990D01*
X151337480Y-84074990D01*
X151687480Y-84074990D01*
X151687480Y-84624990D01*
D13*
%TO.C,R802*%
X151862480Y-85409990D02*
X151162480Y-85409990D01*
X151162480Y-86289990D02*
X151862480Y-86289990D01*
D14*
X151687480Y-86124990D02*
X151687480Y-85574990D01*
X151687480Y-85574990D02*
X151337480Y-85574990D01*
X151337480Y-85574990D02*
X151337480Y-86124990D01*
X151337480Y-86124990D02*
X151612480Y-86124990D01*
X151612480Y-86124990D02*
X151687480Y-86124990D01*
G36*
X151687480Y-86124990D02*
G01*
X151337480Y-86124990D01*
X151337480Y-85574990D01*
X151687480Y-85574990D01*
X151687480Y-86124990D01*
G37*
X151687480Y-86124990D02*
X151337480Y-86124990D01*
X151337480Y-85574990D01*
X151687480Y-85574990D01*
X151687480Y-86124990D01*
D13*
%TO.C,R901*%
X101850000Y-88140000D02*
X101150000Y-88140000D01*
X101150000Y-89360000D02*
X101850000Y-89360000D01*
D15*
X101700000Y-88750000D02*
G75*
G03*
X101700000Y-88750000I-200000J0D01*
G01*
D13*
%TO.C,R902*%
X104850000Y-88310000D02*
X104150000Y-88310000D01*
X104150000Y-89190000D02*
X104850000Y-89190000D01*
D14*
X104325000Y-88475000D02*
X104325000Y-89025000D01*
X104325000Y-89025000D02*
X104675000Y-89025000D01*
X104675000Y-89025000D02*
X104675000Y-88475000D01*
X104675000Y-88475000D02*
X104400000Y-88475000D01*
X104400000Y-88475000D02*
X104325000Y-88475000D01*
G36*
X104675000Y-89025000D02*
G01*
X104325000Y-89025000D01*
X104325000Y-88475000D01*
X104675000Y-88475000D01*
X104675000Y-89025000D01*
G37*
X104675000Y-89025000D02*
X104325000Y-89025000D01*
X104325000Y-88475000D01*
X104675000Y-88475000D01*
X104675000Y-89025000D01*
D13*
%TO.C,R1001*%
X124190000Y-107350000D02*
X124190000Y-106650000D01*
X123310000Y-106650000D02*
X123310000Y-107350000D01*
D14*
X124025000Y-106825000D02*
X123475000Y-106825000D01*
X123475000Y-106825000D02*
X123475000Y-107175000D01*
X123475000Y-107175000D02*
X124025000Y-107175000D01*
X124025000Y-107175000D02*
X124025000Y-106900000D01*
X124025000Y-106900000D02*
X124025000Y-106825000D01*
G36*
X124025000Y-107175000D02*
G01*
X123475000Y-107175000D01*
X123475000Y-106825000D01*
X124025000Y-106825000D01*
X124025000Y-107175000D01*
G37*
X124025000Y-107175000D02*
X123475000Y-107175000D01*
X123475000Y-106825000D01*
X124025000Y-106825000D01*
X124025000Y-107175000D01*
D13*
%TO.C,R1002*%
X126190000Y-107350000D02*
X126190000Y-106650000D01*
X125310000Y-106650000D02*
X125310000Y-107350000D01*
D14*
X126025000Y-106825000D02*
X125475000Y-106825000D01*
X125475000Y-106825000D02*
X125475000Y-107175000D01*
X125475000Y-107175000D02*
X126025000Y-107175000D01*
X126025000Y-107175000D02*
X126025000Y-106900000D01*
X126025000Y-106900000D02*
X126025000Y-106825000D01*
G36*
X126025000Y-107175000D02*
G01*
X125475000Y-107175000D01*
X125475000Y-106825000D01*
X126025000Y-106825000D01*
X126025000Y-107175000D01*
G37*
X126025000Y-107175000D02*
X125475000Y-107175000D01*
X125475000Y-106825000D01*
X126025000Y-106825000D01*
X126025000Y-107175000D01*
D13*
%TO.C,R1003*%
X127310000Y-106650000D02*
X127310000Y-107350000D01*
X128190000Y-107350000D02*
X128190000Y-106650000D01*
D14*
X128025000Y-106825000D02*
X127475000Y-106825000D01*
X127475000Y-106825000D02*
X127475000Y-107175000D01*
X127475000Y-107175000D02*
X128025000Y-107175000D01*
X128025000Y-107175000D02*
X128025000Y-106900000D01*
X128025000Y-106900000D02*
X128025000Y-106825000D01*
G36*
X128025000Y-107175000D02*
G01*
X127475000Y-107175000D01*
X127475000Y-106825000D01*
X128025000Y-106825000D01*
X128025000Y-107175000D01*
G37*
X128025000Y-107175000D02*
X127475000Y-107175000D01*
X127475000Y-106825000D01*
X128025000Y-106825000D01*
X128025000Y-107175000D01*
D10*
%TO.C,U201*%
X118080000Y-98760000D02*
X117150000Y-98760000D01*
X114920000Y-98760000D02*
X114920000Y-96600000D01*
X114920000Y-98760000D02*
X115850000Y-98760000D01*
X118080000Y-98760000D02*
X118080000Y-97300000D01*
%TO.C,U202*%
X103890000Y-104400000D02*
X103890000Y-101950000D01*
X107110000Y-102600000D02*
X107110000Y-104400000D01*
%TO.C,U701*%
X124140000Y-81910000D02*
X127590000Y-81910000D01*
X124140000Y-87030000D02*
X122190000Y-87030000D01*
X124140000Y-81910000D02*
X122190000Y-81910000D01*
X124140000Y-87030000D02*
X126090000Y-87030000D01*
D17*
%TO.C,U801*%
X156462480Y-86799990D02*
X156462480Y-86079990D01*
X156462480Y-83599990D02*
X156242480Y-83599990D01*
X153762480Y-83499990D02*
X153762480Y-84319990D01*
X156462480Y-83599990D02*
X156462480Y-84319990D01*
X156242480Y-86799990D02*
X156462480Y-86799990D01*
X153762480Y-86799990D02*
X153982480Y-86799990D01*
X153762480Y-86079990D02*
X153762480Y-86799990D01*
D16*
%TO.C,U301*%
X169250000Y-101000000D02*
X169250000Y-102000000D01*
X169250000Y-105000000D02*
X169250000Y-106000000D01*
X169250000Y-104000000D02*
X168000000Y-104000000D01*
D10*
X151500000Y-106500000D02*
X170000000Y-106500000D01*
D16*
X169250000Y-102000000D02*
X168000000Y-102000000D01*
X168000000Y-101000000D02*
X169250000Y-101000000D01*
X169250000Y-99000000D02*
X166000000Y-99000000D01*
X167000000Y-106000000D02*
X169250000Y-106000000D01*
X168000000Y-104000000D02*
X168000000Y-105000000D01*
X169250000Y-100000000D02*
X168000000Y-100000000D01*
X169250000Y-103000000D02*
X169250000Y-104000000D01*
X168000000Y-105000000D02*
X169250000Y-105000000D01*
X166000000Y-98000000D02*
X169250000Y-98000000D01*
D10*
X170000000Y-106500000D02*
X170000000Y-97400000D01*
D16*
X168000000Y-103000000D02*
X169250000Y-103000000D01*
D10*
X166000000Y-97400000D02*
X166000000Y-106500000D01*
D16*
X168000000Y-100000000D02*
X168000000Y-101000000D01*
D10*
X151500000Y-97400000D02*
X151500000Y-106500000D01*
D16*
X169250000Y-98000000D02*
X169250000Y-99000000D01*
X168000000Y-102000000D02*
X168000000Y-103000000D01*
X169250000Y-99000000D02*
X169250000Y-100000000D01*
D10*
X170000000Y-97400000D02*
X151500000Y-97400000D01*
X154000000Y-105500000D02*
G75*
G03*
X154000000Y-105500000I-500000J0D01*
G01*
D18*
%TO.C,U501*%
X142995800Y-90996200D02*
X134004200Y-90996200D01*
X133496200Y-100495800D02*
X134004200Y-101003800D01*
X133496200Y-91504200D02*
X133496200Y-100495800D01*
X134004200Y-101003800D02*
X142995800Y-101003800D01*
X143503800Y-91504200D02*
X142995800Y-90996200D01*
X143503800Y-91504200D02*
X143503800Y-100495800D01*
X134004200Y-90996200D02*
X133496200Y-91504200D01*
X142995800Y-101003800D02*
X143503800Y-100495800D01*
X134893200Y-92012200D02*
G75*
G03*
X134893200Y-92012200I-381000J0D01*
G01*
D13*
%TO.C,JP901*%
X114775000Y-107100000D02*
X114775000Y-105900000D01*
X118225000Y-107100000D02*
X118225000Y-105900000D01*
X114775000Y-107100000D02*
X118225000Y-107100000D01*
X118225000Y-105900000D02*
X114775000Y-105900000D01*
%TO.C,R1004*%
X126800000Y-94940000D02*
X127500000Y-94940000D01*
X127500000Y-94060000D02*
X126800000Y-94060000D01*
D14*
X127325000Y-94775000D02*
X127325000Y-94225000D01*
X127325000Y-94225000D02*
X126975000Y-94225000D01*
X126975000Y-94225000D02*
X126975000Y-94775000D01*
X126975000Y-94775000D02*
X127250000Y-94775000D01*
X127250000Y-94775000D02*
X127325000Y-94775000D01*
G36*
X127325000Y-94775000D02*
G01*
X126975000Y-94775000D01*
X126975000Y-94225000D01*
X127325000Y-94225000D01*
X127325000Y-94775000D01*
G37*
X127325000Y-94775000D02*
X126975000Y-94775000D01*
X126975000Y-94225000D01*
X127325000Y-94225000D01*
X127325000Y-94775000D01*
D13*
%TO.C,R1005*%
X126800000Y-98940000D02*
X127500000Y-98940000D01*
X127500000Y-98060000D02*
X126800000Y-98060000D01*
D14*
X127325000Y-98775000D02*
X127325000Y-98225000D01*
X127325000Y-98225000D02*
X126975000Y-98225000D01*
X126975000Y-98225000D02*
X126975000Y-98775000D01*
X126975000Y-98775000D02*
X127250000Y-98775000D01*
X127250000Y-98775000D02*
X127325000Y-98775000D01*
G36*
X127325000Y-98775000D02*
G01*
X126975000Y-98775000D01*
X126975000Y-98225000D01*
X127325000Y-98225000D01*
X127325000Y-98775000D01*
G37*
X127325000Y-98775000D02*
X126975000Y-98775000D01*
X126975000Y-98225000D01*
X127325000Y-98225000D01*
X127325000Y-98775000D01*
D13*
%TO.C,R1006*%
X126800000Y-102940000D02*
X127500000Y-102940000D01*
X127500000Y-102060000D02*
X126800000Y-102060000D01*
D14*
X127325000Y-102775000D02*
X127325000Y-102225000D01*
X127325000Y-102225000D02*
X126975000Y-102225000D01*
X126975000Y-102225000D02*
X126975000Y-102775000D01*
X126975000Y-102775000D02*
X127250000Y-102775000D01*
X127250000Y-102775000D02*
X127325000Y-102775000D01*
G36*
X127325000Y-102775000D02*
G01*
X126975000Y-102775000D01*
X126975000Y-102225000D01*
X127325000Y-102225000D01*
X127325000Y-102775000D01*
G37*
X127325000Y-102775000D02*
X126975000Y-102775000D01*
X126975000Y-102225000D01*
X127325000Y-102225000D01*
X127325000Y-102775000D01*
D10*
%TO.C,J401*%
X149300000Y-114100000D02*
X149300000Y-116100000D01*
X149300000Y-118000000D02*
X149300000Y-119900000D01*
X158700000Y-118000000D02*
X158700000Y-119900000D01*
X158700000Y-119900000D02*
X149300000Y-119900000D01*
X158700000Y-114100000D02*
X158700000Y-116100000D01*
%TO.C,J901*%
X107270000Y-116330000D02*
X130190000Y-116330000D01*
X104670000Y-111130000D02*
X104670000Y-113730000D01*
X130190000Y-111130000D02*
X130190000Y-116330000D01*
X104670000Y-111130000D02*
X130190000Y-111130000D01*
X107270000Y-113730000D02*
X107270000Y-116330000D01*
X104670000Y-113730000D02*
X107270000Y-113730000D01*
X104670000Y-115000000D02*
X104670000Y-116330000D01*
X104670000Y-116330000D02*
X106000000Y-116330000D01*
%TO.C,D101*%
X104500000Y-107150000D02*
X104500000Y-108850000D01*
X104500000Y-108850000D02*
X101950000Y-108850000D01*
X104500000Y-107150000D02*
X101950000Y-107150000D01*
%TO.C,C910*%
X100510000Y-110960000D02*
X97490000Y-110960000D01*
X97490000Y-110960000D02*
X97490000Y-106750000D01*
X100510000Y-106750000D02*
X100510000Y-110960000D01*
%TO.C,D202*%
X110850000Y-93700000D02*
X110850000Y-91150000D01*
X109150000Y-93700000D02*
X109150000Y-91150000D01*
X110850000Y-93700000D02*
X109150000Y-93700000D01*
%TO.C,U402*%
X146600000Y-106890000D02*
X149050000Y-106890000D01*
X148400000Y-110110000D02*
X146600000Y-110110000D01*
D13*
%TO.C,R1*%
X154829280Y-94560000D02*
X154129280Y-94560000D01*
X154129280Y-95440000D02*
X154829280Y-95440000D01*
D14*
X154654280Y-95275000D02*
X154654280Y-94725000D01*
X154654280Y-94725000D02*
X154304280Y-94725000D01*
X154304280Y-94725000D02*
X154304280Y-95275000D01*
X154304280Y-95275000D02*
X154579280Y-95275000D01*
X154579280Y-95275000D02*
X154654280Y-95275000D01*
G36*
X154654280Y-95275000D02*
G01*
X154304280Y-95275000D01*
X154304280Y-94725000D01*
X154654280Y-94725000D01*
X154654280Y-95275000D01*
G37*
X154654280Y-95275000D02*
X154304280Y-95275000D01*
X154304280Y-94725000D01*
X154654280Y-94725000D01*
X154654280Y-95275000D01*
%TD*%
M02*
